<?xml version="1.0" encoding="UTF-8" standalone="no"?>
<!-- Created with Inkscape (http://www.inkscape.org/) -->

<svg
   width="320.80536mm"
   height="133.71896mm"
   viewBox="0 0 320.80536 133.71896"
   version="1.1"
   id="svg5"
   sodipodi:docname="aargauer_ol_verband_oneline.svg"
   inkscape:version="1.1.1 (c3084ef, 2021-09-22)"
   xmlns:inkscape="http://www.inkscape.org/namespaces/inkscape"
   xmlns:sodipodi="http://sodipodi.sourceforge.net/DTD/sodipodi-0.dtd"
   xmlns:xlink="http://www.w3.org/1999/xlink"
   xmlns="http://www.w3.org/2000/svg"
   xmlns:svg="http://www.w3.org/2000/svg">
  <sodipodi:namedview
     id="namedview7"
     pagecolor="#ffffff"
     bordercolor="#000000"
     borderopacity="1"
     inkscape:pageshadow="0"
     inkscape:pageopacity="0"
     inkscape:pagecheckerboard="1"
     inkscape:document-units="mm"
     showgrid="false"
     showguides="false"
     inkscape:zoom="0.9621319"
     inkscape:cx="376.76747"
     inkscape:cy="121.08527"
     inkscape:window-width="1920"
     inkscape:window-height="1027"
     inkscape:window-x="0"
     inkscape:window-y="25"
     inkscape:window-maximized="0"
     inkscape:current-layer="g65702"
     fit-margin-top="0"
     fit-margin-left="0"
     fit-margin-right="0"
     fit-margin-bottom="0" />
  <defs
     id="defs2">
    <linearGradient
       inkscape:collect="always"
       id="linearGradient37613">
      <stop
         style="stop-color:#0931c0;stop-opacity:1"
         offset="0"
         id="stop37609" />
      <stop
         style="stop-color:#2750e3;stop-opacity:1"
         offset="1"
         id="stop37611" />
    </linearGradient>
    <linearGradient
       inkscape:collect="always"
       xlink:href="#linearGradient37613"
       id="linearGradient37615"
       x1="43.098385"
       y1="283.40936"
       x2="136.65715"
       y2="190.9951"
       gradientUnits="userSpaceOnUse" />
  </defs>
  <g
     inkscape:label="Layer 1"
     inkscape:groupmode="layer"
     id="layer1"
     transform="translate(-23.260061,-169.61704)">
    <g
       id="g65507">
      <g
         id="g65702">
        <g
           aria-label="Aargauer OL-Verband"
           id="text1234"
           style="font-size:34.1485px;line-height:1.25;fill:#052db9;stroke-width:0.853715"
           transform="translate(0,2.11668)">
          <g
             id="g302625"
             transform="translate(0,1.8556479)">
            <g
               id="g302603"
               transform="translate(153.08409,-113.95234)">
              <path
                 d="m 39.500171,330.39528 2.458692,7.23949 h 3.17581 l -7.854154,-23.01609 h -3.551444 l -7.854155,23.01609 h 3.073365 l 2.390395,-7.23949 z m -7.546818,-2.32209 2.253801,-6.65896 c 0.478079,-1.40009 0.819564,-2.83433 1.161049,-4.16612 h 0.0683 c 0.341485,1.33179 0.68297,2.69773 1.195197,4.20027 l 2.28795,6.62481 z"
                 style="font-family:'Myriad Pro';-inkscape-font-specification:'Myriad Pro'"
                 id="path65616" />
              <path
                 d="m 60.133868,327.49266 c 0,-3.27825 -1.229345,-6.72725 -6.283323,-6.72725 -2.083059,0 -4.09782,0.58052 -5.46376,1.43423 l 0.68297,2.01477 c 1.161049,-0.78542 2.766028,-1.22935 4.336859,-1.22935 3.380702,-0.0341 3.756335,2.45869 3.756335,3.79048 v 0.34149 c -6.385769,-0.0342 -9.937213,2.15135 -9.937213,6.14673 0,2.39039 1.707425,4.74664 5.053978,4.74664 2.356246,0 4.131968,-1.16105 5.053978,-2.45869 h 0.102445 l 0.23904,2.08306 h 2.697731 c -0.170743,-1.1269 -0.23904,-2.52699 -0.23904,-3.96123 z m -2.902622,4.5759 c 0,0.27319 -0.03415,0.61467 -0.136594,0.95616 -0.478079,1.40009 -1.878167,2.76603 -4.063671,2.76603 -1.502534,0 -2.800177,-0.88786 -2.800177,-2.86848 0,-3.20996 3.722186,-3.79048 7.000442,-3.72218 z"
                 style="font-family:'Myriad Pro';-inkscape-font-specification:'Myriad Pro'"
                 id="path65618" />
              <path
                 d="m 64.997363,337.63477 h 3.005068 v -8.81032 c 0,-0.47808 0.03415,-0.9903 0.102445,-1.40009 0.409782,-2.2538 1.912316,-3.82463 4.029523,-3.82463 0.409782,0 0.717118,0 1.024455,0.0683 v -2.83433 c -0.273188,-0.0341 -0.512228,-0.0683 -0.819564,-0.0683 -2.014762,0 -3.85878,1.40009 -4.610047,3.61974 h -0.102446 l -0.136594,-3.27826 h -2.629434 c 0.102445,1.53668 0.136594,3.20996 0.136594,5.15643 z"
                 style="font-family:'Myriad Pro';-inkscape-font-specification:'Myriad Pro'"
                 id="path65620" />
              <path
                 d="m 90.006332,325.61449 c 0,-1.98061 0.03415,-3.34655 0.136594,-4.5076 h -2.663583 l -0.102446,2.49284 h -0.0683 c -0.751267,-1.36594 -2.287949,-2.83432 -5.156423,-2.83432 -3.824632,0 -7.478521,3.14166 -7.478521,8.74201 0,4.5759 2.936771,8.05905 7.03459,8.05905 2.561138,0 4.371008,-1.22935 5.258869,-2.76603 h 0.0683 v 1.80987 c 0,4.20027 -2.253801,5.80525 -5.327166,5.80525 -2.048909,0 -3.756334,-0.61468 -4.849086,-1.3318 l -0.751267,2.3221 c 1.331791,0.88786 3.517295,1.36594 5.497908,1.36594 2.083058,0 4.405156,-0.51223 6.044284,-1.98061 1.570831,-1.46839 2.356247,-3.75634 2.356247,-7.58097 z m -3.005068,4.98568 c 0,0.51223 -0.0683,1.09276 -0.23904,1.60498 -0.614673,1.91232 -2.287949,3.07337 -4.166117,3.07337 -3.209958,0 -4.883235,-2.69773 -4.883235,-5.94184 0,-3.82463 2.04891,-6.24917 4.917384,-6.24917 2.219652,0 3.653889,1.43423 4.200265,3.20995 0.136594,0.37564 0.170743,0.81957 0.170743,1.3318 z"
                 style="font-family:'Myriad Pro';-inkscape-font-specification:'Myriad Pro'"
                 id="path65622" />
              <path
                 d="m 106.55448,327.49266 c 0,-3.27825 -1.22934,-6.72725 -6.28332,-6.72725 -2.083058,0 -4.097819,0.58052 -5.463759,1.43423 l 0.68297,2.01477 c 1.161049,-0.78542 2.766028,-1.22935 4.336859,-1.22935 3.3807,-0.0341 3.75634,2.45869 3.75634,3.79048 v 0.34149 c -6.385774,-0.0342 -9.937218,2.15135 -9.937218,6.14673 0,2.39039 1.707425,4.74664 5.053978,4.74664 2.35625,0 4.13197,-1.16105 5.05398,-2.45869 h 0.10244 l 0.23904,2.08306 h 2.69773 c -0.17074,-1.1269 -0.23904,-2.52699 -0.23904,-3.96123 z m -2.90262,4.5759 c 0,0.27319 -0.0341,0.61467 -0.13659,0.95616 -0.47808,1.40009 -1.87817,2.76603 -4.063673,2.76603 -1.502534,0 -2.800177,-0.88786 -2.800177,-2.86848 0,-3.20996 3.72219,-3.79048 7.00044,-3.72218 z"
                 style="font-family:'Myriad Pro';-inkscape-font-specification:'Myriad Pro'"
                 id="path65624" />
              <path
                 d="m 125.24812,321.10689 h -3.00507 v 10.10796 c 0,0.58052 -0.10244,1.1269 -0.27319,1.53668 -0.54637,1.36594 -1.94646,2.76603 -3.96122,2.76603 -2.69773,0 -3.68804,-2.15136 -3.68804,-5.29302 v -9.11765 h -3.00507 v 9.66403 c 0,5.77109 3.10752,7.23948 5.7028,7.23948 2.93677,0 4.7125,-1.74157 5.46376,-3.07337 h 0.0683 l 0.17074,2.69774 h 2.66358 c -0.10244,-1.29765 -0.13659,-2.80018 -0.13659,-4.54175 z"
                 style="font-family:'Myriad Pro';-inkscape-font-specification:'Myriad Pro'"
                 id="path65626" />
              <path
                 d="m 143.51009,329.9172 c 0.0683,-0.34148 0.10245,-0.78541 0.10245,-1.40008 0,-3.03922 -1.40009,-7.75171 -6.8297,-7.75171 -4.81494,0 -7.75171,3.89293 -7.75171,8.87861 0,4.98568 3.03922,8.36638 8.12734,8.36638 2.62944,0 4.47346,-0.58053 5.53206,-1.0586 l -0.54638,-2.15136 c -1.09275,0.47808 -2.42454,0.85371 -4.57589,0.85371 -3.03922,0 -5.60036,-1.67327 -5.66866,-5.73695 z m -11.57634,-2.15135 c 0.23904,-2.08306 1.53669,-4.84909 4.61005,-4.84909 3.3807,0 4.20027,2.97092 4.16612,4.84909 z"
                 style="font-family:'Myriad Pro';-inkscape-font-specification:'Myriad Pro'"
                 id="path65628" />
              <path
                 d="m 147.36727,337.63477 h 3.00507 v -8.81032 c 0,-0.47808 0.0341,-0.9903 0.10245,-1.40009 0.40978,-2.2538 1.91231,-3.82463 4.02952,-3.82463 0.40978,0 0.71712,0 1.02446,0.0683 v -2.83433 c -0.27319,-0.0341 -0.51223,-0.0683 -0.81957,-0.0683 -2.01476,0 -3.85878,1.40009 -4.61005,3.61974 h -0.10244 l -0.1366,-3.27826 h -2.62943 c 0.10245,1.53668 0.13659,3.20996 0.13659,5.15643 z"
                 style="font-family:'Myriad Pro';-inkscape-font-specification:'Myriad Pro'"
                 id="path65630" />
            </g>
            <g
               id="g302593"
               transform="translate(14.447064,-73.668454)">
              <path
                 d="m 175.16628,314.2089 c -6.14673,0 -10.65433,4.78079 -10.65433,12.08856 0,6.9663 4.23442,11.71294 10.347,11.71294 5.87354,0 10.68848,-4.23441 10.68848,-12.12272 0,-6.86385 -4.06367,-11.67878 -10.38115,-11.67878 z m -0.10244,2.42454 c 4.95153,0 7.34193,4.78079 7.34193,9.39084 0,5.22472 -2.66359,9.56158 -7.37608,9.56158 -4.71249,0 -7.37608,-4.40516 -7.37608,-9.35669 0,-5.01983 2.4587,-9.59573 7.41023,-9.59573 z"
                 style="font-family:'Myriad Pro';-inkscape-font-specification:'Myriad Pro'"
                 id="path65632" />
              <path
                 d="m 189.38754,337.63477 h 12.83983 v -2.49284 h -9.83477 v -20.52325 h -3.00506 z"
                 style="font-family:'Myriad Pro';-inkscape-font-specification:'Myriad Pro'"
                 id="path65634" />
              <path
                 d="m 202.52404,327.32192 v 2.1855 h 8.43468 v -2.1855 z"
                 style="font-family:'Myriad Pro';-inkscape-font-specification:'Myriad Pro'"
                 id="path65636" />
              <path
                 d="m 222.49824,337.63477 8.22979,-23.01609 h -3.17581 l -3.89293,11.37145 c -1.0586,3.00507 -1.98061,5.90769 -2.62943,8.57127 h -0.0683 c -0.64882,-2.69773 -1.50253,-5.49791 -2.45869,-8.60542 l -3.58559,-11.3373 h -3.24411 l 7.54682,23.01609 z"
                 style="font-family:'Myriad Pro';-inkscape-font-specification:'Myriad Pro'"
                 id="path65638" />
              <path
                 d="m 245.28863,329.9172 c 0.0683,-0.34148 0.10244,-0.78541 0.10244,-1.40008 0,-3.03922 -1.40008,-7.75171 -6.8297,-7.75171 -4.81493,0 -7.75171,3.89293 -7.75171,8.87861 0,4.98568 3.03922,8.36638 8.12735,8.36638 2.62943,0 4.47345,-0.58053 5.53205,-1.0586 l -0.54637,-2.15136 c -1.09275,0.47808 -2.42454,0.85371 -4.5759,0.85371 -3.03922,0 -5.60035,-1.67327 -5.66865,-5.73695 z m -11.57634,-2.15135 c 0.23904,-2.08306 1.53668,-4.84909 4.61004,-4.84909 3.38071,0 4.20027,2.97092 4.16612,4.84909 z"
                 style="font-family:'Myriad Pro';-inkscape-font-specification:'Myriad Pro'"
                 id="path65640" />
              <path
                 d="m 249.14581,337.63477 h 3.00507 v -8.81032 c 0,-0.47808 0.0341,-0.9903 0.10244,-1.40009 0.40978,-2.2538 1.91232,-3.82463 4.02952,-3.82463 0.40979,0 0.71712,0 1.02446,0.0683 v -2.83433 c -0.27319,-0.0341 -0.51223,-0.0683 -0.81956,-0.0683 -2.01477,0 -3.85879,1.40009 -4.61005,3.61974 h -0.10245 l -0.13659,-3.27826 h -2.62944 c 0.10245,1.53668 0.1366,3.20996 0.1366,5.15643 z"
                 style="font-family:'Myriad Pro';-inkscape-font-specification:'Myriad Pro'"
                 id="path65642" />
              <path
                 d="m 260.41748,333.3662 c 0,1.46839 -0.0683,3.14167 -0.1366,4.26857 h 2.56114 l 0.17074,-2.69774 h 0.0683 c 1.26349,2.15136 3.17581,3.07337 5.5662,3.07337 3.68804,0 7.44438,-2.93677 7.44438,-8.84446 0,-4.98568 -2.86848,-8.40053 -7.00045,-8.40053 -2.66358,0 -4.57589,1.16105 -5.6345,3.00507 h -0.0683 v -10.38115 h -2.97091 z m 2.97091,-5.29301 c 0,-0.47808 0.0683,-0.88786 0.17075,-1.2635 0.61467,-2.2538 2.52699,-3.68804 4.54175,-3.68804 3.2441,0 4.95153,2.83433 4.95153,6.14673 0,3.79049 -1.84402,6.35162 -5.01983,6.35162 -2.1855,0 -3.96123,-1.43423 -4.5076,-3.51729 -0.10245,-0.34149 -0.1366,-0.71712 -0.1366,-1.09275 z"
                 style="font-family:'Myriad Pro';-inkscape-font-specification:'Myriad Pro'"
                 id="path65644" />
              <path
                 d="m 291.4366,327.49266 c 0,-3.27825 -1.22935,-6.72725 -6.28333,-6.72725 -2.08306,0 -4.09782,0.58052 -5.46376,1.43423 l 0.68297,2.01477 c 1.16105,-0.78542 2.76603,-1.22935 4.33686,-1.22935 3.3807,-0.0341 3.75634,2.45869 3.75634,3.79048 v 0.34149 c -6.38577,-0.0342 -9.93722,2.15135 -9.93722,6.14673 0,2.39039 1.70743,4.74664 5.05398,4.74664 2.35625,0 4.13197,-1.16105 5.05398,-2.45869 h 0.10244 l 0.23904,2.08306 h 2.69773 c -0.17074,-1.1269 -0.23903,-2.52699 -0.23903,-3.96123 z m -2.90263,4.5759 c 0,0.27319 -0.0342,0.61467 -0.13659,0.95616 -0.47808,1.40009 -1.87817,2.76603 -4.06367,2.76603 -1.50254,0 -2.80018,-0.88786 -2.80018,-2.86848 0,-3.20996 3.72219,-3.79048 7.00044,-3.72218 z"
                 style="font-family:'Myriad Pro';-inkscape-font-specification:'Myriad Pro'"
                 id="path65646" />
              <path
                 d="m 296.30009,337.63477 h 3.00507 v -9.93722 c 0,-0.51222 0.0683,-1.02445 0.20489,-1.40009 0.54637,-1.67327 2.08306,-3.07336 4.02952,-3.07336 2.83433,0 3.82463,2.21965 3.82463,4.88323 v 9.52744 h 3.00507 V 327.8 c 0,-5.66865 -3.55144,-7.03459 -5.83939,-7.03459 -2.73188,0 -4.6442,1.53668 -5.46376,3.07336 h -0.0683 l -0.17074,-2.73188 h -2.66358 c 0.10244,1.36594 0.13659,2.73188 0.13659,4.47346 z"
                 style="font-family:'Myriad Pro';-inkscape-font-specification:'Myriad Pro'"
                 id="path65648" />
              <path
                 d="m 326.51084,313.38933 v 9.86892 h -0.0683 c -0.75127,-1.29765 -2.42454,-2.49284 -4.98568,-2.49284 -3.99538,0 -7.44437,3.34655 -7.41023,8.84446 0,5.01983 3.10752,8.40053 7.10289,8.40053 2.69773,0 4.67835,-1.40009 5.56621,-3.24411 h 0.10244 l 0.1366,2.86848 h 2.66358 c -0.0683,-1.1269 -0.13659,-2.80018 -0.13659,-4.26857 v -19.97687 z m 0,17.31329 c 0,0.47808 -0.0341,0.88786 -0.1366,1.29764 -0.54637,2.21966 -2.39039,3.5856 -4.40515,3.5856 -3.20996,0 -4.88324,-2.76603 -4.88324,-6.11259 0,-3.61974 1.84402,-6.35162 4.95153,-6.35162 2.2538,0 3.89293,1.57083 4.33686,3.449 0.10245,0.37564 0.1366,0.88786 0.1366,1.2635 z"
                 style="font-family:'Myriad Pro';-inkscape-font-specification:'Myriad Pro'"
                 id="path65650" />
            </g>
          </g>
        </g>
        <g
           id="path2658">
          <path
             style="color:#000000;fill:url(#linearGradient37615);stroke-width:1.19553;stroke-linecap:round;stroke-linejoin:round;stroke-dashoffset:621.81;-inkscape-stroke:none;paint-order:fill markers stroke"
             d="M 156.38084,236.47647 A 66.261154,66.261154 0 0 1 90.119682,302.73763 66.261154,66.261154 0 0 1 23.858528,236.47647 66.261154,66.261154 0 0 1 90.119682,170.21532 66.261154,66.261154 0 0 1 156.38084,236.47647 Z"
             id="path302689" />
          <path
             style="color:#000000;fill:#000000;stroke-linecap:round;stroke-linejoin:round;stroke-dashoffset:621.81;-inkscape-stroke:none;paint-order:fill markers stroke"
             d="m 90.119141,169.61719 c -36.918045,0 -66.857422,29.94133 -66.857422,66.85937 0,36.91805 29.939377,66.85938 66.857422,66.85938 36.918039,0 66.859379,-29.94133 66.859379,-66.85938 0,-36.91804 -29.94134,-66.85937 -66.859379,-66.85937 z m 0,1.19531 c 36.271929,0 65.664059,29.39213 65.664059,65.66406 0,36.27193 -29.39213,65.66407 -65.664059,65.66406 -36.271933,0 -65.66211,-29.39213 -65.66211,-65.66406 0,-36.27193 29.390177,-65.66406 65.66211,-65.66406 z"
             id="path302691" />
        </g>
        <path
           sodipodi:type="star"
           style="fill:#ffffff;fill-opacity:1;stroke:none;stroke-width:4.51276;stroke-linecap:round;stroke-linejoin:round;stroke-miterlimit:4;stroke-dasharray:none;stroke-dashoffset:621.81;stroke-opacity:0.526549;paint-order:fill markers stroke"
           id="path3518"
           inkscape:flatsided="false"
           sodipodi:sides="5"
           sodipodi:cx="472.79065"
           sodipodi:cy="169.86252"
           sodipodi:r1="30.010521"
           sodipodi:r2="15.605471"
           sodipodi:arg1="-0.34480726"
           sodipodi:arg2="0.28351127"
           inkscape:rounded="0"
           inkscape:randomized="0"
           d="m 501.03477,159.7185 -13.26163,14.50931 3.39295,19.36179 -17.89724,-8.12894 -17.36567,9.21002 2.20053,-19.53327 -14.12554,-13.66969 19.25725,-3.94328 8.63561,-17.65835 9.7011,17.09619 z"
           transform="matrix(0.2765091,0.00666705,-0.00662998,0.27805496,-5.982233,181.4146)"
           inkscape:transform-center-x="0.017122797"
           inkscape:transform-center-y="-0.78067001" />
        <path
           sodipodi:type="star"
           style="fill:#ffffff;fill-opacity:1;stroke:none;stroke-width:4.51276;stroke-linecap:round;stroke-linejoin:round;stroke-miterlimit:4;stroke-dasharray:none;stroke-dashoffset:621.81;stroke-opacity:0.526549;paint-order:fill markers stroke"
           id="path3826"
           inkscape:flatsided="false"
           sodipodi:sides="5"
           sodipodi:cx="472.79065"
           sodipodi:cy="169.86252"
           sodipodi:r1="30.010521"
           sodipodi:r2="15.605471"
           sodipodi:arg1="-0.34480726"
           sodipodi:arg2="0.28351127"
           inkscape:rounded="0"
           inkscape:randomized="0"
           d="m 501.03477,159.7185 -13.26163,14.50931 3.39295,19.36179 -17.89724,-8.12894 -17.36567,9.21002 2.20053,-19.53327 -14.12554,-13.66969 19.25725,-3.94328 8.63561,-17.65835 9.7011,17.09619 z"
           transform="matrix(0.2765091,0.00666705,-0.00662998,0.27805496,13.542095,181.4146)"
           inkscape:transform-center-x="0.017122797"
           inkscape:transform-center-y="-0.78067001" />
        <path
           sodipodi:type="star"
           style="fill:#ffffff;fill-opacity:1;stroke:none;stroke-width:4.51276;stroke-linecap:round;stroke-linejoin:round;stroke-miterlimit:4;stroke-dasharray:none;stroke-dashoffset:621.81;stroke-opacity:0.526549;paint-order:fill markers stroke"
           id="path3828"
           inkscape:flatsided="false"
           sodipodi:sides="5"
           sodipodi:cx="472.79065"
           sodipodi:cy="169.86252"
           sodipodi:r1="30.010521"
           sodipodi:r2="15.605471"
           sodipodi:arg1="-0.34480726"
           sodipodi:arg2="0.28351127"
           inkscape:rounded="0"
           inkscape:randomized="0"
           d="m 501.03477,159.7185 -13.26163,14.50931 3.39295,19.36179 -17.89724,-8.12894 -17.36567,9.21002 2.20053,-19.53327 -14.12554,-13.66969 19.25725,-3.94328 8.63561,-17.65835 9.7011,17.09619 z"
           transform="matrix(0.2765091,0.00666705,-0.00662998,0.27805496,3.3852344,194.2554)"
           inkscape:transform-center-x="0.017122797"
           inkscape:transform-center-y="-0.78067001" />
        <path
           style="color:#000000;fill:#ffffff;stroke-linecap:round;stroke-linejoin:round;stroke-dashoffset:621.81;-inkscape-stroke:none;paint-order:fill markers stroke"
           d="m 89.421875,213.17383 c -12.853515,0 -23.320313,10.4668 -23.320313,23.32031 0,12.85352 10.466798,23.32031 23.320313,23.32031 12.853515,0 23.320315,-10.46679 23.320315,-23.32031 0,-12.85351 -10.4668,-23.32031 -23.320315,-23.32031 z m 0,4.37304 c 10.490178,0 18.947265,8.45709 18.947265,18.94727 0,10.49018 -8.457087,18.94727 -18.947265,18.94727 -10.490178,0 -18.947266,-8.45709 -18.947266,-18.94727 0,-10.49018 8.457088,-18.94727 18.947266,-18.94727 z"
           id="path3852" />
        <g
           aria-label="L"
           transform="matrix(0.90593707,0,0,1.1038294,-2.230373,186.45919)"
           id="text7620"
           style="font-size:40.5749px;line-height:1.25;fill:#ffffff;fill-opacity:1;stroke-width:1.01438">
          <path
             id="path9378"
             style="font-weight:600;font-family:'Myriad Pro';-inkscape-font-specification:'Myriad Pro Semi-Bold';fill:#ffffff;fill-opacity:1;stroke-width:3.83388"
             d="m 309.36914,139.21484 c -206.24609,-92.809893 -103.12305,-46.404947 0,0 z m 0,2 c -3.857,1.53076 -6.62209,3.46527 -9.49136,6.71065 -2.86927,3.24537 -6.62269,8.16159 -7.59653,12.6956 V 303.06055 H 402.36523 V 285.625 h -92.99609 z"
             transform="scale(0.29205487,0.23969586)"
             sodipodi:nodetypes="cccscccccc" />
        </g>
        <g
           aria-label="A"
           transform="scale(0.9576085,1.0442681)"
           id="text10677"
           style="font-size:37.988px;line-height:1.25;fill-opacity:0.54646;stroke-width:0.949706" />
        <path
           id="circle13452"
           style="color:#000000;fill:#ffffff;fill-opacity:1;stroke-width:3.77953;stroke-linecap:round;stroke-linejoin:round;stroke-dashoffset:621.81;-inkscape-stroke:none;paint-order:fill markers stroke"
           d="m 340.60742,641.07227 c -4.08893,0 -8.15191,0.10665 -12.19336,0.29882 l -55.66992,165.93946 h 18.08789 l 1.17578,-3.625 c 0.19433,-0.13966 0.38325,-0.29618 0.5625,-0.48243 5.29642,-5.50321 14.43893,-8.09568 21.96094,-9.85546 7.52194,-1.75998 15.19614,-2.66106 22.875,-2.70313 7.67885,-0.042 15.36155,0.77573 22.90234,2.45313 7.54082,1.67739 16.3327,3.93446 22.04688,9.61328 0.16382,0.1628 0.33642,0.30009 0.51172,0.42578 l 1.39258,4.17383 h 19.41406 l -56.4043,-166.14844 c -2.21372,-0.0573 -4.43459,-0.0898 -6.66211,-0.0898 z m -3.72656,24.16992 37.75391,113.20508 c -24.27037,-7.73123 -50.39356,-7.58978 -74.57813,0.40429 z"
           transform="scale(0.26458333)" />
        <path
           id="path20414"
           style="color:#000000;fill:#ffffff;stroke-width:1;-inkscape-stroke:none"
           d="m 46.44159,223.17012 c -2.486691,-0.0138 -4.307556,1.14357 -5.353677,1.85932 -1.046122,0.71576 -1.332447,0.99546 -2.529046,1.00201 -1.204923,0.007 -1.29304,-0.19438 -2.187464,-0.87489 -0.894418,-0.6805 -2.641626,-1.92597 -5.039484,-1.92597 -2.39504,0 -4.110027,1.20305 -5.052404,1.8557 -0.799131,0.55343 -1.146278,0.85385 -2.202967,0.93276 -0.263346,1.67547 -0.46512,3.37118 -0.601514,5.08547 2.676772,-0.0108 4.60622,-1.10566 5.686992,-1.85415 1.086141,-0.7522 1.173652,-0.95343 2.169893,-0.95343 0.993423,0 1.01809,0.16595 1.970939,0.8909 0.95285,0.72496 2.790241,1.92153 5.283399,1.9079 2.501484,-0.0137 4.316198,-1.17192 5.360913,-1.88671 1.044715,-0.71479 1.303671,-0.97899 2.464964,-0.97255 1.179828,0.006 1.412388,0.26143 2.437577,0.9648 1.025192,0.70338 2.839361,1.83968 5.324224,1.83968 2.496172,0 4.322302,-1.12001 5.396569,-1.82418 1.074269,-0.70416 1.369202,-0.97083 2.474269,-0.95291 1.09075,0.0177 1.220436,0.25984 2.359546,1.04903 1.139108,0.78919 3.151921,1.90111 5.962944,1.87275 l -0.05064,-5.06428 c -1.728676,0.0174 -2.062496,-0.30419 -3.027206,-0.97255 -0.964708,-0.66837 -2.693654,-1.90921 -5.162476,-1.94924 -2.454503,-0.0398 -4.267327,1.08208 -5.33404,1.78129 -1.066712,0.6992 -1.417531,0.9958 -2.618962,0.9958 -1.212739,0 -1.446183,-0.25612 -2.458765,-0.95085 -1.012579,-0.69472 -2.805419,-1.842 -5.27358,-1.8557 z m 16.363342,8.76381 c -2.464187,-0.0399 -4.277638,1.14753 -5.275646,1.85725 -0.998009,0.70972 -1.212887,0.9648 -2.403989,0.9648 -1.212739,0 -1.448765,-0.25612 -2.461347,-0.95085 -1.012582,-0.69472 -2.804906,-1.842 -5.273064,-1.8557 -2.486342,-0.0138 -4.305421,1.18869 -5.283398,1.90428 -0.977977,0.71559 -1.131763,0.9505 -2.328024,0.95705 -1.193916,0.006 -1.54247,-0.28571 -2.576068,-0.98237 -1.0336,-0.69666 -2.782295,-1.86346 -5.191416,-1.86346 -2.385872,0 -4.102809,1.06302 -5.253942,1.7167 -1.131403,0.64247 -1.827432,1.04021 -3.475757,1.05368 -0.0148,0.57867 -0.02222,1.15926 -0.02222,1.74149 0,1.11423 0.02825,2.22192 0.08217,3.3228 2.683593,-0.034 4.650011,-0.99386 5.917468,-1.71359 1.290405,-0.73276 1.74688,-1.05627 2.752286,-1.05627 0.982163,0 1.273858,0.26645 2.35903,0.99788 1.085173,0.73141 2.931679,1.86112 5.435844,1.84743 2.501823,-0.0137 4.315592,-1.21826 5.292701,-1.93322 0.977109,-0.71496 1.102299,-0.93455 2.263944,-0.92811 1.179825,0.007 1.410319,0.26349 2.435508,0.96687 1.025192,0.70337 2.841429,1.83968 5.32629,1.83968 2.506501,0 4.332505,-1.18594 5.339726,-1.90221 1.007224,-0.71627 1.162362,-0.93967 2.257745,-0.92191 1.089483,0.0177 1.150488,0.22422 2.179711,0.99632 1.029224,0.77211 2.961834,1.9592 5.611543,1.9296 l -0.05684,-5.06429 c -1.450086,0.0162 -1.599388,-0.23095 -2.515608,-0.91829 -0.91622,-0.68733 -2.66655,-1.96551 -5.136639,-2.00556 z m -30.658594,8.76329 c -2.42883,0 -4.132432,1.20018 -5.177459,1.86758 -1.019045,0.65082 -1.578507,1.03431 -3.33003,1.03973 0.180152,1.69876 0.42413,3.37851 0.729155,5.03691 2.43622,-0.17395 4.214016,-1.09818 5.327322,-1.8092 1.246565,-0.79611 1.488564,-1.07021 2.451012,-1.07021 0.982163,0 1.072944,0.19453 2.058789,0.92965 0.985848,0.73513 2.826253,1.93141 5.32991,1.91772 2.481164,-0.0136 4.284734,-1.17484 5.261692,-1.86707 0.976958,-0.69224 1.112366,-0.9109 2.294951,-0.90434 1.17907,0.007 1.111853,0.14911 1.990576,0.85369 0.878724,0.70459 2.698801,1.95286 5.183664,1.95286 2.506501,0 4.357164,-1.07033 5.566069,-1.78491 1.208905,-0.71457 1.753568,-1.05692 2.845821,-1.03921 1.089012,0.0177 0.989089,0.16581 2.023647,0.96893 1.034561,0.80313 3.03753,1.9812 5.847707,1.95286 l -0.05116,-5.06429 c -1.729526,0.0174 -1.8483,-0.23596 -2.69131,-0.89039 -0.843007,-0.65443 -2.57616,-1.99134 -5.04672,-2.0314 -2.467319,-0.04 -4.30048,1.03059 -5.504056,1.74201 -1.203576,0.71142 -1.798897,1.08211 -2.989998,1.08211 -1.212741,0 -1.150977,-0.14623 -2.015897,-0.83974 -0.864923,-0.69352 -2.662039,-1.95311 -5.130954,-1.96681 -2.4654,-0.0137 -4.271682,1.143 -5.249809,1.83606 -0.978125,0.69306 -1.14418,0.92662 -2.361097,0.93328 -1.194424,0.006 -1.346531,-0.21913 -2.275829,-0.91209 -0.929299,-0.69296 -2.676875,-1.93373 -5.085996,-1.93373 z" />
        <g
           id="circle30199" />
        <path
           id="path32158"
           style="font-size:47.2857px;-inkscape-font-specification:'Myriad Pro Semi-Bold';fill:#ffffff;stroke-width:4.46797"
           d="m 288.41211,1020.7031 37.16601,125.3047 c 4.97434,0.2921 9.98183,0.459 15.0293,0.459 3.11852,0 6.21934,-0.077 9.31055,-0.1895 l 39.80859,-125.5742 h -22.41992 l -16.77148,57.4805 c -4.44969,15.3036 -8.72805,30.6087 -11.8086,45.5391 h -0.34179 c -2.90941,-15.3036 -6.84524,-29.8612 -11.29493,-45.7247 l -15.74609,-57.2949 z"
           transform="scale(0.26458333)" />
      </g>
    </g>
  </g>
</svg>
