<?xml version="1.0" encoding="UTF-8" standalone="no"?>
<svg
   width="31.267179"
   height="5.1852212"
   viewBox="0 0 31.267179 5.1852212"
   fill="none"
   version="1.1"
   id="svg58130"
   sodipodi:docname="bruggregio 1.svg"
   inkscape:version="1.1.1 (c3084ef, 2021-09-22)"
   xmlns:inkscape="http://www.inkscape.org/namespaces/inkscape"
   xmlns:sodipodi="http://sodipodi.sourceforge.net/DTD/sodipodi-0.dtd"
   xmlns="http://www.w3.org/2000/svg"
   xmlns:svg="http://www.w3.org/2000/svg">
  <defs
     id="defs58134" />
  <sodipodi:namedview
     id="namedview58132"
     pagecolor="#505050"
     bordercolor="#ffffff"
     borderopacity="1"
     inkscape:pageshadow="0"
     inkscape:pageopacity="0"
     inkscape:pagecheckerboard="1"
     showgrid="false"
     inkscape:zoom="24.485441"
     inkscape:cx="7.5350901"
     inkscape:cy="2.5933779"
     inkscape:window-width="1296"
     inkscape:window-height="969"
     inkscape:window-x="0"
     inkscape:window-y="25"
     inkscape:window-maximized="0"
     inkscape:current-layer="svg58130"
     fit-margin-top="0"
     fit-margin-left="0"
     fit-margin-right="0"
     fit-margin-bottom="0" />
  <path
     d="m 21.97038,4.827781 v -0.72394 c -0.1268,-0.03818 -0.2291,-0.05193 -0.3253,-0.05193 -0.2917,0 -0.4261,0.18481 -0.4261,0.42917 0,0.20924 0.0993,0.37877 0.3238,0.37877 0.0916,0 0.1649,-0.03207 0.2321,-0.09622 v 0.09164 c 0,0.13593 -0.0626,0.17564 -0.2123,0.17564 -0.0763,0 -0.1588,-0.00459 -0.2291,-0.01375 l -0.0061,0.14509 c 0.0764,0.01527 0.168,0.02291 0.2429,0.02291 0.2688,0 0.4001,-0.10691 0.4001,-0.35738 z m -0.1955,-0.23062 c -0.0595,0.06872 -0.1191,0.10385 -0.1909,0.10385 -0.1222,0 -0.1588,-0.10691 -0.1588,-0.23978 0,-0.16037 0.0718,-0.25659 0.2046,-0.25659 0.0581,0 0.1085,0.01222 0.1451,0.03055 z"
     fill="#206FB3"
     id="path58050"
     style="fill:#206fb3;fill-opacity:1" />
  <path
     d="m 22.89498,4.412361 c 0,-0.22451 -0.1038,-0.36502 -0.3375,-0.36502 -0.249,0 -0.3864,0.16189 -0.3864,0.42153 0,0.27491 0.1252,0.40626 0.3894,0.40626 0.1146,0 0.2169,-0.0168 0.3085,-0.04429 l -0.0198,-0.14204 c -0.081,0.02138 -0.1665,0.0336 -0.2581,0.0336 -0.1619,0 -0.2184,-0.08095 -0.2184,-0.2184 h 0.5193 c 0.0015,-0.03055 0.003,-0.07179 0.003,-0.09164 z m -0.194,-0.03513 h -0.3283 c 0.003,-0.09469 0.0565,-0.19091 0.1741,-0.19091 0.1084,0 0.1588,0.07484 0.1542,0.19091 z"
     fill="#206FB3"
     id="path58052"
     style="fill:#206fb3;fill-opacity:1" />
  <path
     d="m 24.27318,4.853741 v -0.49484 c 0,-0.18633 -0.0656,-0.31156 -0.2642,-0.31156 -0.1115,0 -0.1802,0.03971 -0.2596,0.13134 -0.0382,-0.08858 -0.113,-0.13134 -0.2291,-0.13134 -0.1115,0 -0.1772,0.03971 -0.252,0.12218 l -0.0184,-0.1008 h -0.1496 v 0.78502 h 0.1955 v -0.53607 c 0.0626,-0.07179 0.0992,-0.10997 0.1787,-0.10997 0.0977,0 0.1145,0.07331 0.1145,0.19091 v 0.45513 h 0.1955 v -0.53607 c 0.0626,-0.07179 0.0993,-0.10997 0.1787,-0.10997 0.0977,0 0.1145,0.07331 0.1145,0.19244 v 0.4536 z"
     fill="#206FB3"
     id="path58054"
     style="fill:#206fb3;fill-opacity:1" />
  <path
     d="m 25.19328,4.412361 c 0,-0.22451 -0.1039,-0.36502 -0.3375,-0.36502 -0.249,0 -0.3864,0.16189 -0.3864,0.42153 0,0.27491 0.1252,0.40626 0.3894,0.40626 0.1146,0 0.2169,-0.0168 0.3085,-0.04429 l -0.0198,-0.14204 c -0.081,0.02138 -0.1665,0.0336 -0.2581,0.0336 -0.1619,0 -0.2184,-0.08095 -0.2184,-0.2184 h 0.5192 c 0.0016,-0.03055 0.0031,-0.07179 0.0031,-0.09164 z m -0.194,-0.03513 h -0.3283 c 0.003,-0.09469 0.0565,-0.19091 0.1741,-0.19091 0.1084,0 0.1588,0.07484 0.1542,0.19091 z"
     fill="#206FB3"
     id="path58056"
     style="fill:#206fb3;fill-opacity:1" />
  <path
     d="m 25.65358,3.835041 c 0,-0.07025 -0.0504,-0.1176 -0.1206,-0.1176 -0.0703,0 -0.1207,0.04735 -0.1207,0.1176 0,0.07026 0.0504,0.1176 0.1207,0.1176 0.0702,0 0.1206,-0.04734 0.1206,-0.1176 z m -0.0183,1.0187 v -0.78502 h -0.3192 v 0.14815 h 0.1237 v 0.63687 z"
     fill="#206FB3"
     id="path58058"
     style="fill:#206fb3;fill-opacity:1" />
  <path
     d="m 26.59348,4.853741 v -0.49484 c 0,-0.18633 -0.081,-0.31156 -0.2795,-0.31156 -0.1115,0 -0.1818,0.03665 -0.2658,0.12065 l -0.0183,-0.09927 h -0.1497 v 0.78502 h 0.1955 v -0.53607 c 0.0672,-0.07179 0.1131,-0.10997 0.194,-0.10997 0.0962,0 0.1283,0.07331 0.1283,0.19091 v 0.45513 z"
     fill="#206FB3"
     id="path58060"
     style="fill:#206fb3;fill-opacity:1" />
  <path
     d="m 27.34398,4.615491 c 0,-0.12524 -0.0672,-0.1848 -0.2123,-0.23062 -0.0962,-0.03208 -0.1344,-0.05346 -0.1344,-0.10386 0,-0.04123 0.0275,-0.08705 0.1115,-0.08705 0.0519,0 0.113,0.01069 0.1665,0.02902 l 0.0229,-0.14815 c -0.058,-0.0168 -0.1314,-0.02749 -0.197,-0.02749 -0.194,0 -0.3055,0.09927 -0.3055,0.24895 0,0.1344 0.0779,0.18938 0.2108,0.23062 0.0931,0.03054 0.1329,0.05498 0.1329,0.10691 0,0.05956 -0.0489,0.09011 -0.1238,0.09011 -0.0626,0 -0.1344,-0.01375 -0.197,-0.03513 l -0.0275,0.15578 c 0.0749,0.01986 0.1573,0.03055 0.2307,0.03055 0.2,0 0.3222,-0.10386 0.3222,-0.25964 z"
     fill="#206FB3"
     id="path58062"
     style="fill:#206fb3;fill-opacity:1" />
  <path
     d="m 28.16468,4.853741 v -0.53302 c 0,-0.17258 -0.0931,-0.27338 -0.3283,-0.27338 -0.1024,0 -0.2123,0.02138 -0.2917,0.0504 l 0.0336,0.14204 c 0.0687,-0.0275 0.1542,-0.04582 0.2306,-0.04582 0.1268,0 0.1634,0.04734 0.1634,0.14509 v 0.04124 h -0.0947 c -0.2474,0 -0.3925,0.07636 -0.3925,0.25505 0,0.15884 0.1084,0.23979 0.2688,0.23979 0.1008,0 0.1772,-0.03208 0.2474,-0.09622 l 0.0153,0.07483 z m -0.1924,-0.19854 c -0.0504,0.04582 -0.1039,0.07789 -0.1726,0.07789 -0.0794,0 -0.1191,-0.04277 -0.1191,-0.10844 0,-0.07789 0.0596,-0.1176 0.194,-0.1176 h 0.0977 z"
     fill="#206FB3"
     id="path58064"
     style="fill:#206fb3;fill-opacity:1" />
  <path
     d="m 29.58118,4.853741 v -0.49484 c 0,-0.18633 -0.0657,-0.31156 -0.2643,-0.31156 -0.1115,0 -0.1802,0.03971 -0.2596,0.13134 -0.0382,-0.08858 -0.113,-0.13134 -0.2291,-0.13134 -0.1115,0 -0.1772,0.03971 -0.252,0.12218 l -0.0183,-0.1008 h -0.1497 v 0.78502 h 0.1955 v -0.53607 c 0.0626,-0.07179 0.0993,-0.10997 0.1787,-0.10997 0.0977,0 0.1145,0.07331 0.1145,0.19091 v 0.45513 h 0.1955 v -0.53607 c 0.0626,-0.07179 0.0993,-0.10997 0.1787,-0.10997 0.0978,0 0.1146,0.07331 0.1146,0.19244 v 0.4536 z"
     fill="#206FB3"
     id="path58066"
     style="fill:#206fb3;fill-opacity:1" />
  <path
     d="m 14.42588,4.068761 h -0.1894 c -0.0412,0.19091 -0.0993,0.39404 -0.1665,0.5819 h -0.0015 c -0.0672,-0.1848 -0.1268,-0.38182 -0.1726,-0.5819 h -0.2047 c 0.0642,0.26422 0.1497,0.52691 0.2566,0.78503 h 0.2215 c 0.1054,-0.2627 0.1894,-0.52234 0.2566,-0.78503 z"
     fill="#206FB3"
     id="path58068"
     style="fill:#206fb3;fill-opacity:1" />
  <path
     d="m 14.84188,3.835041 c 0,-0.07025 -0.0504,-0.1176 -0.1207,-0.1176 -0.0702,0 -0.1206,0.04735 -0.1206,0.1176 0,0.07026 0.0504,0.1176 0.1206,0.1176 0.0703,0 0.1207,-0.04734 0.1207,-0.1176 z m -0.0183,1.0187 v -0.78502 h -0.3192 v 0.14815 h 0.1237 v 0.63687 z"
     fill="#206FB3"
     id="path58070"
     style="fill:#206fb3;fill-opacity:1" />
  <path
     d="m 15.74818,4.412361 c 0,-0.22451 -0.1039,-0.36502 -0.3375,-0.36502 -0.249,0 -0.3864,0.16189 -0.3864,0.42153 0,0.27491 0.1252,0.40626 0.3894,0.40626 0.1146,0 0.2169,-0.0168 0.3085,-0.04429 l -0.0198,-0.14204 c -0.081,0.02138 -0.1665,0.0336 -0.2581,0.0336 -0.1619,0 -0.2184,-0.08095 -0.2184,-0.2184 h 0.5192 c 0.0016,-0.03055 0.0031,-0.07179 0.0031,-0.09164 z m -0.194,-0.03513 h -0.3283 c 0.003,-0.09469 0.0565,-0.19091 0.1741,-0.19091 0.1084,0 0.1588,0.07484 0.1542,0.19091 z"
     fill="#206FB3"
     id="path58072"
     style="fill:#206fb3;fill-opacity:1" />
  <path
     d="m 16.26348,4.853751 v -0.14051 h -0.0535 c -0.0458,0 -0.0611,-0.02596 -0.0611,-0.07789 v -0.92706 h -0.1954 v 0.97746 c 0,0.14204 0.0794,0.1848 0.1878,0.1848 0.0504,0 0.0932,-0.00916 0.1222,-0.0168 z"
     fill="#206FB3"
     id="path58074"
     style="fill:#206fb3;fill-opacity:1" />
  <path
     d="m 16.85058,3.841181 v -0.13899 c -0.0351,-0.00763 -0.0733,-0.01221 -0.1222,-0.01221 -0.2031,0 -0.2611,0.12065 -0.2611,0.30698 v 0.07178 h -0.1161 v 0.14815 h 0.1161 v 0.63688 h 0.1955 v -0.63688 h 0.1618 v -0.14815 h -0.1618 v -0.07942 c 0,-0.08247 0.0137,-0.14814 0.1145,-0.14814 z"
     fill="#206FB3"
     id="path58076"
     style="fill:#206fb3;fill-opacity:1" />
  <path
     d="m 17.61938,4.853801 v -0.53302 c 0,-0.17259 -0.0932,-0.27339 -0.3284,-0.27339 -0.1023,0 -0.2123,0.02138 -0.2917,0.0504 l 0.0336,0.14204 c 0.0687,-0.02749 0.1543,-0.04582 0.2306,-0.04582 0.1268,0 0.1635,0.04735 0.1635,0.14509 v 0.04124 h -0.0947 c -0.2475,0 -0.3925,0.07636 -0.3925,0.25506 0,0.15884 0.1084,0.23978 0.2688,0.23978 0.1008,0 0.1771,-0.03207 0.2474,-0.09622 l 0.0152,0.07484 z m -0.1924,-0.19855 c -0.0504,0.04582 -0.1039,0.07789 -0.1726,0.07789 -0.0794,0 -0.1192,-0.04276 -0.1192,-0.10843 0,-0.0779 0.0596,-0.11761 0.194,-0.11761 h 0.0978 z m 0.142,-0.83237 c 0,-0.05804 -0.0397,-0.09927 -0.0993,-0.09927 -0.0611,0 -0.1008,0.04123 -0.1008,0.09927 0,0.05956 0.0397,0.1008 0.1008,0.1008 0.0596,0 0.0993,-0.04124 0.0993,-0.1008 z m -0.3146,0 c 0,-0.05804 -0.0413,-0.09927 -0.1008,-0.09927 -0.0611,0 -0.1008,0.04123 -0.1008,0.09927 0,0.05956 0.0397,0.1008 0.1008,0.1008 0.0595,0 0.1008,-0.04124 0.1008,-0.1008 z"
     fill="#206FB3"
     id="path58078"
     style="fill:#206fb3;fill-opacity:1" />
  <path
     d="m 18.17288,4.853751 v -0.14051 h -0.0535 c -0.0458,0 -0.0611,-0.02596 -0.0611,-0.07789 v -0.92706 h -0.1955 v 0.97746 c 0,0.14204 0.0795,0.1848 0.1879,0.1848 0.0504,0 0.0932,-0.00916 0.1222,-0.0168 z"
     fill="#206FB3"
     id="path58080"
     style="fill:#206fb3;fill-opacity:1" />
  <path
     d="m 18.74008,4.852221 v -0.13745 h -0.0626 c -0.0794,0 -0.11,-0.02138 -0.11,-0.12524 v -0.37266 h 0.1726 v -0.14814 h -0.1726 v -0.22757 h -0.1496 l -0.0459,0.22757 h -0.113 v 0.14814 h 0.113 v 0.43222 c 0,0.16648 0.0871,0.22146 0.2154,0.22146 0.0565,0 0.1176,-0.00611 0.1527,-0.01832 z"
     fill="#206FB3"
     id="path58082"
     style="fill:#206fb3;fill-opacity:1" />
  <path
     d="m 19.18978,3.835041 c 0,-0.07025 -0.0504,-0.1176 -0.1207,-0.1176 -0.0703,0 -0.1207,0.04735 -0.1207,0.1176 0,0.07026 0.0504,0.1176 0.1207,0.1176 0.0703,0 0.1207,-0.04734 0.1207,-0.1176 z m -0.0184,1.0187 v -0.78502 h -0.3192 v 0.14815 h 0.1237 v 0.63687 z"
     fill="#206FB3"
     id="path58084"
     style="fill:#206fb3;fill-opacity:1" />
  <path
     d="m 20.12358,4.827841 v -0.72394 c -0.1268,-0.03818 -0.2291,-0.05192 -0.3254,-0.05192 -0.2917,0 -0.4261,0.1848 -0.4261,0.42916 0,0.20924 0.0993,0.37877 0.3238,0.37877 0.0916,0 0.165,-0.03207 0.2322,-0.09622 v 0.09164 c 0,0.13593 -0.0627,0.17564 -0.2123,0.17564 -0.0764,0 -0.1589,-0.00459 -0.2291,-0.01375 l -0.0061,0.14509 c 0.0763,0.01527 0.168,0.02291 0.2428,0.02291 0.2688,0 0.4002,-0.10691 0.4002,-0.35738 z m -0.1955,-0.23062 c -0.0596,0.06873 -0.1192,0.10385 -0.191,0.10385 -0.1221,0 -0.1588,-0.10691 -0.1588,-0.23978 0,-0.16037 0.0718,-0.25659 0.2047,-0.25659 0.058,0 0.1084,0.01222 0.1451,0.03055 z"
     fill="#206FB3"
     id="path58086"
     style="fill:#206fb3;fill-opacity:1" />
  <path
     d="m 9.74968,4.615491 c 0,-0.12524 -0.0672,-0.1848 -0.2123,-0.23062 -0.0962,-0.03208 -0.1344,-0.05346 -0.1344,-0.10386 0,-0.04123 0.0275,-0.08705 0.1115,-0.08705 0.0519,0 0.113,0.01069 0.1665,0.02902 l 0.0229,-0.14815 c -0.058,-0.0168 -0.1314,-0.02749 -0.197,-0.02749 -0.194,0 -0.3055,0.09927 -0.3055,0.24895 0,0.1344 0.0779,0.18938 0.2108,0.23062 0.0931,0.03054 0.1329,0.05498 0.1329,0.10691 0,0.05956 -0.0489,0.09011 -0.1238,0.09011 -0.0626,0 -0.1344,-0.01375 -0.197,-0.03513 l -0.0275,0.15578 c 0.0749,0.01986 0.1573,0.03055 0.2307,0.03055 0.2,0 0.3222,-0.10386 0.3222,-0.25964 z"
     fill="#206FB3"
     id="path58088"
     style="fill:#206fb3;fill-opacity:1" />
  <path
     d="m 10.34288,4.852221 v -0.13745 h -0.0626 c -0.0794,0 -0.11,-0.02138 -0.11,-0.12524 v -0.37266 h 0.1726 v -0.14814 h -0.1726 v -0.22757 h -0.1497 l -0.0458,0.22757 h -0.113 v 0.14814 h 0.113 v 0.43222 c 0,0.16648 0.0871,0.22146 0.2154,0.22146 0.0565,0 0.1176,-0.00611 0.1527,-0.01832 z"
     fill="#206FB3"
     id="path58090"
     style="fill:#206fb3;fill-opacity:1" />
  <path
     d="m 11.16828,4.853741 v -0.53302 c 0,-0.17258 -0.0932,-0.27338 -0.3284,-0.27338 -0.1023,0 -0.2123,0.02138 -0.2917,0.0504 l 0.0336,0.14204 c 0.0687,-0.0275 0.1542,-0.04582 0.2306,-0.04582 0.1268,0 0.1634,0.04734 0.1634,0.14509 v 0.04124 h -0.0947 c -0.2474,0 -0.3925,0.07636 -0.3925,0.25505 0,0.15884 0.1084,0.23979 0.2688,0.23979 0.1008,0 0.1772,-0.03208 0.2474,-0.09622 l 0.0153,0.07483 z m -0.1925,-0.19854 c -0.0504,0.04582 -0.1038,0.07789 -0.1726,0.07789 -0.0794,0 -0.1191,-0.04277 -0.1191,-0.10844 0,-0.07789 0.0596,-0.1176 0.194,-0.1176 h 0.0977 z"
     fill="#206FB3"
     id="path58092"
     style="fill:#206fb3;fill-opacity:1" />
  <path
     d="m 11.88058,4.058031 c -0.029,-0.00764 -0.0535,-0.01069 -0.0932,-0.01069 -0.0809,0 -0.1283,0.04734 -0.2046,0.15273 l -0.0184,-0.13135 h -0.1527 v 0.78502 h 0.1955 v -0.48567 c 0.0733,-0.09317 0.1191,-0.13593 0.1695,-0.13593 0.0229,0 0.0642,0.00611 0.081,0.01069 z"
     fill="#206FB3"
     id="path58094"
     style="fill:#206fb3;fill-opacity:1" />
  <path
     d="m 12.75328,4.853751 -0.3207,-0.504 0.2901,-0.28102 h -0.2459 l -0.2459,0.2688 v -0.62924 h -0.1954 v 1.14546 h 0.1954 v -0.31462 l 0.0581,-0.05804 0.223,0.37266 z"
     fill="#206FB3"
     id="path58096"
     style="fill:#206fb3;fill-opacity:1" />
  <path
     d="m 20.80148,4.334751 c 0,-0.07026 -0.0535,-0.12524 -0.1237,-0.12524 -0.0718,0 -0.1253,0.05498 -0.1253,0.12524 0,0.07025 0.0535,0.12523 0.1253,0.12523 0.0702,0 0.1237,-0.05498 0.1237,-0.12523 z"
     fill="#206FB3"
     id="path58098"
     style="fill:#206fb3;fill-opacity:1" />
  <path
     d="m 13.30488,4.334751 c 0,-0.07026 -0.0535,-0.12524 -0.1237,-0.12524 -0.0718,0 -0.1253,0.05498 -0.1253,0.12524 0,0.07025 0.0535,0.12523 0.1253,0.12523 0.0702,0 0.1237,-0.05498 0.1237,-0.12523 z"
     fill="#206FB3"
     id="path58100"
     style="fill:#206fb3;fill-opacity:1" />
  <path
     d="m 3.37473,2.377341 c 0.01278,-0.57802 0.25137,-1.12807 0.66469,-1.53235 0.41331,-0.40428 0.96849,-0.63066 1.54666,-0.63066 0.57817,0 1.13336,0.22638 1.54668,0.63067 0.41331,0.40429 0.6519,0.95434 0.66467,1.53237"
     stroke="#206fb3"
     stroke-width="0.428662"
     stroke-miterlimit="10"
     stroke-linejoin="round"
     id="path58102"
     style="fill:none;fill-opacity:1" />
  <path
     d="m 3.3794,2.993571 c 0.1466,1.06057 1.07647,1.87826 2.19713,1.87826 1.12066,0 2.05053,-0.81769 2.19713,-1.87826 H 7.53659 c -0.14427,0.93026 -0.96459,1.64312 -1.96006,1.64312 -0.99547,0 -1.81579,-0.71286 -1.96005,-1.64312 z"
     fill="#206FB3"
     id="path58104"
     style="fill:#206fb3;fill-opacity:1" />
  <path
     d="M 3.61649,2.993571 H 0 v 0.22522 h 3.61649 z"
     fill="#206FB3"
     id="path58106"
     style="fill:#206fb3;fill-opacity:1" />
  <path
     d="M 31.26718,2.993571 H 7.5366 v 0.22522 h 23.73058 z"
     fill="#206FB3"
     id="path58108"
     style="fill:#206fb3;fill-opacity:1" />
  <path
     d="m 10.31328,1.934221 c 0,-0.20377 -0.1365,-0.3426 -0.309,-0.37171 0.1277,-0.05374 0.215,-0.17018 0.215,-0.32692 0,-0.26423 -0.1903,-0.39187 -0.5262,-0.39187 h -0.4725 v 1.56298 h 0.4949 c 0.3224,0 0.5978,-0.13659 0.5978,-0.47248 z m -0.3941,-0.65833 c 0,0.1254 -0.0627,0.21721 -0.2172,0.21721 h -0.1881 v -0.42097 h 0.1613 c 0.1679,0 0.244,0.07389 0.244,0.20376 z m 0.0807,0.67625 c 0,0.14555 -0.1098,0.22392 -0.2553,0.22392 h -0.2307 v -0.46128 h 0.1881 c 0.2038,0 0.2979,0.08733 0.2979,0.23736 z"
     fill="#206FB3"
     id="path58110"
     style="fill:#206fb3;fill-opacity:1" />
  <path
     d="m 11.71058,2.406701 -0.3896,-0.71879 c 0.1769,-0.05822 0.3023,-0.19481 0.3023,-0.42097 0,-0.27991 -0.2083,-0.42322 -0.5419,-0.42322 h -0.5038 v 1.56298 h 0.3 v -0.64713 h 0.1478 l 0.3359,0.64713 z m -0.403,-1.11065 c 0,0.13659 -0.0919,0.23736 -0.2822,0.23736 h -0.1478 v -0.45681 h 0.1724 c 0.1904,0 0.2576,0.10301 0.2576,0.21945 z"
     fill="#206FB3"
     id="path58112"
     style="fill:#206fb3;fill-opacity:1" />
  <path
     d="m 13.20638,1.820021 v -0.9763 h -0.2933 v 0.98526 c 0,0.23064 -0.1254,0.36275 -0.3314,0.36275 -0.2016,0 -0.3337,-0.12763 -0.3337,-0.37619 v -0.97182 h -0.3 v 0.99646 c 0,0.39634 0.2328,0.59563 0.6247,0.59563 0.4075,0 0.6337,-0.2284 0.6337,-0.61579 z"
     fill="#206FB3"
     id="path58114"
     style="fill:#206fb3;fill-opacity:1" />
  <path
     d="m 14.79178,0.946681 c -0.1501,-0.08285 -0.3202,-0.12987 -0.5106,-0.12987 -0.4948,0 -0.8038,0.31573 -0.8038,0.82627 0,0.49263 0.2843,0.79268 0.7859,0.79268 0.1836,0 0.3717,-0.03358 0.5128,-0.08509 v -0.78373 h -0.3001 v 0.58892 c -0.0627,0.01791 -0.1298,0.02687 -0.197,0.02687 -0.3023,0 -0.4904,-0.19481 -0.4904,-0.55756 0,-0.33365 0.1836,-0.55981 0.4949,-0.55981 0.141,0 0.2843,0.03807 0.4165,0.10972 z"
     fill="#206FB3"
     id="path58116"
     style="fill:#206fb3;fill-opacity:1" />
  <path
     d="m 16.35028,0.946681 c -0.1501,-0.08285 -0.3202,-0.12987 -0.5106,-0.12987 -0.4948,0 -0.8038,0.31573 -0.8038,0.82627 0,0.49263 0.2843,0.79268 0.7859,0.79268 0.1836,0 0.3717,-0.03358 0.5128,-0.08509 v -0.78373 h -0.3001 v 0.58892 c -0.0627,0.01791 -0.1298,0.02687 -0.197,0.02687 -0.3023,0 -0.4904,-0.19481 -0.4904,-0.55756 0,-0.33365 0.1836,-0.55981 0.4949,-0.55981 0.141,0 0.2844,0.03807 0.4165,0.10972 z"
     fill="#206FB3"
     id="path58118"
     style="fill:#206fb3;fill-opacity:1" />
  <path
     d="m 18.41258,2.406701 -0.3896,-0.71879 c 0.1769,-0.05822 0.3022,-0.19481 0.3022,-0.42097 0,-0.27991 -0.2082,-0.42322 -0.5418,-0.42322 h -0.5039 v 1.56298 h 0.3001 v -0.64713 h 0.1478 l 0.3359,0.64713 z m -0.4031,-1.11065 c 0,0.13659 -0.0918,0.23736 -0.2821,0.23736 h -0.1478 v -0.45681 h 0.1724 c 0.1903,0 0.2575,0.10301 0.2575,0.21945 z"
     fill="#206FB3"
     id="path58120"
     style="fill:#206fb3;fill-opacity:1" />
  <path
     d="m 19.57018,2.406701 v -0.23736 h -0.6202 v -0.45456 h 0.5284 v -0.23288 h -0.5284 v -0.40082 h 0.6113 v -0.23736 h -0.9091 v 1.56298 z"
     fill="#206FB3"
     id="path58122"
     style="fill:#206fb3;fill-opacity:1" />
  <path
     d="m 21.11088,0.946681 c -0.1501,-0.08285 -0.3202,-0.12987 -0.5106,-0.12987 -0.4948,0 -0.8039,0.31573 -0.8039,0.82627 0,0.49263 0.2844,0.79268 0.786,0.79268 0.1836,0 0.3717,-0.03358 0.5128,-0.08509 v -0.78373 h -0.3001 v 0.58892 c -0.0627,0.01791 -0.1298,0.02687 -0.197,0.02687 -0.3023,0 -0.4904,-0.19481 -0.4904,-0.55756 0,-0.33365 0.1836,-0.55981 0.4949,-0.55981 0.141,0 0.2843,0.03807 0.4165,0.10972 z"
     fill="#206FB3"
     id="path58124"
     style="fill:#206fb3;fill-opacity:1" />
  <path
     d="m 21.73558,2.406701 v -1.56298 h -0.3001 v 1.56298 z"
     fill="#206FB3"
     id="path58126"
     style="fill:#206fb3;fill-opacity:1" />
  <path
     d="m 23.53368,1.609511 c 0,-0.51278 -0.2687,-0.79716 -0.7524,-0.79716 -0.4949,0 -0.7658,0.32469 -0.7658,0.82179 0,0.53294 0.2553,0.80388 0.7501,0.80388 0.5061,0 0.7681,-0.31797 0.7681,-0.82851 z m -0.318,0.02687 c 0,0.30006 -0.1052,0.55309 -0.4299,0.55309 -0.3404,0 -0.4523,-0.2284 -0.4523,-0.5822 0,-0.29334 0.1074,-0.54637 0.4299,-0.54637 0.3404,0 0.4523,0.23736 0.4523,0.57548 z"
     fill="#206FB3"
     id="path58128"
     style="fill:#206fb3;fill-opacity:1" />
</svg>
