<?xml version="1.0" encoding="UTF-8" standalone="no"?>
<!-- Generator: OCAD -->

<svg
   id="mainMap"
   width="4.3880cm"
   height="1.2390cm"
   viewBox="0 0 43.8800 12.3900"
   style="fill:none;stroke-width:0;fill-rule:evenodd"
   version="1.1"
   sodipodi:docname="cordoba.svg"
   inkscape:version="1.1.1 (c3084ef, 2021-09-22)"
   xmlns:inkscape="http://www.inkscape.org/namespaces/inkscape"
   xmlns:sodipodi="http://sodipodi.sourceforge.net/DTD/sodipodi-0.dtd"
   xmlns="http://www.w3.org/2000/svg"
   xmlns:svg="http://www.w3.org/2000/svg">
  <defs
     id="defs241397" />
  <sodipodi:namedview
     id="namedview241395"
     pagecolor="#505050"
     bordercolor="#ffffff"
     borderopacity="1"
     inkscape:pageshadow="0"
     inkscape:pageopacity="0"
     inkscape:pagecheckerboard="1"
     inkscape:document-units="cm"
     showgrid="false"
     inkscape:zoom="5.4100351"
     inkscape:cx="92.328422"
     inkscape:cy="5.4528297"
     inkscape:window-width="1894"
     inkscape:window-height="969"
     inkscape:window-x="0"
     inkscape:window-y="25"
     inkscape:window-maximized="0"
     inkscape:current-layer="mainMap" />
  <desc
     id="desc241186">Map</desc>
  <g
     id="scaleTransform"
     transform="scale(1.00000000)">
    <g
       id="mainMapContent">
      <!-- map fill color -->
      <rect
         id="mapBg"
         x="-100%"
         y="-100%"
         width="200%"
         height="200%"
         fill="none" />
      <g
         id="g241390">
        <clipPath
           id="Clip"
           fill="none"
           stroke="none">
          <rect
             x="0"
             y="0"
             width="43.8800"
             height="12.3900"
             fill="none"
             id="rect241189" />
        </clipPath>
        <g
           clip-path="url(#Clip)"
           id="g241388">
          <g
             opacity="1.00"
             id="g241192" />
          <g
             opacity="1.00"
             id="g241194" />
          <g
             opacity="1.00"
             id="g241196" />
          <g
             opacity="1.00"
             id="g241198" />
          <g
             opacity="1.00"
             id="g241200" />
          <g
             opacity="1.00"
             id="g241202" />
          <g
             opacity="1.00"
             id="g241204" />
          <g
             opacity="1.00"
             id="g241206" />
          <g
             opacity="1.00"
             id="g241208" />
          <g
             opacity="1.00"
             id="g241210" />
          <g
             opacity="1.00"
             id="g241212" />
          <g
             opacity="1.00"
             id="g241214" />
          <g
             opacity="1.00"
             id="g241216" />
          <g
             opacity="1.00"
             id="g241218" />
          <g
             opacity="1.00"
             id="g241220" />
          <g
             opacity="1.00"
             id="g241222" />
          <g
             opacity="1.00"
             id="g241224" />
          <g
             opacity="1.00"
             id="g241226" />
          <g
             opacity="1.00"
             id="g241228" />
          <g
             opacity="1.00"
             id="g241230" />
          <g
             opacity="1.00"
             id="g241232" />
          <g
             opacity="1.00"
             id="g241234" />
          <g
             opacity="1.00"
             id="g241236" />
          <g
             opacity="1.00"
             id="g241238" />
          <g
             opacity="1.00"
             id="g241240" />
          <g
             opacity="1.00"
             id="g241242" />
          <g
             opacity="1.00"
             id="g241244" />
          <g
             opacity="1.00"
             id="g241246" />
          <g
             opacity="1.00"
             id="g241248" />
          <g
             opacity="1.00"
             id="g241250" />
          <g
             opacity="1.00"
             id="g241252" />
          <g
             opacity="1.00"
             id="g241254" />
          <g
             opacity="1.00"
             id="g241256" />
          <g
             opacity="1.00"
             id="g241258" />
          <g
             opacity="1.00"
             id="g241260" />
          <g
             opacity="1.00"
             id="g241262" />
          <g
             opacity="1.00"
             id="g241264" />
          <g
             opacity="1.00"
             id="g241266" />
          <g
             opacity="1.00"
             id="g241275">
            <g
               id="401.001 Offenes Gebiet 3">
              <g
                 stroke="rgb(250,240,25)"
                 id="g241272">
                <g
                   fill="rgb(250,240,25)"
                   id="g241270">
                  <path
                     d="M2.22,1.92 12.29,1.92  12.29,12.00  2.22,12.00  2.22,1.92  "
                     id="path241268" />
                </g>
              </g>
            </g>
          </g>
          <g
             opacity="1.00"
             id="g241384">
            <g
               id="301.003 Unpassierbares Gew\344sser _Fl\344che_ 25">
              <g
                 stroke="rgb(0,13,255)"
                 id="g241381">
                <g
                   fill="rgb(0,13,255)"
                   id="g241279">
                  <path
                     d="M7.40,1.58 C7.60,1.68 7.82,1.78 7.98,1.92 L8.13,2.05  8.23,2.22  8.28,2.51  C8.28,2.69 8.23,2.82 8.13,2.93 C7.90,3.18 7.36,3.30 6.43,3.53 C6.38,3.53 6.32,3.55 6.24,3.58 C6.36,3.59 6.44,3.62 6.53,3.64 C7.23,3.82 7.82,3.98 8.29,4.13 C8.68,4.26 9.00,4.39 9.23,4.52 C9.63,4.74 9.82,5.00 9.82,5.35 C9.82,5.55 9.77,5.71 9.65,5.83 C9.27,6.27 8.19,6.35 6.22,6.52 C5.56,6.61 4.58,6.66 3.83,6.81 C4.46,6.90 5.27,7.00 5.88,7.07 C9.18,7.49 10.72,7.77 11.05,8.70 C11.12,8.91 11.15,9.36 10.71,9.83 C10.57,9.95 10.44,10.02 10.25,10.02 C9.03,10.02 7.93,10.02 6.92,10.08 C6.97,10.13 7.06,10.20 7.10,10.30 C7.34,10.54 7.29,10.93 7.04,11.18 C6.92,11.29 6.76,11.33 6.64,11.33 C6.44,11.33 6.24,11.24 6.11,11.12 C5.51,10.38 2.69,10.60 0.98,10.96 C0.92,10.98 0.86,10.98 0.80,10.98 C0.57,10.97 0.37,10.83 0.27,10.61 C0.14,10.35 0.22,10.02 0.44,9.87 C0.81,9.50 1.78,9.09 5.92,8.85 C6.92,8.81 7.87,8.80 8.63,8.75 C7.70,8.58 6.53,8.42 5.69,8.31 C2.90,7.98 1.47,7.82 1.47,6.81 C1.48,5.65 3.24,5.52 6.11,5.26 C6.50,5.23 6.93,5.21 7.30,5.16 C6.93,5.06 6.50,4.93 6.20,4.89 C4.35,4.40 3.79,4.23 3.79,3.56 C3.79,2.85 4.56,2.66 6.00,2.32 C5.53,2.04 5.08,1.63 4.96,0.97 L4.95,0.76  5.03,0.52  5.25,0.30  5.47,0.23  5.67,0.22  5.84,0.27  5.97,0.35  6.15,0.58  6.20,0.78  6.37,1.03  6.65,1.24  "
                     id="path241277" />
                </g>
                <g
                   fill="rgb(0,13,255)"
                   id="g241283">
                  <path
                     d="M18.78,4.94 17.56,5.06  C17.54,4.35 17.22,4.11 16.66,4.11 L16.34,4.15  C15.84,4.29 15.53,4.79 15.53,5.75 C15.53,6.90 15.92,7.34 16.63,7.34 C17.31,7.34 17.47,6.99 17.56,6.52 L18.78,6.73  C18.64,8.02 17.54,8.42 16.59,8.42 C14.81,8.42 14.13,7.40 14.13,5.77 C14.13,4.21 14.97,3.03 16.69,3.03 C17.89,3.03 18.76,3.59 18.78,4.94 "
                     id="path241281" />
                </g>
                <g
                   fill="rgb(0,13,255)"
                   id="g241287">
                  <path
                     d="M21.16,4.50 C22.57,4.50 23.08,5.26 23.08,6.39 C23.08,7.65 22.49,8.42 21.09,8.42 C19.67,8.42 19.22,7.62 19.22,6.45 C19.22,5.26 19.79,4.50 21.16,4.50 L21.16,4.50 M20.58,6.44 C20.58,7.26 20.73,7.53 21.14,7.53 C21.51,7.53 21.67,7.30 21.67,6.44 L21.67,6.25  21.66,6.12  21.64,5.93  21.61,5.75  21.52,5.56  21.39,5.46  21.16,5.42  C20.76,5.42 20.58,5.64 20.58,6.44 "
                     id="path241285" />
                </g>
                <g
                   fill="rgb(0,13,255)"
                   id="g241291">
                  <path
                     d="M26.25,5.75 26.25,4.52  C26.18,4.50 26.10,4.50 25.99,4.50 L25.72,4.53  25.43,4.64  25.19,4.82  25.01,4.99  24.86,5.20  24.75,4.57  23.64,4.57  23.64,8.32  24.97,8.32  24.97,6.06  24.97,6.06  C25.31,5.80 25.75,5.75 26.25,5.75 "
                     id="path241289" />
                </g>
                <g
                   fill="rgb(0,13,255)"
                   id="g241295">
                  <path
                     d="M32.89,4.50 C34.30,4.50 34.81,5.26 34.81,6.39 C34.81,7.65 34.22,8.42 32.82,8.42 C31.40,8.42 30.95,7.62 30.95,6.45 C30.95,5.26 31.52,4.50 32.89,4.50 L32.89,4.50 M32.31,6.44 C32.31,7.26 32.46,7.53 32.87,7.53 C33.24,7.53 33.40,7.30 33.40,6.44 L33.40,6.25  33.39,6.12  33.37,5.93  33.34,5.75  33.25,5.56  33.12,5.46  32.89,5.42  C32.49,5.42 32.31,5.64 32.31,6.44 "
                     id="path241293" />
                </g>
                <g
                   fill="rgb(0,13,255)"
                   id="g241299">
                  <path
                     d="M28.98,4.72 28.98,4.79  C28.80,4.62 28.55,4.50 28.15,4.50 C27.40,4.50 26.55,5.03 26.55,6.53 C26.55,7.88 27.17,8.42 28.05,8.42 C28.53,8.42 28.87,8.25 29.08,7.98 L29.11,7.98  29.17,8.32  29.17,8.32  29.17,8.32  30.30,8.32  30.30,2.90  28.98,2.90  L28.98,4.72 M28.98,7.24 28.55,7.40  C28.12,7.40 27.97,7.03 27.97,6.49 L28.03,5.99  28.13,5.75  28.28,5.60  28.44,5.53  28.57,5.51  28.57,5.51  C28.73,5.51 28.85,5.56 28.98,5.65 "
                     id="path241297" />
                </g>
                <g
                   fill="rgb(0,13,255)"
                   id="g241303">
                  <path
                     d="M36.56,7.98 36.57,7.98  C36.79,8.21 37.10,8.42 37.58,8.42 C38.46,8.42 39.14,7.84 39.14,6.37 C39.14,4.99 38.45,4.50 37.72,4.50 C37.31,4.50 36.99,4.62 36.70,4.90 L36.70,2.90  35.34,2.90  35.34,2.90  35.34,2.90  35.34,8.31  36.51,8.31  L36.56,7.98 M36.70,7.20 C36.81,7.30 36.99,7.39 37.18,7.39 L37.18,7.38  C37.51,7.39 37.72,7.11 37.72,6.40 C37.72,5.95 37.62,5.53 37.18,5.53 C36.99,5.53 36.81,5.62 36.70,5.75 "
                     id="path241301" />
                </g>
                <g
                   fill="rgb(0,13,255)"
                   id="g241307">
                  <path
                     d="M43.40,7.62 43.39,7.56  C43.28,7.61 43.21,7.62 43.15,7.62 L43.15,7.62  43.15,7.62  C42.96,7.62 42.92,7.51 42.92,7.32 L42.92,5.85  C42.92,4.90 42.39,4.50 41.31,4.50 C40.21,4.50 39.76,4.95 39.64,5.65 L40.73,5.86  40.84,5.59  40.97,5.45  41.08,5.41  41.21,5.40  C41.59,5.40 41.61,5.64 41.61,6.03 L41.61,6.12  41.22,6.16  C40.11,6.27 39.49,6.60 39.49,7.40 C39.50,7.82 39.70,8.42 40.61,8.42 C41.15,8.42 41.49,8.21 41.70,7.90 C41.81,8.28 42.14,8.42 42.60,8.42 C42.87,8.42 43.25,8.32 43.49,8.27 L43.40,7.62 M41.62,6.83 L41.57,6.83  C41.05,6.83 40.87,6.96 40.87,7.20 C40.87,7.38 40.93,7.53 41.18,7.53 C41.38,7.53 41.55,7.41 41.62,7.36 L41.62,6.83  "
                     id="path241305" />
                </g>
                <g
                   fill="rgb(0,13,255)"
                   id="g241311">
                  <path
                     d="M42.71,10.23 C42.75,10.20 42.86,10.16 42.91,10.16 C43.02,10.16 43.07,10.20 43.07,10.32 L43.07,11.02  43.07,11.02  43.07,11.02  43.39,11.02  43.39,10.30  C43.39,10.02 43.27,9.91 43.05,9.91 C42.90,9.91 42.79,9.99 42.71,10.02 L42.71,9.47  42.39,9.47  42.39,11.02  42.71,11.02  "
                     id="path241309" />
                </g>
                <g
                   fill="rgb(0,13,255)"
                   id="g241315">
                  <path
                     d="M41.95,10.34 41.90,10.35  C41.87,10.21 41.86,10.13 41.71,10.13 C41.59,10.13 41.51,10.20 41.51,10.44 C41.51,10.71 41.58,10.81 41.71,10.81 C41.86,10.81 41.90,10.71 41.91,10.59 L42.17,10.63  C42.15,10.90 41.95,11.04 41.70,11.04 C41.33,11.04 41.18,10.81 41.18,10.49 C41.18,10.11 41.38,9.91 41.73,9.91 C41.98,9.91 42.17,10.04 42.17,10.31 "
                     id="path241313" />
                </g>
                <g
                   fill="rgb(0,13,255)"
                   id="g241319">
                  <path
                     d="M35.59,9.50 36.69,9.50  36.69,9.75  36.00,10.71  36.72,10.71  36.72,11.02  35.58,11.02  35.58,10.77  36.28,9.77  35.59,9.77  "
                     id="path241317" />
                </g>
                <g
                   fill="rgb(0,13,255)"
                   id="g241323">
                  <path
                     d="M36.90,9.94 36.90,10.65  C36.90,10.90 37.01,11.04 37.23,11.04 C37.39,11.04 37.50,10.96 37.58,10.89 L37.58,11.02  37.87,11.02  37.87,9.94  37.73,9.94  37.55,9.94  37.55,10.69  C37.51,10.71 37.43,10.79 37.35,10.79 C37.24,10.79 37.22,10.71 37.22,10.60 L37.22,9.94  "
                     id="path241321" />
                </g>
                <g
                   fill="rgb(0,13,255)"
                   id="g241327">
                  <path
                     d="M38.13,9.94 38.13,11.02  38.44,11.02  38.44,10.31  38.44,10.31  38.44,10.31  C38.55,10.23 38.67,10.20 38.81,10.20 L38.81,9.91  C38.80,9.91 38.78,9.91 38.78,9.91 C38.61,9.91 38.49,10.01 38.43,10.09 L38.42,9.94  "
                     id="path241325" />
                </g>
                <g
                   fill="rgb(0,13,255)"
                   id="g241331">
                  <path
                     d="M38.96,9.94 39.80,9.94  39.80,10.13  39.75,10.20  39.32,10.74  39.83,10.74  39.83,11.02  38.96,11.02  38.96,10.80  39.47,10.16  38.96,10.16  "
                     id="path241329" />
                </g>
                <g
                   fill="rgb(0,13,255)"
                   id="g241335">
                  <path
                     d="M40.03,10.23 C40.08,10.02 40.21,9.91 40.48,9.91 C40.76,9.91 40.93,10.02 40.92,10.30 L40.92,10.72  C40.92,10.81 40.93,10.82 40.98,10.82 C41.00,10.82 41.01,10.82 41.05,10.81 L41.05,10.98  C41.00,11.04 40.93,11.04 40.85,11.04 C40.73,11.04 40.64,11.00 40.61,10.89 C40.53,10.97 40.45,11.04 40.31,11.04 C40.04,11.04 40.00,10.84 40.00,10.73 C40.00,10.40 40.34,10.38 40.59,10.38 L40.59,10.32  C40.59,10.20 40.59,10.12 40.42,10.12 C40.35,10.12 40.31,10.19 40.31,10.30 L40.03,10.23 M40.59,10.54 L40.53,10.54  C40.41,10.54 40.31,10.58 40.31,10.69 C40.31,10.74 40.34,10.81 40.42,10.81 C40.50,10.81 40.56,10.79 40.59,10.73 L40.59,10.54 M15.02,9.49 C14.51,9.49 14.29,9.83 14.29,10.28 L14.29,10.28  14.29,10.28  C14.29,10.71 14.46,11.04 15.00,11.04 C15.44,11.04 15.70,10.71 15.70,10.23 C15.70,9.83 15.48,9.49 15.02,9.49 L15.02,9.49 M15.01,9.77 C14.75,9.77 14.62,9.91 14.62,10.25 C14.62,10.61 14.72,10.74 15.00,10.74 C15.20,10.74 15.36,10.61 15.36,10.23 C15.36,9.91 15.23,9.77 15.01,9.77 L15.01,9.77 M15.92,9.50 L15.92,11.02  16.85,11.02  16.85,10.71  16.85,10.71  16.85,10.71  16.23,10.71  16.23,9.50  L15.92,9.50 M18.78,10.02 18.51,10.02  C18.49,9.85 18.41,9.75 18.21,9.75 L18.15,9.75  18.07,9.75  18.01,9.77  17.97,9.80  17.92,9.84  17.84,10.02  17.81,10.25  C17.81,10.61 17.95,10.77 18.18,10.77 C18.41,10.77 18.49,10.63 18.51,10.50 L18.78,10.54  C18.74,10.90 18.44,11.04 18.18,11.04 C17.68,11.04 17.51,10.72 17.51,10.28 C17.51,9.80 17.73,9.49 18.22,9.49 C18.55,9.49 18.78,9.64 18.78,10.02 L18.78,10.02 M19.02,9.45 L19.02,9.45  19.02,11.02  19.36,11.02  19.36,9.45  "
                     id="path241333" />
                </g>
                <g
                   fill="rgb(0,13,255)"
                   id="g241339">
                  <path
                     d="M23.91,10.23 C23.96,10.02 24.09,9.91 24.36,9.91 C24.64,9.91 24.81,10.02 24.80,10.30 L24.80,10.72  C24.80,10.81 24.81,10.82 24.86,10.82 C24.88,10.82 24.89,10.82 24.93,10.81 L24.93,10.98  C24.88,11.04 24.81,11.04 24.73,11.04 C24.61,11.04 24.52,11.00 24.49,10.89 C24.41,10.97 24.33,11.04 24.19,11.04 C23.92,11.04 23.88,10.84 23.88,10.73 C23.88,10.40 24.22,10.38 24.47,10.38 L24.47,10.32  C24.47,10.20 24.47,10.12 24.30,10.12 C24.23,10.12 24.19,10.19 24.19,10.30 L23.91,10.23 M24.47,10.54 L24.41,10.54  C24.29,10.54 24.19,10.58 24.19,10.69 C24.19,10.74 24.22,10.81 24.30,10.81 C24.38,10.81 24.44,10.79 24.47,10.73 "
                     id="path241337" />
                </g>
                <g
                   fill="rgb(0,13,255)"
                   id="g241343">
                  <path
                     d="M31.50,9.94 31.50,10.65  C31.50,10.90 31.61,11.04 31.83,11.04 C31.99,11.04 32.10,10.96 32.18,10.89 L32.18,11.02  32.47,11.02  32.47,9.94  32.33,9.94  32.15,9.94  32.15,10.69  C32.11,10.71 32.03,10.79 31.95,10.79 C31.84,10.79 31.82,10.71 31.82,10.60 L31.82,9.94  "
                     id="path241341" />
                </g>
                <g
                   fill="rgb(0,13,255)"
                   id="g241347">
                  <path
                     d="M19.58,9.94 19.58,10.65  C19.58,10.90 19.69,11.04 19.91,11.04 C20.07,11.04 20.18,10.96 20.26,10.89 L20.26,11.02  20.55,11.02  20.55,9.94  20.41,9.94  20.23,9.94  20.23,10.69  C20.19,10.71 20.11,10.79 20.03,10.79 C19.92,10.79 19.90,10.71 19.90,10.60 L19.90,9.94  "
                     id="path241345" />
                </g>
                <g
                   fill="rgb(0,13,255)"
                   id="g241351">
                  <path
                     d="M22.60,9.50 23.20,9.50  C23.54,9.50 23.64,9.70 23.64,9.87 C23.64,10.08 23.54,10.19 23.36,10.21 L23.36,10.23  C23.62,10.25 23.71,10.38 23.71,10.59 C23.71,10.89 23.47,11.02 23.17,11.02 L22.60,11.02  L22.60,9.50 M22.91,9.77 23.09,9.77  C23.22,9.77 23.35,9.77 23.35,9.94 L23.35,9.94  23.35,9.94  C23.35,10.09 23.20,10.12 23.05,10.12 L22.91,10.12  L22.91,9.77 M22.91,10.38 23.09,10.38  C23.27,10.38 23.37,10.38 23.37,10.56 L23.37,10.56  23.37,10.56  C23.37,10.71 23.27,10.74 23.09,10.74 L22.91,10.74  L22.91,10.38 M27.57,9.94 27.86,9.94  27.86,10.02  C27.95,9.99 28.05,9.91 28.18,9.91 C28.41,9.91 28.53,10.02 28.53,10.30 L28.53,11.02  28.23,11.02  28.23,10.31  C28.23,10.20 28.16,10.16 28.07,10.16 C27.99,10.16 27.93,10.20 27.87,10.23 L27.87,11.02  27.57,11.02  L27.57,9.94 M26.67,10.54 C26.68,10.71 26.76,10.80 26.88,10.80 C27.01,10.80 27.04,10.71 27.06,10.62 L27.32,10.71  C27.30,10.89 27.15,11.04 26.85,11.04 C26.49,11.04 26.32,10.74 26.32,10.47 C26.32,10.08 26.57,9.91 26.85,9.91 C27.19,9.91 27.32,10.09 27.32,10.38 C27.32,10.43 27.32,10.50 27.32,10.54 L26.67,10.54 M26.67,10.34 C26.71,10.16 26.95,9.92 27.01,10.34 "
                     id="path241349" />
                </g>
                <g
                   fill="rgb(0,13,255)"
                   id="g241355">
                  <path
                     d="M21.18,10.89 C21.25,10.95 21.33,11.00 21.46,11.00 C21.71,11.00 21.90,10.85 21.90,10.43 C21.90,10.05 21.71,9.91 21.50,9.91 C21.39,9.91 21.30,9.95 21.21,10.02 L21.21,9.46  20.85,9.46  20.85,9.46  20.85,9.46  20.85,10.98  21.17,10.98  L21.18,10.89 M21.16,10.71 C21.18,10.72 21.26,10.79 21.32,10.79 C21.49,10.79 21.54,10.65 21.54,10.44 C21.54,10.30 21.49,10.14 21.33,10.14 C21.26,10.14 21.18,10.20 21.16,10.23 L21.16,10.71  "
                     id="path241353" />
                </g>
                <g
                   fill="rgb(0,13,255)"
                   id="g241359">
                  <path
                     d="M29.34,9.50 29.34,11.02  29.87,11.02  C30.19,11.02 30.44,10.89 30.44,10.59 C30.44,10.38 30.30,10.25 30.08,10.21 C30.23,10.19 30.36,10.08 30.36,9.87 C30.36,9.70 30.25,9.50 29.92,9.50 L29.34,9.50  L29.34,9.50 M29.66,10.12 29.78,10.12  C29.92,10.12 30.05,10.09 30.05,9.94 C30.05,9.77 29.94,9.77 29.80,9.77 L29.66,9.77  L29.66,10.12 M29.66,10.74 29.80,10.74  C29.96,10.74 30.08,10.71 30.08,10.56 C30.08,10.38 29.96,10.38 29.83,10.38 L29.66,10.38  "
                     id="path241357" />
                </g>
                <g
                   fill="rgb(0,13,255)"
                   id="g241363">
                  <path
                     d="M30.95,10.09 C31.02,10.01 31.13,9.91 31.28,9.91 C31.32,9.91 31.35,9.91 31.36,9.91 L31.36,10.20  C31.21,10.20 31.06,10.23 30.96,10.31 L30.96,10.31  30.96,11.02  30.66,11.02  30.66,9.94  30.94,9.94  "
                     id="path241361" />
                </g>
                <g
                   fill="rgb(0,13,255)"
                   id="g241367">
                  <path
                     d="M28.98,4.72 28.98,4.79  C28.80,4.62 28.55,4.50 28.15,4.50 C27.40,4.50 26.55,5.03 26.55,6.53 C26.55,7.88 27.17,8.42 28.05,8.42 C28.53,8.42 28.87,8.25 29.08,7.98 L29.11,7.98  29.17,8.32  29.17,8.32  29.17,8.32  30.30,8.32  30.30,2.90  28.98,2.90  L28.98,4.72 M28.98,7.24 28.55,7.40  C28.12,7.40 27.97,7.03 27.97,6.49 L28.03,5.99  28.13,5.75  28.28,5.60  28.44,5.53  28.57,5.51  28.57,5.51  C28.73,5.51 28.85,5.56 28.98,5.65 "
                     id="path241365" />
                </g>
                <g
                   fill="rgb(0,13,255)"
                   id="g241371">
                  <path
                     d="M33.68,9.82 C33.60,9.82 33.52,9.90 33.46,9.99 L33.46,9.99  33.46,9.99  C33.41,9.94 33.31,9.91 33.21,9.91 C32.91,9.91 32.70,10.08 32.70,10.31 C32.70,10.44 32.80,10.54 32.88,10.60 C32.80,10.65 32.69,10.71 32.69,10.82 C32.69,10.91 32.78,10.98 32.88,11.04 C32.75,11.07 32.67,11.14 32.67,11.23 C32.67,11.38 32.80,11.47 33.17,11.47 C33.50,11.47 33.75,11.38 33.75,11.10 L33.74,11.01  33.71,10.93  33.65,10.87  33.60,10.84  33.48,10.81  33.39,10.81  33.12,10.79  C33.03,10.79 33.00,10.74 33.00,10.71 C33.00,10.71 33.03,10.67 33.04,10.63 C33.12,10.67 33.14,10.67 33.21,10.67 C33.46,10.67 33.68,10.54 33.68,10.30 L33.61,10.04  C33.65,10.02 33.69,10.02 33.76,10.02 L33.76,9.85  L33.68,9.82 M33.21,11.27 C33.34,11.27 33.43,11.23 33.43,11.18 C33.43,11.14 33.42,11.09 33.31,11.09 L33.04,11.08  C32.98,11.10 32.95,11.14 32.94,11.18 C32.94,11.23 33.10,11.27 33.21,11.27 L33.21,11.27 M33.39,10.30 C33.40,10.38 33.31,10.44 33.21,10.44 C33.10,10.44 33.04,10.38 33.04,10.30 C33.04,10.19 33.13,10.12 33.21,10.12 L33.21,10.12  33.21,10.12  C33.31,10.12 33.40,10.19 33.39,10.30 "
                     id="path241369" />
                </g>
                <g
                   fill="rgb(0,13,255)"
                   id="g241375">
                  <path
                     d="M34.91,9.82 C34.83,9.82 34.75,9.90 34.69,9.99 L34.69,9.99  34.69,9.99  C34.64,9.94 34.54,9.91 34.44,9.91 C34.14,9.91 33.93,10.08 33.93,10.31 C33.93,10.44 34.03,10.54 34.11,10.60 C34.03,10.65 33.92,10.71 33.92,10.82 C33.92,10.91 34.01,10.98 34.11,11.04 C33.98,11.07 33.90,11.14 33.90,11.23 C33.90,11.38 34.03,11.47 34.40,11.47 C34.73,11.47 34.98,11.38 34.98,11.10 L34.97,11.01  34.94,10.93  34.88,10.87  34.83,10.84  34.71,10.81  34.62,10.81  34.35,10.79  C34.26,10.79 34.23,10.74 34.23,10.71 C34.23,10.71 34.26,10.67 34.27,10.63 C34.35,10.67 34.37,10.67 34.44,10.67 C34.69,10.67 34.91,10.54 34.91,10.30 L34.84,10.04  C34.88,10.02 34.92,10.02 34.99,10.02 L34.99,9.85  L34.91,9.82 M34.44,11.27 C34.57,11.27 34.66,11.23 34.66,11.18 C34.66,11.14 34.65,11.09 34.54,11.09 L34.27,11.08  C34.21,11.10 34.18,11.14 34.17,11.18 C34.17,11.23 34.33,11.27 34.44,11.27 L34.44,11.27 M34.62,10.30 C34.63,10.38 34.54,10.44 34.44,10.44 C34.33,10.44 34.27,10.38 34.27,10.30 C34.27,10.19 34.36,10.12 34.44,10.12 L34.44,10.12  34.44,10.12  C34.54,10.12 34.63,10.19 34.62,10.30 "
                     id="path241373" />
                </g>
                <g
                   fill="rgb(0,13,255)"
                   id="g241379">
                  <path
                     d="M25.80,10.01 C25.75,9.94 25.67,9.91 25.54,9.91 C25.34,9.91 25.08,10.04 25.08,10.49 C25.08,10.86 25.27,11.04 25.48,11.04 C25.66,11.04 25.75,10.96 25.81,10.89 L25.85,11.02  25.85,11.02  25.85,11.02  26.10,11.02  26.10,9.45  25.80,9.45  L25.80,10.01 M25.80,10.71 C25.75,10.74 25.70,10.80 25.60,10.80 C25.48,10.80 25.44,10.65 25.41,10.48 C25.44,10.30 25.48,10.13 25.63,10.13 L25.63,10.13  25.63,10.13  C25.71,10.13 25.75,10.19 25.80,10.20 "
                     id="path241377" />
                </g>
              </g>
            </g>
          </g>
          <g
             opacity="1.00"
             id="g241386" />
        </g>
      </g>
    </g>
  </g>
</svg>
