<?xml version="1.0" encoding="UTF-8" standalone="no"?>

<svg
   width="1134"
   height="979.99994"
   viewBox="-0.263 -0.112 429.80687 371.40767"
   version="1.1"
   id="svg23232"
   xmlns:sodipodi="http://sodipodi.sourceforge.net/DTD/sodipodi-0.dtd"
   xmlns:svg="http://www.w3.org/2000/svg">
  <path
     id="rect27619"
     style="fill:#303800;stroke-width:7.25566;stroke-linecap:round;stroke-linejoin:round;stroke-dashoffset:621.81;paint-order:fill markers stroke"
     d="M -0.26300001,-0.12717134 H 429.54385 V 371.31085 H -0.26300001 Z" />
  <path
     fill="#ffcc00"
     d="m 269.00255,92.609571 c 21.20975,0 38.41423,89.481469 38.41423,199.990609 h 30.94983 c 0,-118.97483 -31.22293,-215.283479 -69.45508,-215.283479 -21.84695,0 -41.14509,28.856169 -53.88915,74.188599 -12.74405,-45.33243 -32.04219,-74.188599 -53.70707,-74.188599 -38.23218,0 -69.364075,96.217599 -69.364075,215.192459 h 30.949855 c 0,-110.50915 17.0224,-199.899589 38.23215,-199.899589 21.20975,0 38.41423,82.654289 38.41423,184.606719 h 30.76778 c 0,-101.95243 17.2955,-184.606719 38.50525,-184.606719"
     id="path23547"
     style="stroke-width:0.910289" />
  <g
     id="text24126"
     style="font-size:21.6219px;line-height:1.25;fill:#ffcc00;stroke-width:0.540549"
     transform="translate(1.1444092e-8,0.01440986)">
    <path
       d="m 353.28151,277.04342 q 2.00593,0 3.91685,1.03465 1.91092,1.02408 2.97724,2.94556 1.06631,1.91092 1.06631,3.99076 0,2.05872 -1.05575,3.95909 -1.0452,1.90036 -2.94557,2.95612 -1.8898,1.0452 -3.95908,1.0452 -2.06929,0 -3.96965,-1.0452 -1.8898,-1.05576 -2.94556,-2.95612 -1.05576,-1.90037 -1.05576,-3.95909 0,-2.07984 1.06632,-3.99076 1.07687,-1.92148 2.98779,-2.94556 1.91092,-1.03465 3.91686,-1.03465 z m 0,1.3197 q -1.67866,0 -3.27285,0.86572 -1.58363,0.85516 -2.48103,2.45991 -0.89739,1.5942 -0.89739,3.32564 0,1.72088 0.87628,3.30452 0.88683,1.57308 2.47047,2.45991 1.58363,0.87628 3.30452,0.87628 1.72088,0 3.30452,-0.87628 1.58363,-0.88683 2.45991,-2.45991 0.87628,-1.58364 0.87628,-3.30452 0,-1.73144 -0.8974,-3.32564 -0.88683,-1.60475 -2.48102,-2.45991 -1.5942,-0.86572 -3.26229,-0.86572 z m -3.49456,11.05378 v -8.57275 h 2.94556 q 1.50974,0 2.18542,0.24282 0.67568,0.23227 1.07687,0.82349 0.40119,0.59123 0.40119,1.25635 0,0.93963 -0.67568,1.63643 -0.66513,0.6968 -1.77368,0.78126 0.45398,0.19003 0.72848,0.45397 0.51732,0.50677 1.2669,1.69977 l 1.0452,1.67866 H 355.298 l -0.76014,-1.35137 q -0.8974,-1.5942 -1.44639,-1.99538 -0.38007,-0.29562 -1.10854,-0.29562 h -0.81294 v 3.64237 z m 1.38304,-4.82481 h 1.67866 q 1.20356,0 1.63642,-0.35896 0.44342,-0.35896 0.44342,-0.95018 0,-0.38007 -0.21115,-0.67569 -0.21116,-0.30617 -0.59123,-0.45397 -0.36951,-0.14781 -1.38304,-0.14781 h -1.57308 z"
       id="path303429" />
  </g>
</svg>
