<?xml version="1.0" encoding="UTF-8" standalone="no"?>
<!-- Created with Inkscape (http://www.inkscape.org/) -->

<svg
   width="500"
   height="430.81937"
   viewBox="0 0 132.29166 113.98763"
   version="1.1"
   id="svg38557"
   inkscape:version="1.1.1 (c3084ef, 2021-09-22)"
   sodipodi:docname="olk_piz_hasi.svg"
   xmlns:inkscape="http://www.inkscape.org/namespaces/inkscape"
   xmlns:sodipodi="http://sodipodi.sourceforge.net/DTD/sodipodi-0.dtd"
   xmlns="http://www.w3.org/2000/svg"
   xmlns:svg="http://www.w3.org/2000/svg">
  <sodipodi:namedview
     id="namedview38559"
     pagecolor="#505050"
     bordercolor="#ffffff"
     borderopacity="1"
     inkscape:pageshadow="0"
     inkscape:pageopacity="0"
     inkscape:pagecheckerboard="1"
     inkscape:document-units="mm"
     showgrid="false"
     units="px"
     inkscape:zoom="1.9240613"
     inkscape:cx="222.44614"
     inkscape:cy="206.07452"
     inkscape:window-width="1975"
     inkscape:window-height="1265"
     inkscape:window-x="674"
     inkscape:window-y="25"
     inkscape:window-maximized="0"
     inkscape:current-layer="layer1"
     fit-margin-top="0"
     fit-margin-left="0"
     fit-margin-right="0"
     fit-margin-bottom="0" />
  <defs
     id="defs38554" />
  <g
     inkscape:label="Layer 1"
     inkscape:groupmode="layer"
     id="layer1"
     transform="translate(-0.11550151,-0.6624966)">
    <path
       style="fill:#ff2136;fill-opacity:1;stroke:none;stroke-width:0.264583px;stroke-linecap:butt;stroke-linejoin:miter;stroke-opacity:1"
       d="M 11.106121,95.708404 66.80275,87.7692 120.73154,95.409163 66.212521,83.227691 Z"
       id="path38825"
       sodipodi:nodetypes="ccccc" />
    <path
       style="fill:#ff2136;fill-opacity:1;stroke:none;stroke-width:0.264583px;stroke-linecap:butt;stroke-linejoin:miter;stroke-opacity:1"
       d="M 11.106121,95.708404 66.267676,71.725912 120.73154,95.409163 66.568971,63.261694 Z"
       id="path39129"
       sodipodi:nodetypes="ccccc" />
    <path
       style="fill:#ff2136;fill-opacity:1;stroke:none;stroke-width:0.264583px;stroke-linecap:butt;stroke-linejoin:miter;stroke-opacity:1"
       d="M 11.106121,95.708404 66.240899,53.830273 120.73154,95.409163 66.260087,40.852341 Z"
       id="path39306"
       sodipodi:nodetypes="ccccc" />
    <path
       style="fill:#ff2136;fill-opacity:1;stroke:none;stroke-width:0.264583px;stroke-linecap:butt;stroke-linejoin:miter;stroke-opacity:1"
       d="M 11.106121,95.708404 65.947243,34.167091 120.73154,95.409163 66.562528,16.03268 Z"
       id="path39483"
       sodipodi:nodetypes="ccccc" />
    <path
       style="color:#000000;fill:#ff2136;stroke-linecap:square;stroke-dashoffset:621.81;-inkscape-stroke:none;paint-order:stroke markers fill"
       d="m 74.699219,63.71875 -1.208985,2.09375 -43.033203,74.53516 -44.240234,76.6289 h 88.482422 88.482421 l -44.24023,-76.6289 z m 0,5.582031 41.824221,72.441409 41.82422,72.44336 H 74.699219 -8.9492188 L 32.875,141.74219 Z"
       id="path39797"
       transform="matrix(0.74755369,0,0,0.74376707,10.419626,-46.729696)" />
    <g
       aria-label="OLK"
       id="text40261"
       style="font-size:16.3614px;line-height:1.25;fill:#ff2136;stroke-width:0.264584">
      <path
         d="m 12.235891,104.68817 q 0,-1.78953 0.53526,-3.00385 0.399449,-0.89476 1.0865,-1.60578 0.69504,-0.711018 1.517903,-1.054544 1.094488,-0.46336 2.524513,-0.46336 2.588425,0 4.138284,1.605784 1.557848,1.60578 1.557848,4.46583 0,2.83608 -1.54187,4.44186 -1.54187,1.5978 -4.122306,1.5978 -2.612392,0 -4.154262,-1.58981 -1.54187,-1.59779 -1.54187,-4.39393 z m 2.436634,-0.0799 q 0,1.98926 0.918731,3.01983 0.918731,1.02259 2.332778,1.02259 1.414047,0 2.3168,-1.0146 0.910742,-1.02259 0.910742,-3.05977 0,-2.01322 -0.886775,-3.00385 -0.878787,-0.99064 -2.340767,-0.99064 -1.461981,0 -2.356745,1.00661 -0.894764,0.99862 -0.894764,3.01983 z"
         style="font-weight:bold;font-family:Arial;-inkscape-font-specification:'Arial Bold'"
         id="path48737" />
      <path
         d="M 25.497573,110.47218 V 98.856228 h 2.364733 v 9.642682 h 5.879879 v 1.97327 z"
         style="font-weight:bold;font-family:Arial;-inkscape-font-specification:'Arial Bold'"
         id="path48739" />
      <path
         d="M 35.4678,110.47218 V 98.76036 h 2.364734 v 5.20082 l 4.777401,-5.20082 h 3.179608 l -4.409909,4.5617 4.649578,7.15012 h -3.059774 l -3.219553,-5.4964 -1.917351,1.95729 v 3.53911 z"
         style="font-weight:bold;font-family:Arial;-inkscape-font-specification:'Arial Bold'"
         id="path48741" />
    </g>
    <g
       aria-label="PIZ"
       id="text41419"
       style="font-size:16.3614px;line-height:1.25;fill:#ff2136;stroke-width:0.264584">
      <path
         d="M 51.849535,110.47218 V 98.76036 h 3.794759 q 2.157021,0 2.812116,0.175758 1.006609,0.263635 1.685671,1.150412 0.679062,0.87878 0.679062,2.27685 0,1.07851 -0.391459,1.8135 -0.391459,0.73498 -0.998621,1.1584 -0.599172,0.41542 -1.222311,0.55124 -0.846831,0.16777 -2.452613,0.16777 h -1.54187 v 4.41789 z m 2.364734,-9.73056 v 3.32341 h 1.294213 q 1.398068,0 1.869417,-0.18374 0.471349,-0.18375 0.734985,-0.57521 0.271625,-0.39146 0.271625,-0.91074 0,-0.63912 -0.375481,-1.05454 -0.375482,-0.41543 -0.950687,-0.51929 -0.423415,-0.0799 -1.70165,-0.0799 z"
         style="font-weight:bold;font-family:Arial;-inkscape-font-specification:'Arial Bold'"
         id="path48744" />
      <path
         d="M 62.706539,110.47218 V 98.76036 h 2.364734 v 11.71182 z"
         style="font-weight:bold;font-family:Arial;-inkscape-font-specification:'Arial Bold'"
         id="path48746" />
      <path
         d="m 66.301574,110.47218 v -2.13305 l 6.151503,-7.59751 h -5.456463 v -1.98126 h 8.572159 v 1.83746 l -6.415139,7.90109 h 6.662797 v 1.97327 z"
         style="font-weight:bold;font-family:Arial;-inkscape-font-specification:'Arial Bold'"
         id="path48748" />
    </g>
    <g
       aria-label="HASI"
       id="text41913"
       style="font-size:16.3614px;line-height:1.25;fill:#ff2136;stroke-width:0.264584">
      <path
         d="M 81.716884,110.47218 V 98.76036 h 2.364734 v 4.60963 h 4.6336 v -4.60963 h 2.364733 v 11.71182 h -2.364733 v -5.12092 h -4.6336 v 5.12092 z"
         style="font-weight:bold;font-family:Arial;-inkscape-font-specification:'Arial Bold'"
         id="path48751" />
      <path
         d="m 104.09398,110.47218 h -2.57245 l -1.02259,-2.66032 h -4.681532 l -0.966665,2.66032 h -2.508535 l 4.561699,-11.71182 h 2.500546 z m -4.35399,-4.6336 -1.613771,-4.34599 -1.581815,4.34599 z"
         style="font-weight:bold;font-family:Arial;-inkscape-font-specification:'Arial Bold'"
         id="path48753" />
      <path
         d="m 104.75706,106.66145 2.30082,-0.22369 q 0.20771,1.1584 0.83884,1.70165 0.63912,0.54325 1.71763,0.54325 1.14242,0 1.71763,-0.47934 0.58319,-0.48733 0.58319,-1.13444 0,-0.41542 -0.24766,-0.70302 -0.23966,-0.2956 -0.84683,-0.5113 -0.41542,-0.1438 -1.89338,-0.51129 -1.90137,-0.47135 -2.66831,-1.1584 -1.07852,-0.96667 -1.07852,-2.35675 0,-0.89476 0.50331,-1.66969 0.51129,-0.782919 1.46198,-1.190357 0.95868,-0.407437 2.30881,-0.407437 2.20496,0 3.31542,0.966665 1.11846,0.966669 1.17438,2.580439 l -2.36473,0.10385 q -0.15179,-0.90275 -0.6551,-1.29421 -0.49531,-0.39945 -1.49394,-0.39945 -1.03057,0 -1.61377,0.42342 -0.37548,0.27162 -0.37548,0.72699 0,0.41543 0.35152,0.71102 0.44738,0.37548 2.173,0.78292 1.72561,0.40744 2.54847,0.84683 0.83086,0.4314 1.29422,1.19036 0.47135,0.75096 0.47135,1.86143 0,1.0066 -0.55923,1.88539 -0.55923,0.87879 -1.58182,1.31019 -1.02258,0.42342 -2.54848,0.42342 -2.22093,0 -3.41128,-1.02259 -1.19036,-1.03058 -1.42204,-2.99586 z"
         style="font-weight:bold;font-family:Arial;-inkscape-font-specification:'Arial Bold'"
         id="path48755" />
      <path
         d="M 116.21324,110.47218 V 98.76036 h 2.36473 v 11.71182 z"
         style="font-weight:bold;font-family:Arial;-inkscape-font-specification:'Arial Bold'"
         id="path48757" />
    </g>
  </g>
</svg>
