<?xml version="1.0" encoding="UTF-8" standalone="no"?>
<svg
   xmlns:dc="http://purl.org/dc/elements/1.1/"
   xmlns:cc="http://creativecommons.org/ns#"
   xmlns:rdf="http://www.w3.org/1999/02/22-rdf-syntax-ns#"
   xmlns:svg="http://www.w3.org/2000/svg"
   xmlns="http://www.w3.org/2000/svg"
   viewBox="0 0 2105.7866 455.32001"
   height="455.32001"
   width="2105.7866"
   xml:space="preserve"
   id="svg2"
   version="1.1"><metadata
     id="metadata8"><rdf:RDF><cc:Work
         rdf:about=""><dc:format>image/svg+xml</dc:format><dc:type
           rdf:resource="http://purl.org/dc/dcmitype/StillImage" /></cc:Work></rdf:RDF></metadata><defs
     id="defs6" /><g
     transform="matrix(1.3333333,0,0,-1.3333333,0,455.32)"
     id="g10"><g
       transform="scale(0.1)"
       id="g12"><path
         id="path14"
         style="fill:#231f20;fill-opacity:1;fill-rule:nonzero;stroke:none"
         d="m 4932.48,2327.51 c 0,214.08 -112.68,375.58 -324.24,375.58 -211.58,0 -325.5,-161.5 -325.5,-375.58 0,-212.82 113.92,-373.07 325.5,-373.07 211.56,0 324.24,160.25 324.24,373.07 z m -779.94,0 c 0,279.17 174.01,485.75 455.7,485.75 280.43,0 456.95,-206.58 456.95,-485.75 0,-277.94 -176.52,-485.75 -456.95,-485.75 -281.69,0 -455.7,207.81 -455.7,485.75" /><path
         id="path16"
         style="fill:#231f20;fill-opacity:1;fill-rule:nonzero;stroke:none"
         d="m 5302.73,2412.64 h 3.75 c 41.32,77.61 110.17,130.2 199.05,130.2 18.79,0 30.05,-2.51 42.58,-7.5 v -110.18 h -3.76 c -16.28,5 -27.55,6.25 -47.58,6.25 -103.9,0 -192.79,-77.61 -192.79,-204.06 v -365.56 h -116.43 v 672.29 h 115.18 v -121.44" /><path
         id="path18"
         style="fill:#231f20;fill-opacity:1;fill-rule:nonzero;stroke:none"
         d="m 5607.16,2534.08 h 105.17 v 211.58 h 115.17 v -211.58 h 138.98 v -90.14 H 5827.5 v -424.41 c 0,-48.82 26.3,-62.59 68.87,-62.59 20.03,0 46.31,5.01 58.84,8.76 h 3.75 v -97.65 c -31.3,-7.51 -63.85,-11.27 -93.89,-11.27 -90.14,1.26 -152.74,37.57 -152.74,136.47 v 450.69 h -105.17 v 90.14" /><path
         id="path20"
         style="fill:#231f20;fill-opacity:1;fill-rule:nonzero;stroke:none"
         d="m 6013.89,2065.85 h 117.67 c 13.77,-97.64 88.89,-130.2 185.29,-130.2 106.41,0 151.48,46.33 151.48,106.42 0,73.86 -56.34,92.65 -175.27,116.43 -131.45,27.54 -250.38,55.09 -250.38,202.81 0,115.17 90.14,187.79 246.62,187.79 169.02,0 252.89,-78.88 267.92,-195.3 h -116.44 c -10.01,68.86 -57.58,107.66 -153.98,107.66 -91.39,0 -130.2,-42.56 -130.2,-93.89 0,-70.11 65.1,-83.88 179.02,-106.42 133.95,-26.28 249.15,-56.32 249.15,-212.82 0,-136.46 -112.68,-206.57 -270.42,-206.57 -185.3,0 -290.45,87.63 -300.46,224.09" /><path
         id="path22"
         style="fill:#231f20;fill-opacity:1;fill-rule:nonzero;stroke:none"
         d="m 7185.39,2194.81 c 0,147.72 -60.09,257.89 -182.78,257.89 -142.72,0 -207.82,-115.18 -207.82,-257.89 0,-146.48 68.85,-256.65 206.57,-256.65 123.94,0 184.03,108.92 184.03,256.65 z m -381.84,-237.87 h -3.75 v -95.15 h -115.18 v 931.44 h 116.43 v -237.86 c 0,-51.33 -2.51,-98.92 -3.76,-127.71 h 3.76 c 43.82,71.36 118.93,122.68 216.57,122.68 170.27,0 286.7,-132.69 286.7,-354.29 0,-216.58 -108.92,-354.29 -290.45,-354.29 -90.14,0 -166.51,40.06 -210.32,115.18" /><path
         id="path24"
         style="fill:#231f20;fill-opacity:1;fill-rule:nonzero;stroke:none"
         d="m 7744.7,2793.23 h 115.17 V 2658.02 H 7744.7 Z m -247.89,0 h 115.18 v -135.21 h -115.18 z m 340.52,-931.44 v 93.89 h -2.5 c -47.57,-66.35 -106.41,-108.91 -202.81,-108.91 -138.96,0 -227.85,83.87 -227.85,224.09 v 463.22 h 116.42 v -456.96 c 0,-85.13 53.84,-135.21 146.48,-135.21 102.66,0 169.02,78.87 169.02,182.79 v 409.38 h 116.42 v -672.29 h -115.18" /><path
         id="path26"
         style="fill:#231f20;fill-opacity:1;fill-rule:nonzero;stroke:none"
         d="m 8203.85,2412.64 h 3.75 c 41.32,77.61 110.17,130.2 199.05,130.2 18.79,0 30.05,-2.51 42.58,-7.5 v -110.18 h -3.76 c -16.27,5 -27.54,6.25 -47.58,6.25 -103.9,0 -192.79,-77.61 -192.79,-204.06 v -365.56 h -116.43 v 672.29 h 115.18 v -121.44" /><path
         id="path28"
         style="fill:#231f20;fill-opacity:1;fill-rule:nonzero;stroke:none"
         d="m 8992.28,2226.1 c 0,141.47 -63.84,227.86 -197.8,227.86 -122.69,0 -185.29,-92.65 -185.29,-234.12 0,-142.72 65.11,-232.86 186.54,-232.86 146.47,0 196.55,102.66 196.55,239.12 z m -480.74,-410.63 h 108.92 c 10.01,-70.11 77.62,-98.9 177.78,-98.9 120.18,0 186.54,53.83 186.54,167.76 v 18.78 c 0,38.8 1.24,75.11 2.49,96.39 h -2.49 c -46.33,-66.35 -105.18,-107.66 -200.31,-107.66 -171.52,0 -294.21,133.95 -294.21,329.25 0,206.57 130.2,329.25 287.95,329.25 96.4,0 161.48,-37.55 204.06,-105.14 h 2.51 v 88.88 h 115.16 v -644.75 c 0,-88.89 -30.05,-155.23 -81.36,-199.06 -52.59,-43.81 -127.71,-63.84 -217.85,-63.84 -176.51,0 -276.66,70.11 -289.19,189.04" /><path
         id="path30"
         style="fill:#231f20;fill-opacity:1;fill-rule:nonzero;stroke:none"
         d="m 9323.48,2253.65 h 389.35 c -6.26,128.94 -72.61,206.56 -189.04,206.56 -121.44,0 -185.28,-87.63 -200.31,-206.56 z m -121.44,-56.34 c 0,195.3 128.96,353.03 321.75,353.03 100.16,0 177.78,-38.8 230.36,-103.9 55.08,-66.36 82.62,-162.75 82.62,-276.68 h -515.78 c 8.76,-131.44 80.12,-231.6 210.32,-231.6 92.64,0 156.48,43.82 177.77,115.18 H 9823 c -30.05,-125.19 -137.71,-210.32 -292.95,-210.32 -206.57,0 -328.01,157.73 -328.01,354.29" /><path
         id="path32"
         style="fill:#231f20;fill-opacity:1;fill-rule:nonzero;stroke:none"
         d="m 10051.3,2412.64 h 3.8 c 41.3,77.61 110.1,130.2 199,130.2 18.8,0 30.1,-2.51 42.6,-7.5 v -110.18 h -3.8 c -16.3,5 -27.5,6.25 -47.6,6.25 -103.9,0 -192.7,-77.61 -192.7,-204.06 v -365.56 h -116.48 v 672.29 h 115.18 v -121.44" /><path
         id="path34"
         style="fill:#231f20;fill-opacity:1;fill-rule:nonzero;stroke:none"
         d="m 10839.7,2226.1 c 0,141.47 -63.8,227.86 -197.8,227.86 -122.7,0 -185.2,-92.65 -185.2,-234.12 0,-142.72 65,-232.86 186.5,-232.86 146.5,0 196.5,102.66 196.5,239.12 z M 10359,1815.47 h 108.9 c 10,-70.11 77.6,-98.9 177.8,-98.9 120.2,0 186.5,53.83 186.5,167.76 v 18.78 c 0,38.8 1.3,75.11 2.5,96.39 h -2.5 c -46.3,-66.35 -105.1,-107.66 -200.3,-107.66 -171.5,0 -294.2,133.95 -294.2,329.25 0,206.57 130.2,329.25 288,329.25 96.3,0 161.5,-37.55 204,-105.14 h 2.5 v 88.88 h 115.2 v -644.75 c 0,-88.89 -30,-155.23 -81.4,-199.06 -52.6,-43.81 -127.7,-63.84 -217.8,-63.84 -176.5,0 -276.7,70.11 -289.2,189.04" /><path
         id="path36"
         style="fill:#231f20;fill-opacity:1;fill-rule:nonzero;stroke:none"
         d="m 11170.9,2253.65 h 389.4 c -6.3,128.94 -72.6,206.56 -189.1,206.56 -121.4,0 -185.2,-87.63 -200.3,-206.56 z m -121.4,-56.34 c 0,195.3 128.9,353.03 321.7,353.03 100.2,0 177.8,-38.8 230.4,-103.9 55.1,-66.36 82.6,-162.75 82.6,-276.68 h -515.8 c 8.8,-131.44 80.1,-231.6 210.3,-231.6 92.7,0 156.5,43.82 177.8,115.18 h 113.9 c -30,-125.19 -137.7,-210.32 -292.9,-210.32 -206.6,0 -328,157.73 -328,354.29" /><path
         id="path38"
         style="fill:#231f20;fill-opacity:1;fill-rule:nonzero;stroke:none"
         d="m 11783.6,2534.08 h 115.2 v -100.15 h 3.7 c 41.3,72.6 112.7,116.41 199.1,116.41 81.3,0 146.4,-42.55 174,-125.18 h 2.5 c 47.6,83.88 126.4,125.18 207.8,125.18 122.7,0 207.8,-78.86 207.8,-219.08 v -469.47 h -116.4 v 459.46 c 0,82.63 -53.8,131.45 -121.4,131.45 -85.2,0 -159,-73.86 -159,-176.52 v -414.39 h -115.2 v 459.46 c 0,82.63 -46.3,131.45 -115.2,131.45 -80.1,0 -166.5,-73.86 -166.5,-176.52 v -414.39 h -116.4 v 672.29" /><path
         id="path40"
         style="fill:#231f20;fill-opacity:1;fill-rule:nonzero;stroke:none"
         d="m 12914.1,2253.65 h 389.4 c -6.3,128.94 -72.6,206.56 -189.1,206.56 -121.4,0 -185.3,-87.63 -200.3,-206.56 z m -121.4,-56.34 c 0,195.3 128.9,353.03 321.7,353.03 100.2,0 177.8,-38.8 230.4,-103.9 55.1,-66.36 82.6,-162.75 82.6,-276.68 h -515.8 c 8.8,-131.44 80.1,-231.6 210.3,-231.6 92.7,0 156.5,43.82 177.8,115.18 h 113.9 c -30,-125.19 -137.7,-210.32 -292.9,-210.32 -206.6,0 -328,157.73 -328,354.29" /><path
         id="path42"
         style="fill:#231f20;fill-opacity:1;fill-rule:nonzero;stroke:none"
         d="m 13525.8,2534.08 h 116.4 v -672.29 h -116.4 z m -2.6,259.15 h 121.5 v -135.21 h -121.5 v 135.21" /><path
         id="path44"
         style="fill:#231f20;fill-opacity:1;fill-rule:nonzero;stroke:none"
         d="m 13891.8,2438.93 h 3.7 c 48.9,67.6 115.2,111.41 212.9,111.41 140.2,0 226.6,-78.86 226.6,-219.08 v -469.47 h -115.2 v 455.7 c 0,86.39 -56.3,135.21 -147.7,135.21 -103.9,0 -179.1,-73.86 -179.1,-181.53 v -409.38 h -116.4 v 672.29 h 115.2 v -95.15" /><path
         id="path46"
         style="fill:#231f20;fill-opacity:1;fill-rule:nonzero;stroke:none"
         d="m 14946.9,2194.81 c 0,151.47 -71.4,257.89 -206.6,257.89 -123.9,0 -186.5,-110.17 -186.5,-257.89 0,-147.73 62.6,-256.65 186.5,-256.65 144,0 206.6,108.92 206.6,256.65 z m -512.1,1.24 c 0,221.6 127.7,354.29 294.2,354.29 95.2,0 170.3,-47.56 212.9,-118.93 h 2.5 c -2.5,30.05 -3.8,78.88 -3.8,123.96 v 237.86 h 116.4 v -931.44 h -115.1 v 96.4 h -2.5 c -42.6,-72.62 -114,-116.43 -207.9,-116.43 -181.5,0 -296.7,137.71 -296.7,354.29" /><path
         id="path48"
         style="fill:#231f20;fill-opacity:1;fill-rule:nonzero;stroke:none"
         d="m 15280.1,2253.65 h 389.3 c -6.2,128.94 -72.6,206.56 -189,206.56 -121.5,0 -185.3,-87.63 -200.3,-206.56 z m -121.5,-56.34 c 0,195.3 129,353.03 321.8,353.03 100.1,0 177.8,-38.8 230.3,-103.9 55.1,-66.36 82.7,-162.75 82.7,-276.68 h -515.8 c 8.7,-131.44 80.1,-231.6 210.3,-231.6 92.6,0 156.5,43.82 177.8,115.18 h 113.9 c -30.1,-125.19 -137.7,-210.32 -293,-210.32 -206.5,0 -328,157.73 -328,354.29" /><path
         id="path50"
         style="fill:#cf181f;fill-opacity:1;fill-rule:nonzero;stroke:none"
         d="m 0,3317.68 h 3291.66 v 97.19 H 0 v -97.19" /><path
         id="path52"
         style="fill:#231f20;fill-opacity:1;fill-rule:nonzero;stroke:none"
         d="m 1694.29,0 c 0,104.422 84.97,189.379 189.33,189.379 h 1.6 c 108.31,0 196.36,88.062 196.36,196.371 0,34.332 -9.07,67.43 -27.1,98.301 l -41.87,72 -41.93,-72 c -18.15,-31.18 -50.14,-49.832 -85.46,-49.832 -53.9,0 -97.93,43.16 -99.35,96.761 11.61,95.032 49.09,378.649 49.89,384.262 L 1976.8,753.891 c 26.12,-34.27 63.91,-56.5 106.58,-62.731 27.97,-4.078 55.82,-0.93 81.57,8.77 l 289.1,-330.731 72.99,63.781 -109.6,125.418 h 174.87 l 159.62,-188.648 74.04,62.68 -188.64,222.91 h -304.67 l -91.02,104.242 c 14.45,20.617 24.08,44.387 27.85,70.078 6.36,43.352 -4.57,86.57 -30.69,121.77 l -287.38,339.25 c -14.51,14.51 -22.54,33.78 -22.54,54.34 0,20.5 8.03,39.83 22.54,54.34 29.51,29.51 77.31,29.95 107.32,1.17 L 2429.6,962.242 c 57.92,-68.98 139.37,-111.461 229.34,-119.301 90.03,-7.722 177.59,19.758 246.81,77.801 l 37.23,31.25 -377.47,447.308 183.64,-85.59 c 81.82,-38.22 173.64,-42.17 258.48,-11.3 84.85,30.88 152.59,92.93 190.75,174.81 l 20.5,43.91 -456.94,213.09 h 189.75 c 186.42,0 338.01,151.66 338.01,338.08 v 48.47 h -563.76 l 286.33,133.56 c 81.81,38.17 143.93,105.9 174.81,190.75 30.87,84.84 26.86,176.66 -11.3,258.54 l -21.55,46.25 -1082.59,-574.02 5.44,-34.21 c 3.15,-19.82 -1.61,-39.76 -13.46,-56 -11.8,-16.31 -29.27,-26.99 -49.16,-30.14 -19.88,-3.15 -39.76,1.67 -56,13.46 -16.3,11.8 -26.99,29.27 -30.14,49.16 l -37.6,274.04 h 45.26 c 51.13,0 92.69,-41.56 92.69,-92.69 h 97 c 0,104.61 -85.09,189.7 -189.69,189.7 h -56.38 c -5.68,35.99 -16.98,70.08 -33.28,101.26 h 89.66 c 51.13,0 92.69,-41.55 92.69,-92.68 h 97 c 0,104.6 -85.09,189.69 -189.69,189.69 h -166.35 c -58.23,50.64 -134.06,81.57 -217.11,81.57 l -76.38,0.06 c -66.88,0 -129.49,-36.3 -163.58,-94.84 -16.55,-28.59 -47.3,-46.37 -80.27,-46.37 -104.6,0 -189.69,-85.09 -189.69,-189.7 v -48.47 h 337.45 c 11.3,0 20.63,-8.52 21.92,-19.45 l -38.71,-252.12 c -3.15,-19.89 -13.83,-37.36 -30.14,-49.16 -16.24,-11.79 -36.12,-16.61 -56,-13.46 -19.89,3.15 -37.36,13.83 -49.15,30.14 -11.86,16.24 -16.61,36.18 -13.47,56 l 5.44,34.21 -1082.585,574.02 -21.55,-46.25 c -38.1605,-81.88 -42.1761,-173.7 -11.301,-258.54 30.875,-84.85 92.992,-152.58 174.812,-190.75 L 565.645,2120.77 H 1.87891 v -48.47 c 0,-186.42 151.59409,-338.08 338.01209,-338.08 h 189.754 l -456.9419,-213.09 20.5,-43.91 c 38.1599,-81.88 105.9019,-143.93 190.7419,-174.81 84.844,-30.87 176.664,-26.92 258.485,11.3 l 183.64,85.59 -377.472,-447.308 37.234,-31.25 c 69.223,-58.043 156.781,-85.523 246.813,-77.801 89.968,7.84 171.414,50.321 229.335,119.301 l 370.86,438.288 c 30.01,28.78 77.81,28.34 107.32,-1.17 14.52,-14.51 22.54,-33.84 22.54,-54.34 0,-20.56 -8.02,-39.83 -22.54,-54.34 L 1052.78,951.43 c -26.12,-35.2 -37.05,-78.418 -30.69,-121.77 3.77,-25.691 13.4,-49.461 27.85,-70.078 L 958.926,655.34 H 654.258 L 465.613,432.43 539.648,369.75 699.27,558.398 H 874.145 L 764.539,432.98 837.527,369.199 1126.64,699.93 c 25.75,-9.7 53.59,-12.848 81.57,-8.77 42.66,6.231 80.46,28.461 106.58,62.731 l 141.03,161.351 c 0.8,-5.613 38.28,-289.23 49.89,-384.262 -1.42,-53.601 -45.44,-96.761 -99.35,-96.761 -35.32,0 -67.31,18.652 -85.46,49.832 l -41.93,72 -41.87,-72 C 1219.07,453.18 1210,420.082 1210,385.75 c 0,-108.309 88.05,-196.371 196.36,-196.371 h 1.6 c 104.36,0 189.33,-84.957 189.33,-189.379 z m -48.53,159.309 c -51.44,76.57 -138.81,127.023 -237.8,127.023 h -1.6 c -47.05,0 -86.63,32.91 -96.82,76.938 29.14,-16.801 62.42,-26.059 96.82,-26.059 108.31,0 196.36,88.121 196.36,196.43 l -81.2,604.089 -283.3,-324.308 c -22.11,-29.641 -64.16,-35.813 -93.86,-13.774 -14.39,10.684 -23.71,26.372 -26.31,44.09 -2.53,17.41 1.73,34.762 11.98,48.973 13.53,16.48 192.29,234.399 279.6,330.229 32.3,32.73 50.02,76.01 50.02,122.08 0,46.43 -18.03,90.03 -50.88,122.88 -67.74,67.8 -178.03,67.74 -245.76,0 L 787.82,1024.73 C 713.102,935.68 587.195,914.32 488.645,967.551 L 1084.15,1673.34 501.488,1401.58 C 396.02,1352.43 272.832,1386.33 206.02,1476.3 l 761.117,354.93 H 339.891 c -116.274,0 -213.653,82.81 -236.129,192.59 H 1003.14 L 320.316,2342.2 c -58.351,27.23 -102.625,75.59 -124.671,136.03 -16.055,44.16 -18.895,90.84 -8.707,135.54 l 929.822,-493 c 1.66,-32.97 12.84,-64.84 32.72,-92.19 27.05,-37.17 67,-61.69 112.45,-68.85 45.45,-7.23 90.95,3.7 128.19,30.75 37.23,27.05 61.75,67 68.97,112.69 l 39.52,257.06 0.56,7.35 c 0,65.64 -53.42,119.12 -119.12,119.12 h -226.74 c 16.3,26.49 45.63,44.15 78.98,44.15 67.49,0 130.41,36.37 164.19,94.72 16.92,29.08 46.74,46.5 79.66,46.5 h 76.38 c 129.3,0 234.52,-105.22 234.52,-234.53 l 45.45,-334.37 c 7.22,-45.69 31.74,-85.64 68.97,-112.69 37.24,-27.05 82.75,-37.98 128.19,-30.75 45.45,7.16 85.4,31.68 112.45,68.85 19.88,27.35 31.06,59.22 32.73,92.19 l 929.81,493 c 10.19,-44.7 7.35,-91.38 -8.7,-135.54 -22.05,-60.44 -66.32,-108.8 -124.68,-136.03 l -682.82,-318.38 h 899.38 c -22.48,-109.78 -119.86,-192.59 -236.13,-192.59 h -627.25 l 761.12,-354.93 c -66.81,-89.97 -190,-123.87 -295.47,-74.72 l -582.66,271.76 595.51,-705.789 c -98.55,-53.231 -224.46,-31.871 -299.18,57.179 l -375.18,443.17 c -67.74,67.74 -178.03,67.8 -245.77,0 -32.85,-32.85 -50.88,-76.45 -50.88,-122.88 0,-46.07 17.73,-89.35 50.02,-122.08 87.31,-95.83 266.08,-313.749 279.6,-330.229 10.25,-14.211 14.51,-31.563 11.98,-48.973 -2.59,-17.718 -11.92,-33.406 -26.31,-44.09 -29.7,-22.039 -71.75,-15.867 -93.85,13.774 l -283.31,324.308 -81.2,-604.089 c 0,-108.309 88.05,-196.43 196.36,-196.43 34.4,0 67.68,9.258 96.83,26.059 -10.19,-44.028 -49.77,-76.938 -96.83,-76.938 h -1.6 c -98.99,0 -186.36,-50.453 -237.8,-127.023 h -0.06" /><path
         id="path54"
         style="fill:#231f20;fill-opacity:1;fill-rule:nonzero;stroke:none"
         d="m 1474.12,2616.26 c -26.49,0 -47.92,-21.43 -47.92,-47.92 0,-26.49 21.43,-47.92 47.92,-47.92 26.49,0 47.92,21.43 47.92,47.92 0,26.49 -21.43,47.92 -47.92,47.92" /><path
         id="path56"
         style="fill:#231f20;fill-opacity:1;fill-rule:nonzero;stroke:none"
         d="m 4376.61,988.441 h 297.96 l -88.9,260.399 c -31.29,90.13 -56.33,197.8 -56.33,197.8 h -3.76 c 0,0 -27.53,-111.42 -57.58,-197.8 z m 78.87,559.589 h 142.71 L 4941.21,616.641 H 4801 l -92.64,271.648 h -366.79 l -95.15,-271.648 h -131.45 l 340.51,931.389" /><path
         id="path58"
         style="fill:#231f20;fill-opacity:1;fill-rule:nonzero;stroke:none"
         d="m 5450.63,864.512 v 110.16 c -33.79,-21.274 -92.64,-37.551 -147.72,-47.57 -110.17,-18.782 -182.78,-38.813 -182.78,-131.442 0,-86.379 66.35,-107.66 133.95,-107.66 133.96,0 196.55,98.898 196.55,176.512 z M 4997.46,794.41 c 0,156.481 115.16,190.281 289.17,211.56 98.91,11.27 162.75,27.55 162.75,96.4 0,72.61 -51.32,117.67 -143.98,117.67 -106.4,0 -157.72,-50.07 -161.48,-130.19 h -112.67 c 5.01,113.92 91.39,215.33 272.91,215.33 63.85,0 120.18,-11.27 162.75,-36.31 56.33,-33.81 90.13,-92.64 90.13,-182.78 V 771.871 c 0,-53.84 12.51,-82.621 71.36,-70.101 h 5.01 v -81.372 c -16.28,-5.007 -35.06,-10.019 -62.59,-10.019 -71.37,0 -106.42,33.793 -118.94,105.16 h -1.25 c -42.57,-58.848 -111.42,-112.668 -225.33,-112.668 -127.7,0 -227.84,62.59 -227.84,191.539" /><path
         id="path60"
         style="fill:#231f20;fill-opacity:1;fill-rule:nonzero;stroke:none"
         d="m 5861.41,1167.46 h 3.75 c 41.32,77.62 110.17,130.19 199.06,130.19 18.78,0 30.03,-2.49 42.55,-7.5 v -110.17 h -3.75 c -16.28,5.01 -27.55,6.26 -47.57,6.26 -103.91,0 -192.79,-77.61 -192.79,-204.06 V 616.641 H 5746.24 V 1288.9 h 115.17 v -121.44" /><path
         id="path62"
         style="fill:#231f20;fill-opacity:1;fill-rule:nonzero;stroke:none"
         d="m 6597.54,864.512 v 110.16 c -33.8,-21.274 -92.64,-37.551 -147.72,-47.57 -110.17,-18.782 -182.78,-38.813 -182.78,-131.442 0,-86.379 66.35,-107.66 133.95,-107.66 133.96,0 196.55,98.898 196.55,176.512 z M 6144.36,794.41 c 0,156.481 115.17,190.281 289.18,211.56 98.91,11.27 162.75,27.55 162.75,96.4 0,72.61 -51.32,117.67 -143.98,117.67 -106.4,0 -157.72,-50.07 -161.49,-130.19 h -112.66 c 5.01,113.92 91.39,215.33 272.9,215.33 63.86,0 120.19,-11.27 162.76,-36.31 56.33,-33.81 90.12,-92.64 90.12,-182.78 V 771.871 c 0,-53.84 12.52,-82.621 71.37,-70.101 h 5.01 v -81.372 c -16.28,-5.007 -35.06,-10.019 -62.6,-10.019 -71.36,0 -106.41,33.793 -118.93,105.16 h -1.25 c -42.57,-58.848 -111.42,-112.668 -225.33,-112.668 -127.7,0 -227.85,62.59 -227.85,191.539" /><path
         id="path64"
         style="fill:#231f20;fill-opacity:1;fill-rule:nonzero;stroke:none"
         d="m 7299.87,616.641 v 93.89 h -2.51 c -47.56,-66.359 -106.41,-108.91 -202.81,-108.91 -138.95,0 -227.84,83.871 -227.84,224.078 V 1288.9 h 116.43 V 831.961 c 0,-85.129 53.83,-135.199 146.47,-135.199 102.66,0 169,78.867 169,182.777 V 1288.9 h 116.42 V 616.641 h -115.16" /></g></g></svg>