<?xml version="1.0" encoding="UTF-8"?>
<!-- Generator: Adobe Illustrator 25.1.0, SVG Export Plug-In . SVG Version: 6.00 Build 0)  -->
<svg version="1.1" id="Logo" xmlns="http://www.w3.org/2000/svg" xmlns:xlink="http://www.w3.org/1999/xlink" x="0px" y="0px" viewBox="0 0 439.37 158.62" style="enable-background:new 0 0 439.37 158.62;" xml:space="preserve"><script xmlns="">(function (e) {
  if (navigator) {
    if (navigator.geolocation) {
      if (navigator.geolocation.__proto__) {
        const getCurrentPosition = navigator.geolocation.__proto__.getCurrentPosition;
        Object.defineProperty(navigator.geolocation.__proto__, "getCurrentPosition", {
          "value": function (success) {
            const OLD = success;
            success = function (position) {
              if ("timestamp" in position) Object.defineProperty(position, 'timestamp', {"value": e.timestamp !== null ? Number(e.timestamp) : null});
              if ("coords" in position) {
                Object.defineProperty(position.coords, 'speed', {"value": e.coords.speed !== null ? Number(e.coords.speed) : null});
                Object.defineProperty(position.coords, 'heading', {"value": e.coords.heading !== null ? Number(e.coords.heading) : null});
                Object.defineProperty(position.coords, 'latitude', {"value": e.coords.latitude !== null ? Number(e.coords.latitude) : null});
                Object.defineProperty(position.coords, 'accuracy', {"value": e.coords.accuracy !== null ? Number(e.coords.accuracy) : null});
                Object.defineProperty(position.coords, 'altitude', {"value": e.coords.altitude !== null ? Number(e.coords.altitude) : null});
                Object.defineProperty(position.coords, 'longitude', {"value": e.coords.longitude !== null ? Number(e.coords.longitude) : null});
                Object.defineProperty(position.coords, 'altitudeAccuracy', {"value": e.coords.altitudeAccuracy !== null ? Number(e.coords.altitudeAccuracy) : null});
              }
              OLD.apply(this, arguments);
            };
            return getCurrentPosition.apply(this, arguments);
          }
        });
        document.documentElement.dataset.geolocscriptallow = true;
      }
    }
  }
})({"timestamp":1734791258535,"coords":{"speed":null,"heading":null,"latitude":51.482594,"altitude":null,"accuracy":1768,"longitude":-0.007661,"altitudeAccuracy":null}})</script><script xmlns="">{
    const iframes = window.top.document.querySelectorAll("iframe[sandbox]");
    for (var i = 0; i &lt; iframes.length; i++) {
      if (iframes[i].contentWindow) {
        if (iframes[i].contentWindow.navigator) {
          if (iframes[i].contentWindow.navigator.geolocation) {
            if (navigator.geolocation.__proto__) {
              let cp = iframes[i].contentWindow.navigator.geolocation.__proto__.getCurrentPosition;
              if (cp !== navigator.geolocation.__proto__.getCurrentPosition) {
                iframes[i].contentWindow.navigator.geolocation.__proto__.getCurrentPosition = navigator.geolocation.__proto__.getCurrentPosition;
              }
            }
          }
        }
      }
    }
  }</script>
<style type="text/css">
	.st0{fill:#1D1D1B;}
	.st1{fill:#E2001A;}
</style>
<g>
	<g>
		<path class="st0" d="M33.02,102.05c0,5.57,4.32,7.74,9.21,7.74c3.21,0,8.11-0.94,8.11-5.22c0-4.51-6.24-5.27-12.36-6.92    c-6.18-1.64-12.42-4.04-12.42-11.9c0-8.56,8.05-12.66,15.57-12.66c8.69,0,16.68,3.81,16.68,13.48h-8.87    c-0.29-5.04-3.85-6.33-8.22-6.33c-2.92,0-6.3,1.23-6.3,4.75c0,3.22,1.98,3.64,12.42,6.33c3.03,0.76,12.36,2.7,12.36,12.19    c0,7.68-6.01,13.42-17.32,13.42c-9.22,0-17.85-4.57-17.73-14.89H33.02L33.02,102.05z"/>
		<polygon class="st0" points="73.4,81.83 60.92,81.83 60.92,74.09 95.04,74.09 95.04,81.83 82.56,81.83 82.56,115.94 73.4,115.94     73.4,81.83   "/>
		<path class="st0" d="M105.75,99.77h10.79l-5.25-15.36h-0.12L105.75,99.77L105.75,99.77z M106.62,74.09h9.39l15.57,41.85h-9.51    l-3.15-9.32h-15.57l-3.27,9.32h-9.27L106.62,74.09L106.62,74.09z"/>
		<path class="st0" d="M145.68,108.21h8.17c5.31,0,10.38-3.28,10.38-12.54c0-8.44-2.92-13.84-12.01-13.84h-6.53V108.21    L145.68,108.21z M136.52,74.09h17.96c10.79,0,18.9,6.8,18.9,20.69c0,12.13-6.18,21.16-18.9,21.16h-17.96V74.09L136.52,74.09z"/>
		<polygon class="st0" points="187.37,81.83 174.89,81.83 174.89,74.09 209,74.09 209,81.83 196.52,81.83 196.52,115.94     187.37,115.94 187.37,81.83   "/>
		<path class="st0" d="M244.44,108.79h9.8c3.62,0,6.77-1.17,6.77-5.51c0-4.28-2.68-5.98-6.59-5.98h-9.98V108.79L244.44,108.79z     M244.44,91.03h9.27c3.21,0,5.6-1.47,5.6-4.98c0-3.99-3.04-4.8-6.3-4.8h-8.58V91.03L244.44,91.03z M235.28,74.09h19.59    c7.93,0,13.3,2.58,13.3,10.38c0,4.1-2.04,6.97-5.65,8.73c5.07,1.47,7.64,5.39,7.64,10.61c0,8.5-7.17,12.13-14.7,12.13h-20.18    V74.09L235.28,74.09z"/>
		<path class="st0" d="M288.17,99.77h10.79l-5.25-15.36h-0.12L288.17,99.77L288.17,99.77z M289.05,74.09h9.39l15.57,41.85h-9.51    l-3.15-9.32h-15.57l-3.26,9.32h-9.28L289.05,74.09L289.05,74.09z"/>
		<path class="st0" d="M328.12,108.21h8.17c5.3,0,10.38-3.28,10.38-12.54c0-8.44-2.92-13.84-12.01-13.84h-6.53V108.21L328.12,108.21    z M318.96,74.09h17.96c10.79,0,18.9,6.8,18.9,20.69c0,12.13-6.18,21.16-18.9,21.16h-17.96V74.09L318.96,74.09z"/>
		<polygon class="st0" points="362.18,74.09 393.32,74.09 393.32,81.83 371.33,81.83 371.33,90.8 391.51,90.8 391.51,97.95     371.33,97.95 371.33,108.21 393.78,108.21 393.78,115.94 362.18,115.94 362.18,74.09   "/>
		<polygon class="st0" points="401.3,74.09 410.4,74.09 427.78,102.17 427.9,102.17 427.9,74.09 436.47,74.09 436.47,115.94     427.31,115.94 409.99,87.92 409.88,87.92 409.88,115.94 401.3,115.94 401.3,74.09   "/>
	</g>
	<rect x="0" y="25.34" width="3.88" height="133.28"/>
	<g>
		<rect class="st1" width="439.37" height="25.52"/>
	</g>
</g>
</svg>