<?xml version="1.0" encoding="UTF-8" standalone="no"?>
<!-- Created with Inkscape (http://www.inkscape.org/) -->

<svg
   width="500"
   height="61.188473"
   viewBox="0 0 132.29167 16.189451"
   version="1.1"
   id="svg5"
   inkscape:version="1.1.1 (c3084ef, 2021-09-22)"
   sodipodi:docname="stadt_dietikon.svg"
   xmlns:inkscape="http://www.inkscape.org/namespaces/inkscape"
   xmlns:sodipodi="http://sodipodi.sourceforge.net/DTD/sodipodi-0.dtd"
   xmlns="http://www.w3.org/2000/svg"
   xmlns:svg="http://www.w3.org/2000/svg">
  <sodipodi:namedview
     id="namedview7"
     pagecolor="#505050"
     bordercolor="#ffffff"
     borderopacity="1"
     inkscape:pageshadow="0"
     inkscape:pageopacity="0"
     inkscape:pagecheckerboard="1"
     inkscape:document-units="mm"
     showgrid="false"
     lock-margins="true"
     fit-margin-top="0"
     fit-margin-left="0"
     fit-margin-right="0"
     fit-margin-bottom="0"
     units="px"
     inkscape:zoom="2.0101631"
     inkscape:cx="232.07072"
     inkscape:cy="41.041446"
     inkscape:window-width="1854"
     inkscape:window-height="1263"
     inkscape:window-x="78"
     inkscape:window-y="25"
     inkscape:window-maximized="0"
     inkscape:current-layer="layer1" />
  <defs
     id="defs2">
    <clipPath
       clipPathUnits="userSpaceOnUse"
       id="clipPath840">
      <path
         d="M 0,202.045 H 743.462 V 0 H 0 Z"
         id="path838" />
    </clipPath>
  </defs>
  <g
     inkscape:label="Layer 1"
     inkscape:groupmode="layer"
     id="layer1"
     transform="translate(-72.321159,-181.64225)">
    <g
       id="g830"
       inkscape:label="_Logo_Stadt_Dietikon_blau"
       transform="matrix(0.21650452,0,0,-0.21650452,57.985572,211.60886)">
      <path
         d="m 677.248,64.565 h -81.229 v 73.846 h 81.229 z"
         style="fill:#2b78c6;fill-opacity:1;fill-rule:nonzero;stroke:none"
         id="path832" />
      <g
         id="g834">
        <g
           id="g836"
           clip-path="url(#clipPath840)">
          <g
             id="g842"
             transform="translate(638.9914,81.8)">
            <path
               d="m 0,0 3.271,-5.609 c 0,-3.808 -3.193,-8.009 -5.632,-8.009 -2.439,0 -5.629,4.201 -5.629,8.009 L -4.72,0 v 39.376 l -3.27,5.61 c 0,3.806 3.19,8.008 5.629,8.008 2.439,0 5.632,-4.202 5.632,-8.008 L 0,39.376 Z"
               style="fill:#ffffff;fill-opacity:1;fill-rule:nonzero;stroke:none"
               id="path844" />
          </g>
          <g
             id="g846"
             transform="translate(638.9914,81.8)">
            <path
               d="m 0,0 3.271,-5.609 c 0,-3.808 -3.193,-8.009 -5.632,-8.009 -2.439,0 -5.629,4.201 -5.629,8.009 L -4.72,0 v 39.376 l -3.27,5.61 c 0,3.806 3.19,8.008 5.629,8.008 2.439,0 5.632,-4.202 5.632,-8.008 L 0,39.376 Z"
               style="fill:none;stroke:#2b78c6;stroke-width:0.195;stroke-linecap:butt;stroke-linejoin:miter;stroke-miterlimit:4;stroke-dasharray:none;stroke-opacity:1"
               id="path848" />
          </g>
          <g
             id="g850"
             transform="translate(634.9084,86.2814)">
            <path
               d="m 0,0 c -0.048,-0.449 0.021,-6.547 -3.807,-10.079 -1.028,-0.945 -2.167,-1.614 -3.573,-1.884 -1.324,-0.249 -2.813,-0.249 -3.967,0.332 -3.452,1.74 -1.994,5.766 -1.491,6.673 0.523,0.933 1.247,2.055 1.463,2.695 0.279,0.827 0.104,1.562 0.104,1.562 0,0 1.007,-0.347 1.885,-1.313 0.697,-0.766 1.657,-2.539 3.317,-2.355 1.508,0.166 2.414,1.348 2.891,2.371 0.347,0.744 0.412,1.407 0.417,1.591 0.005,0.43 0.005,2.27 0,2.58 -0.008,0.209 -0.075,0.709 -0.289,1.257 -0.163,0.465 -1.22,1.408 -2.381,1.456 -1.606,0.065 -3.271,-1.753 -3.271,-1.753 0,0 -2.429,3.64 1.154,5.655 C -6.16,9.57 -4.126,9.02 -3.037,8.036 -2.406,7.468 -1.908,6.839 -1.523,6.147 -1.051,5.303 -0.734,4.383 -0.476,3.43 -0.369,3.025 -0.269,2.612 -0.174,2.2 Z"
               style="fill:#ffffff;fill-opacity:1;fill-rule:nonzero;stroke:none"
               id="path852" />
          </g>
          <g
             id="g854"
             transform="translate(634.9084,86.2814)">
            <path
               d="m 0,0 c -0.048,-0.449 0.021,-6.547 -3.807,-10.079 -1.028,-0.945 -2.167,-1.614 -3.573,-1.884 -1.324,-0.249 -2.813,-0.249 -3.967,0.332 -3.452,1.74 -1.994,5.766 -1.491,6.673 0.523,0.933 1.247,2.055 1.463,2.695 0.279,0.827 0.104,1.562 0.104,1.562 0,0 1.007,-0.347 1.885,-1.313 0.697,-0.766 1.657,-2.539 3.317,-2.355 1.508,0.166 2.414,1.348 2.891,2.371 0.347,0.744 0.412,1.407 0.417,1.591 0.005,0.43 0.005,2.27 0,2.58 -0.008,0.209 -0.075,0.709 -0.289,1.257 -0.163,0.465 -1.22,1.408 -2.381,1.456 -1.606,0.065 -3.271,-1.753 -3.271,-1.753 0,0 -2.429,3.64 1.154,5.655 C -6.16,9.57 -4.126,9.02 -3.037,8.036 -2.406,7.468 -1.908,6.839 -1.523,6.147 -1.051,5.303 -0.734,4.383 -0.476,3.43 -0.369,3.025 -0.269,2.612 -0.174,2.2 Z"
               style="fill:none;stroke:#2b78c6;stroke-width:0.195;stroke-linecap:butt;stroke-linejoin:miter;stroke-miterlimit:4;stroke-dasharray:none;stroke-opacity:1"
               id="path856" />
          </g>
          <g
             id="g858"
             transform="translate(638.3586,86.2814)">
            <path
               d="m 0,0 c 0.05,-0.449 -0.018,-6.547 3.809,-10.079 1.026,-0.945 2.168,-1.614 3.57,-1.884 1.328,-0.249 2.813,-0.249 3.968,0.332 3.452,1.74 1.994,5.766 1.488,6.673 -0.515,0.933 -1.241,2.055 -1.455,2.695 -0.282,0.827 -0.109,1.562 -0.109,1.562 0,0 -1.008,-0.347 -1.882,-1.313 -0.7,-0.766 -1.658,-2.539 -3.32,-2.355 -1.506,0.166 -2.414,1.348 -2.891,2.371 -0.345,0.744 -0.412,1.407 -0.415,1.591 -0.005,0.43 -0.005,2.27 0,2.58 0.003,0.209 0.073,0.709 0.289,1.257 0.164,0.465 1.219,1.408 2.382,1.456 1.603,0.065 3.27,-1.753 3.27,-1.753 0,0 2.427,3.64 -1.154,5.655 C 6.162,9.57 4.128,9.02 3.037,8.036 2.408,7.468 1.908,6.839 1.523,6.147 1.054,5.303 0.736,4.383 0.478,3.43 0.369,3.025 0.269,2.612 0.179,2.2 Z"
               style="fill:#ffffff;fill-opacity:1;fill-rule:nonzero;stroke:none"
               id="path860" />
          </g>
          <g
             id="g862"
             transform="translate(638.3586,86.2814)">
            <path
               d="m 0,0 c 0.05,-0.449 -0.018,-6.547 3.809,-10.079 1.026,-0.945 2.168,-1.614 3.57,-1.884 1.328,-0.249 2.813,-0.249 3.968,0.332 3.452,1.74 1.994,5.766 1.488,6.673 -0.515,0.933 -1.241,2.055 -1.455,2.695 -0.282,0.827 -0.109,1.562 -0.109,1.562 0,0 -1.008,-0.347 -1.882,-1.313 -0.7,-0.766 -1.658,-2.539 -3.32,-2.355 -1.506,0.166 -2.414,1.348 -2.891,2.371 -0.345,0.744 -0.412,1.407 -0.415,1.591 -0.005,0.43 -0.005,2.27 0,2.58 0.003,0.209 0.073,0.709 0.289,1.257 0.164,0.465 1.219,1.408 2.382,1.456 1.603,0.065 3.27,-1.753 3.27,-1.753 0,0 2.427,3.64 -1.154,5.655 C 6.162,9.57 4.128,9.02 3.037,8.036 2.408,7.468 1.908,6.839 1.523,6.147 1.054,5.303 0.736,4.383 0.478,3.43 0.369,3.025 0.269,2.612 0.179,2.2 Z"
               style="fill:none;stroke:#2b78c6;stroke-width:0.195;stroke-linecap:butt;stroke-linejoin:miter;stroke-miterlimit:4;stroke-dasharray:none;stroke-opacity:1"
               id="path864" />
          </g>
          <g
             id="g866"
             transform="translate(643.008,88.3927)">
            <path
               d="m 0,0 c 0,1.046 -0.85,1.896 -1.898,1.896 h -8.959 c -1.046,0 -1.898,-0.85 -1.898,-1.896 0,-1.049 0.852,-1.898 1.898,-1.898 h 8.959 C -0.85,-1.898 0,-1.049 0,0"
               style="fill:#ffffff;fill-opacity:1;fill-rule:nonzero;stroke:none"
               id="path868" />
          </g>
          <g
             id="g870"
             transform="translate(643.008,88.3927)">
            <path
               d="m 0,0 c 0,1.046 -0.85,1.896 -1.898,1.896 h -8.959 c -1.046,0 -1.898,-0.85 -1.898,-1.896 0,-1.049 0.852,-1.898 1.898,-1.898 h 8.959 C -0.85,-1.898 0,-1.049 0,0 Z"
               style="fill:none;stroke:#2b78c6;stroke-width:0.195;stroke-linecap:butt;stroke-linejoin:miter;stroke-miterlimit:4;stroke-dasharray:none;stroke-opacity:1"
               id="path872" />
          </g>
          <g
             id="g874"
             transform="translate(634.9084,116.6945)">
            <path
               d="m 0,0 c -0.048,0.45 0.021,6.547 -3.807,10.08 -1.028,0.945 -2.167,1.614 -3.573,1.881 -1.324,0.251 -2.813,0.251 -3.967,-0.33 -3.452,-1.739 -1.994,-5.765 -1.491,-6.675 0.523,-0.931 1.247,-2.052 1.463,-2.693 0.279,-0.83 0.104,-1.564 0.104,-1.564 0,0 1.007,0.35 1.885,1.313 0.697,0.769 1.657,2.542 3.317,2.358 1.508,-0.168 2.414,-1.35 2.891,-2.373 0.347,-0.742 0.412,-1.406 0.417,-1.592 0.005,-0.427 0.005,-2.268 0,-2.577 -0.008,-0.209 -0.075,-0.712 -0.289,-1.26 -0.163,-0.463 -1.22,-1.408 -2.381,-1.456 -1.606,-0.063 -3.271,1.755 -3.271,1.755 0,0 -2.429,-3.64 1.154,-5.655 1.388,-0.781 3.422,-0.231 4.511,0.752 0.631,0.569 1.129,1.195 1.514,1.889 0.472,0.842 0.789,1.765 1.047,2.715 0.107,0.408 0.207,0.817 0.302,1.232 z"
               style="fill:#ffffff;fill-opacity:1;fill-rule:nonzero;stroke:none"
               id="path876" />
          </g>
          <g
             id="g878"
             transform="translate(634.9084,116.6945)">
            <path
               d="m 0,0 c -0.048,0.45 0.021,6.547 -3.807,10.08 -1.028,0.945 -2.167,1.614 -3.573,1.881 -1.324,0.251 -2.813,0.251 -3.967,-0.33 -3.452,-1.739 -1.994,-5.765 -1.491,-6.675 0.523,-0.931 1.247,-2.052 1.463,-2.693 0.279,-0.83 0.104,-1.564 0.104,-1.564 0,0 1.007,0.35 1.885,1.313 0.697,0.769 1.657,2.542 3.317,2.358 1.508,-0.168 2.414,-1.35 2.891,-2.373 0.347,-0.742 0.412,-1.406 0.417,-1.592 0.005,-0.427 0.005,-2.268 0,-2.577 -0.008,-0.209 -0.075,-0.712 -0.289,-1.26 -0.163,-0.463 -1.22,-1.408 -2.381,-1.456 -1.606,-0.063 -3.271,1.755 -3.271,1.755 0,0 -2.429,-3.64 1.154,-5.655 1.388,-0.781 3.422,-0.231 4.511,0.752 0.631,0.569 1.129,1.195 1.514,1.889 0.472,0.842 0.789,1.765 1.047,2.715 0.107,0.408 0.207,0.817 0.302,1.232 z"
               style="fill:none;stroke:#2b78c6;stroke-width:0.195;stroke-linecap:butt;stroke-linejoin:miter;stroke-miterlimit:4;stroke-dasharray:none;stroke-opacity:1"
               id="path880" />
          </g>
          <g
             id="g882"
             transform="translate(638.3586,116.6945)">
            <path
               d="m 0,0 c 0.05,0.45 -0.018,6.547 3.809,10.08 1.026,0.945 2.168,1.614 3.57,1.881 1.328,0.251 2.813,0.251 3.968,-0.33 C 14.799,9.892 13.341,5.866 12.835,4.956 12.32,4.025 11.594,2.904 11.38,2.263 11.098,1.433 11.271,0.699 11.271,0.699 c 0,0 -1.008,0.35 -1.882,1.313 C 8.689,2.781 7.731,4.554 6.069,4.37 4.563,4.202 3.655,3.02 3.178,1.997 2.833,1.255 2.766,0.591 2.763,0.405 c -0.005,-0.427 -0.005,-2.268 0,-2.577 0.003,-0.209 0.073,-0.712 0.289,-1.26 0.164,-0.463 1.219,-1.408 2.382,-1.456 1.603,-0.063 3.27,1.755 3.27,1.755 0,0 2.427,-3.64 -1.154,-5.655 C 6.162,-9.569 4.128,-9.019 3.037,-8.036 2.408,-7.467 1.908,-6.841 1.523,-6.147 1.054,-5.305 0.736,-4.382 0.478,-3.432 0.369,-3.024 0.269,-2.615 0.179,-2.2 Z"
               style="fill:#ffffff;fill-opacity:1;fill-rule:nonzero;stroke:none"
               id="path884" />
          </g>
          <g
             id="g886"
             transform="translate(638.3586,116.6945)">
            <path
               d="m 0,0 c 0.05,0.45 -0.018,6.547 3.809,10.08 1.026,0.945 2.168,1.614 3.57,1.881 1.328,0.251 2.813,0.251 3.968,-0.33 C 14.799,9.892 13.341,5.866 12.835,4.956 12.32,4.025 11.594,2.904 11.38,2.263 11.098,1.433 11.271,0.699 11.271,0.699 c 0,0 -1.008,0.35 -1.882,1.313 C 8.689,2.781 7.731,4.554 6.069,4.37 4.563,4.202 3.655,3.02 3.178,1.997 2.833,1.255 2.766,0.591 2.763,0.405 c -0.005,-0.427 -0.005,-2.268 0,-2.577 0.003,-0.209 0.073,-0.712 0.289,-1.26 0.164,-0.463 1.219,-1.408 2.382,-1.456 1.603,-0.063 3.27,1.755 3.27,1.755 0,0 2.427,-3.64 -1.154,-5.655 C 6.162,-9.569 4.128,-9.019 3.037,-8.036 2.408,-7.467 1.908,-6.841 1.523,-6.147 1.054,-5.305 0.736,-4.382 0.478,-3.432 0.369,-3.024 0.269,-2.615 0.179,-2.2 Z"
               style="fill:none;stroke:#2b78c6;stroke-width:0.195;stroke-linecap:butt;stroke-linejoin:miter;stroke-miterlimit:4;stroke-dasharray:none;stroke-opacity:1"
               id="path888" />
          </g>
          <g
             id="g890"
             transform="translate(643.008,114.5837)">
            <path
               d="m 0,0 c 0,-1.048 -0.85,-1.898 -1.898,-1.898 h -8.959 c -1.046,0 -1.898,0.85 -1.898,1.898 0,1.049 0.852,1.896 1.898,1.896 h 8.959 C -0.85,1.896 0,1.049 0,0"
               style="fill:#ffffff;fill-opacity:1;fill-rule:nonzero;stroke:none"
               id="path892" />
          </g>
          <g
             id="g894"
             transform="translate(643.008,114.5837)">
            <path
               d="m 0,0 c 0,-1.048 -0.85,-1.898 -1.898,-1.898 h -8.959 c -1.046,0 -1.898,0.85 -1.898,1.898 0,1.049 0.852,1.896 1.898,1.896 h 8.959 C -0.85,1.896 0,1.049 0,0 Z"
               style="fill:none;stroke:#2b78c6;stroke-width:0.195;stroke-linecap:butt;stroke-linejoin:miter;stroke-miterlimit:4;stroke-dasharray:none;stroke-opacity:1"
               id="path896" />
          </g>
          <g
             id="g898"
             transform="translate(66.4328,66.5392)">
            <path
               d="M 0,0 V 11.608 C 2.104,9.844 4.39,8.519 6.856,7.636 9.323,6.753 11.814,6.311 14.332,6.311 c 1.473,0 2.763,0.133 3.864,0.4 1.099,0.267 2.019,0.636 2.756,1.106 0.739,0.47 1.287,1.029 1.652,1.669 0.362,0.639 0.542,1.338 0.542,2.087 0,1.016 -0.289,1.921 -0.869,2.721 -0.581,0.8 -1.373,1.536 -2.376,2.213 -1.006,0.676 -2.195,1.33 -3.573,1.958 -1.381,0.631 -2.867,1.272 -4.466,1.924 -4.063,1.692 -7.09,3.761 -9.086,6.203 -1.997,2.443 -2.995,5.395 -2.995,8.852 0,2.708 0.546,5.036 1.635,6.985 1.088,1.948 2.569,3.55 4.445,4.807 1.873,1.258 4.043,2.183 6.512,2.776 2.466,0.593 5.079,0.89 7.835,0.89 2.71,0 5.111,-0.163 7.203,-0.493 2.092,-0.324 4.02,-0.825 5.785,-1.503 V 38.057 c -0.87,0.606 -1.82,1.136 -2.848,1.596 -1.026,0.46 -2.085,0.84 -3.174,1.144 -1.088,0.302 -2.169,0.526 -3.248,0.671 -1.076,0.146 -2.097,0.217 -3.065,0.217 -1.33,0 -2.539,-0.126 -3.628,-0.38 -1.089,-0.254 -2.009,-0.611 -2.758,-1.071 -0.749,-0.46 -1.33,-1.011 -1.74,-1.652 -0.412,-0.639 -0.616,-1.36 -0.616,-2.157 0,-0.87 0.229,-1.65 0.689,-2.341 0.458,-0.689 1.111,-1.34 1.959,-1.959 0.847,-0.615 1.873,-1.222 3.082,-1.813 1.209,-0.593 2.577,-1.202 4.101,-1.834 2.079,-0.871 3.95,-1.796 5.604,-2.774 1.657,-0.98 3.08,-2.087 4.264,-3.321 1.185,-1.233 2.092,-2.643 2.721,-4.227 0.628,-1.585 0.943,-3.427 0.943,-5.532 0,-2.901 -0.551,-5.34 -1.649,-7.309 -1.102,-1.973 -2.595,-3.57 -4.481,-4.79 -1.888,-1.221 -4.083,-2.099 -6.585,-2.632 -2.504,-0.531 -5.147,-0.797 -7.928,-0.797 -2.853,0 -5.569,0.244 -8.146,0.726 C 4.118,-1.694 1.886,-0.968 0,0"
               style="fill:#231f20;fill-opacity:1;fill-rule:nonzero;stroke:none"
               id="path900" />
          </g>
          <g
             id="g902"
             transform="translate(129.9606,64.9767)">
            <path
               d="m 0,0 c -1.695,-0.893 -4.244,-1.34 -7.656,-1.34 -8.079,0 -12.116,4.194 -12.116,12.587 v 17.017 h -6.025 v 8.453 h 6.025 v 8.018 L -8.345,48 V 36.717 H 0 V 28.264 H -8.345 V 13.243 c 0,-3.87 1.536,-5.806 4.609,-5.806 1.206,0 2.453,0.352 3.736,1.054 z"
               style="fill:#231f20;fill-opacity:1;fill-rule:nonzero;stroke:none"
               id="path904" />
          </g>
          <g
             id="g906"
             transform="translate(157.5993,79.6349)">
            <path
               d="m 0,0 v 2.502 l -6.748,-0.87 c -3.724,-0.483 -5.587,-2.165 -5.587,-5.041 0,-1.308 0.453,-2.379 1.36,-3.211 0.908,-0.835 2.135,-1.252 3.683,-1.252 2.153,0 3.905,0.744 5.261,2.23 C -0.679,-4.153 0,-2.272 0,0 M 10.776,-15.094 H -0.073 v 5.336 h -0.146 c -2.491,-4.161 -6.18,-6.24 -11.065,-6.24 -3.603,0 -6.439,1.02 -8.508,3.064 -2.067,2.044 -3.101,4.773 -3.101,8.179 0,7.212 4.267,11.37 12.809,12.482 L 0,9.069 c 0,4.063 -2.2,6.097 -6.603,6.097 -4.427,0 -8.636,-1.319 -12.626,-3.957 v 8.639 c 1.596,0.819 3.779,1.546 6.547,2.175 2.771,0.628 5.293,0.943 7.566,0.943 10.595,0 15.892,-5.282 15.892,-15.856 z"
               style="fill:#231f20;fill-opacity:1;fill-rule:nonzero;stroke:none"
               id="path908" />
          </g>
          <g
             id="g910"
             transform="translate(201.507,82.6105)">
            <path
               d="m 0,0 v 2.793 c 0,2.419 -0.702,4.426 -2.104,6.022 -1.404,1.596 -3.229,2.396 -5.479,2.396 -2.54,0 -4.523,-0.998 -5.949,-2.994 C -14.96,6.223 -15.674,3.482 -15.674,0 c 0,-3.267 0.689,-5.783 2.069,-7.548 1.378,-1.763 3.289,-2.647 5.73,-2.647 2.323,0 4.216,0.929 5.68,2.793 C -0.732,-5.537 0,-3.07 0,0 M 11.246,-18.068 H -0.219 v 5.114 h -0.146 c -2.61,-4.015 -6.444,-6.022 -11.5,-6.022 -4.644,0 -8.381,1.64 -11.209,4.915 -2.831,3.28 -4.247,7.856 -4.247,13.734 0,6.142 1.562,11.065 4.682,14.766 3.12,3.702 7.206,5.552 12.262,5.552 4.79,0 8.127,-1.717 10.012,-5.152 h 0.146 v 22.094 h 11.465 z"
               style="fill:#231f20;fill-opacity:1;fill-rule:nonzero;stroke:none"
               id="path912" />
          </g>
          <g
             id="g914"
             transform="translate(244.8625,64.9767)">
            <path
               d="m 0,0 c -1.695,-0.893 -4.244,-1.34 -7.656,-1.34 -8.079,0 -12.117,4.194 -12.117,12.587 v 17.017 h -6.021 v 8.453 h 6.021 v 8.018 L -8.345,48 V 36.717 H 0 V 28.264 H -8.345 V 13.243 c 0,-3.87 1.536,-5.806 4.609,-5.806 1.209,0 2.453,0.352 3.736,1.054 z"
               style="fill:#231f20;fill-opacity:1;fill-rule:nonzero;stroke:none"
               id="path916" />
          </g>
          <g
             id="g918"
             transform="translate(284.6623,107.0275)">
            <path
               d="m 0,0 v -32.98 h 5.806 c 5.078,0 9.064,1.523 11.952,4.571 2.892,3.047 4.338,7.196 4.338,12.445 0,4.959 -1.433,8.859 -4.3,11.702 C 14.93,-1.421 10.907,0 5.732,0 Z M -11.719,-42.487 V 9.542 H 6.71 c 18.481,0 27.721,-8.454 27.721,-25.359 0,-8.104 -2.522,-14.574 -7.563,-19.413 -5.046,-4.835 -11.762,-7.257 -20.158,-7.257 z"
               style="fill:#231f20;fill-opacity:1;fill-rule:nonzero;stroke:none"
               id="path920" />
          </g>
          <path
             d="m 338.069,64.542 h -11.465 v 37.151 h 11.465 z m -5.66,43.03 c -1.936,0 -3.518,0.574 -4.753,1.723 -1.234,1.149 -1.853,2.559 -1.853,4.226 0,1.72 0.619,3.12 1.853,4.209 1.235,1.089 2.817,1.632 4.753,1.632 1.958,0 3.547,-0.543 4.769,-1.632 1.222,-1.089 1.833,-2.489 1.833,-4.209 0,-1.74 -0.611,-3.168 -1.833,-4.279 -1.222,-1.114 -2.811,-1.67 -4.769,-1.67"
             style="fill:#231f20;fill-opacity:1;fill-rule:nonzero;stroke:none"
             id="path922" />
          <g
             id="g924"
             transform="translate(370.4679,86.8918)">
            <path
               d="m 0,0 c 0,5.319 -2.155,7.982 -6.459,7.982 -1.838,0 -3.427,-0.761 -4.77,-2.288 C -12.572,4.173 -13.389,2.275 -13.678,0 Z m 10.628,-7.038 h -24.235 c 0.387,-5.396 3.786,-8.091 10.197,-8.091 4.086,0 7.68,0.968 10.774,2.903 v -8.271 c -3.434,-1.841 -7.897,-2.758 -13.386,-2.758 -6.001,0 -10.656,1.659 -13.97,4.985 -3.313,3.327 -4.97,7.966 -4.97,13.917 0,6.167 1.79,11.053 5.37,14.656 3.578,3.606 7.981,5.406 13.205,5.406 5.419,0 9.61,-1.609 12.572,-4.825 2.961,-3.216 4.443,-7.58 4.443,-13.097 z"
               style="fill:#231f20;fill-opacity:1;fill-rule:nonzero;stroke:none"
               id="path926" />
          </g>
          <g
             id="g928"
             transform="translate(410.3771,64.9767)">
            <path
               d="m 0,0 c -1.694,-0.893 -4.247,-1.34 -7.656,-1.34 -8.078,0 -12.116,4.194 -12.116,12.587 v 17.017 h -6.025 v 8.453 h 6.025 v 8.018 L -8.345,48 V 36.717 H 0 V 28.264 H -8.345 V 13.243 c 0,-3.87 1.533,-5.806 4.606,-5.806 1.212,0 2.454,0.352 3.739,1.054 z"
               style="fill:#231f20;fill-opacity:1;fill-rule:nonzero;stroke:none"
               id="path930" />
          </g>
          <path
             d="m 428.299,64.542 h -11.465 v 37.151 h 11.465 z m -5.659,43.03 c -1.937,0 -3.521,0.574 -4.752,1.723 -1.235,1.149 -1.851,2.559 -1.851,4.226 0,1.72 0.616,3.12 1.851,4.209 1.231,1.089 2.815,1.632 4.752,1.632 1.958,0 3.55,-0.543 4.769,-1.632 1.222,-1.089 1.833,-2.489 1.833,-4.209 0,-1.74 -0.611,-3.168 -1.833,-4.279 -1.219,-1.114 -2.811,-1.67 -4.769,-1.67"
             style="fill:#231f20;fill-opacity:1;fill-rule:nonzero;stroke:none"
             id="path932" />
          <g
             id="g934"
             transform="translate(475.174,64.5422)">
            <path
               d="m 0,0 h -13.75 l -11.863,18.432 h -0.146 V 0 h -11.465 v 55.002 h 11.465 V 19.991 h 0.146 l 11.065,17.16 H -0.942 L -14.259,19.702 Z"
               style="fill:#231f20;fill-opacity:1;fill-rule:nonzero;stroke:none"
               id="path936" />
          </g>
          <g
             id="g938"
             transform="translate(496.4357,93.8224)">
            <path
               d="m 0,0 c -2.71,0 -4.814,-0.931 -6.313,-2.794 -1.501,-1.863 -2.25,-4.501 -2.25,-7.91 0,-7.136 2.878,-10.703 8.636,-10.703 5.489,0 8.235,3.663 8.235,10.992 C 8.308,-3.473 5.537,0 0,0 m -0.291,-30.187 c -6.193,0 -11.059,1.735 -14.604,5.205 -3.542,3.471 -5.315,8.183 -5.315,14.132 0,6.145 1.838,10.953 5.517,14.422 3.673,3.47 8.646,5.207 14.91,5.207 6.167,0 11.005,-1.737 14.512,-5.207 3.507,-3.469 5.262,-8.06 5.262,-13.768 0,-6.167 -1.809,-11.043 -5.426,-14.62 -3.615,-3.581 -8.568,-5.371 -14.856,-5.371"
               style="fill:#231f20;fill-opacity:1;fill-rule:nonzero;stroke:none"
               id="path940" />
          </g>
          <g
             id="g942"
             transform="translate(559.7443,64.5422)">
            <path
               d="m 0,0 h -11.43 v 20.643 c 0,5.759 -2.054,8.636 -6.165,8.636 -1.984,0 -3.616,-0.762 -4.898,-2.286 -1.284,-1.523 -1.923,-3.46 -1.923,-5.806 V 0 h -11.466 v 37.151 h 11.466 v -5.879 h 0.145 c 2.734,4.526 6.711,6.787 11.936,6.787 C -4.11,38.059 0,32.955 0,22.749 Z"
               style="fill:#231f20;fill-opacity:1;fill-rule:nonzero;stroke:none"
               id="path944" />
          </g>
        </g>
      </g>
    </g>
  </g>
</svg>
