<?xml version="1.0" encoding="UTF-8" standalone="no"?>
<svg
   viewBox="0 0 260.13437 74.584557"
   version="1.1"
   id="svg900"
   sodipodi:docname="swisslos.svg"
   width="260.13437"
   height="74.584557"
   inkscape:version="1.1.1 (c3084ef, 2021-09-22)"
   xmlns:inkscape="http://www.inkscape.org/namespaces/inkscape"
   xmlns:sodipodi="http://sodipodi.sourceforge.net/DTD/sodipodi-0.dtd"
   xmlns="http://www.w3.org/2000/svg"
   xmlns:svg="http://www.w3.org/2000/svg"
   xmlns:rdf="http://www.w3.org/1999/02/22-rdf-syntax-ns#"
   xmlns:cc="http://creativecommons.org/ns#"
   xmlns:dc="http://purl.org/dc/elements/1.1/">
  <sodipodi:namedview
     id="namedview902"
     pagecolor="#505050"
     bordercolor="#ffffff"
     borderopacity="1"
     inkscape:pageshadow="0"
     inkscape:pageopacity="0"
     inkscape:pagecheckerboard="1"
     showgrid="false"
     lock-margins="true"
     fit-margin-top="0"
     fit-margin-left="0"
     fit-margin-right="0"
     fit-margin-bottom="0"
     inkscape:zoom="3.125"
     inkscape:cx="123.84"
     inkscape:cy="37.6"
     inkscape:window-width="2139"
     inkscape:window-height="1107"
     inkscape:window-x="0"
     inkscape:window-y="25"
     inkscape:window-maximized="0"
     inkscape:current-layer="svg900" />
  <defs
     id="defs826">
    <style
       id="style824">.cls-1{fill:#e2001a;}.cls-2{fill:#fff;}.cls-3{fill:#1a171b;}.cls-4{fill:#e8e8e8;}.cls-5{fill:none;}</style>
  </defs>
  <title
     id="title828">Zeichenfläche 4</title>
  <g
     id="Ebene_1"
     data-name="Ebene 1"
     transform="translate(-29.68,-62.465442)">
    <path
       class="cls-1"
       d="M 286.55,83.2 V 66.72 l -4,-1.55 a 34.88,34.88 0 0 0 -12.91,-2.64 c -5.33,0 -10,1.4 -13.47,4 A 15.87,15.87 0 0 0 252.84,70 c -3.62,-4.87 -9.41,-7.49 -17,-7.49 -13.6,0 -21.4,8.39 -21.4,23 0,0.89 0,1.76 0.08,2.61 h -4.38 V 63.07 h -21.29 v 2.36 l -0.67,-0.26 a 35,35 0 0 0 -12.91,-2.64 c -5.34,0 -10,1.4 -13.48,4 l -0.48,0.38 -0.53,-0.21 -4,-1.58 a 35,35 0 0 0 -12.92,-2.64 22,22 0 0 0 -13.47,4 c -0.34,0.26 -0.66,0.55 -1,0.82 V 63.07 H 92.94 l -0.64,5.54 -0.17,1.49 h -8.85 l -0.17,-1.49 -0.65,-5.54 h -21 l 0.18,1.49 a 33.72,33.72 0 0 0 -11.28,-2 22,22 0 0 0 -13.47,4 15.26,15.26 0 0 0 -6.22,11.73 v 0.18 23.57 l 3.08,1.81 a 31.94,31.94 0 0 0 16.59,4.71 c 7.5,0 12.75,-2.37 16,-5.81 L 67,108 h 16 l 1.81,-3.15 2.94,-5.15 3,5.15 1.8,3.15 h 37 v -3 a 31.39,31.39 0 0 0 14.45,3.53 c 6.65,0 11.53,-1.86 14.82,-4.68 a 32,32 0 0 0 16.56,4.68 c 5.86,0 10.35,-1.45 13.58,-3.73 v 3.2 h 35 v -2.4 a 23,23 0 0 0 12,2.94 c 6.62,0 11.85,-2 15.5,-5.71 l 1.71,1 a 31.94,31.94 0 0 0 16.59,4.71 c 13.85,0 20.05,-8.09 20.05,-16.1 a 14.28,14.28 0 0 0 -3.13,-9.28"
       id="path830" />
    <path
       class="cls-2"
       d="m 36.92,89.94 c 4.71,3.29 10.49,5 13.36,5 2.43,0 4.33,-0.54 4.33,-2.43 0,-1.89 -1.41,-2.35 -5.2,-3.51 -6.11,-1.83 -12.22,-3.83 -12.22,-10.7 0,-5.3 4.87,-9.52 13.14,-9.52 A 28.78,28.78 0 0 1 61,71 v 7.63 A 27.65,27.65 0 0 0 50.4,76.25 c -2.6,0 -3.74,0.65 -3.74,2 0,1.35 1.46,1.9 4.44,2.88 6.11,2 13,4.32 13,11.35 0,5.73 -5.08,9.84 -13.79,9.84 A 25.63,25.63 0 0 1 36.9,98.48 v -8.54 z"
       id="path832" />
    <polygon
       class="cls-2"
       points="96.47,87.07 98.52,69.33 106.9,69.33 102.9,101.78 96.09,101.78 87.7,87.13 79.32,101.78 72.5,101.78 68.51,69.33 76.89,69.33 78.94,87.07 85.05,76.36 90.35,76.36 "
       id="polygon834" />
    <polygon
       class="cls-2"
       points="114.42,69.33 123.18,69.33 123.18,101.78 114.42,101.78 "
       id="polygon836" />
    <path
       class="cls-2"
       d="m 130.48,89.94 c 4.7,3.29 10.49,5 13.36,5 2.43,0 4.33,-0.54 4.33,-2.43 0,-1.89 -1.41,-2.35 -5.17,-3.51 -6.11,-1.83 -12.23,-3.83 -12.23,-10.7 0,-5.3 4.87,-9.52 13.14,-9.52 A 28.82,28.82 0 0 1 154.55,71 v 7.63 A 27.65,27.65 0 0 0 144,76.26 c -2.6,0 -3.73,0.65 -3.73,2 0,1.35 1.45,1.9 4.43,2.88 6.11,2 13,4.32 13,11.35 0,5.73 -5.07,9.84 -13.79,9.84 A 25.63,25.63 0 0 1 130.5,98.49 v -8.55 z"
       id="path838" />
    <path
       class="cls-2"
       d="m 161.85,89.94 c 4.71,3.29 10.49,5 13.36,5 2.43,0 4.33,-0.54 4.33,-2.43 0,-1.89 -1.41,-2.32 -5.2,-3.47 -6.11,-1.83 -12.22,-3.83 -12.22,-10.7 0,-5.3 4.87,-9.52 13.15,-9.52 A 28.81,28.81 0 0 1 185.92,71 v 7.63 a 27.66,27.66 0 0 0 -10.61,-2.38 c -2.59,0 -3.72,0.65 -3.72,2 0,1.35 1.46,1.9 4.43,2.88 6.11,2 13,4.32 13,11.35 0,5.73 -5.09,9.84 -13.79,9.84 a 25.64,25.64 0 0 1 -13.42,-3.84 v -8.54 z"
       id="path840" />
    <polygon
       class="cls-2"
       points="195.11,101.78 195.11,69.33 203.87,69.33 203.87,94.42 217.6,94.42 217.6,101.78 "
       id="polygon842" />
    <path
       class="cls-2"
       d="m 235.83,102.32 c -11.2,0 -15.14,-6.81 -15.14,-16.76 0,-9.95 3.94,-16.77 15.14,-16.77 11.2,0 15.17,6.82 15.17,16.77 0,9.95 -3.94,16.76 -15.14,16.76"
       id="path844" />
    <path
       class="cls-1"
       d="m 235.83,75.87 c -5.09,0 -6.38,3.74 -6.38,9.69 0,5.95 1.29,9.73 6.38,9.73 5.09,0 6.38,-3.73 6.38,-9.73 0,-6 -1.3,-9.69 -6.38,-9.69"
       id="path846" />
    <path
       class="cls-2"
       d="m 256.22,89.94 c 4.71,3.29 10.49,5 13.36,5 2.43,0 4.32,-0.54 4.32,-2.43 0,-1.89 -1.4,-2.32 -5.19,-3.47 -6.11,-1.83 -12.22,-3.83 -12.22,-10.7 0,-5.3 4.87,-9.52 13.14,-9.52 A 28.82,28.82 0 0 1 280.29,71 v 7.63 a 27.66,27.66 0 0 0 -10.61,-2.38 c -2.59,0 -3.73,0.65 -3.73,2 0,1.35 1.46,1.9 4.44,2.88 6.11,2 13,4.32 13,11.35 0,5.73 -5.08,9.84 -13.79,9.84 a 25.6,25.6 0 0 1 -13.41,-3.84 v -8.54 z"
       id="path848" />
    <path
       class="cls-3"
       d="m 40.16,120.84 c -0.25,-2.36 -1.82,-3.37 -4.08,-3.37 -1.85,0 -3.7,0.67 -3.7,2.82 0,2.15 2.63,2.33 5.29,2.93 2.66,0.6 5.26,1.52 5.26,4.75 0,3.51 -3.44,4.92 -6.44,4.92 -3.69,0 -6.81,-1.8 -6.81,-5.82 h 2.08 c 0,2.77 2.31,4 4.8,4 2,0 4.18,-0.62 4.18,-3 0,-2.38 -2.63,-2.65 -5.26,-3.23 -2.63,-0.58 -5.29,-1.34 -5.29,-4.36 0,-3.35 3,-4.83 6,-4.83 3.37,0 5.93,1.59 6.07,5.22 z"
       id="path850" />
    <path
       class="cls-3"
       d="M 50.65,122 C 48,122 47,124.28 47,126.52 c 0,2.24 1.06,4.48 3.76,4.48 2.7,0 3.58,-2.28 3.58,-4.61 0,-2.33 -1.15,-4.39 -3.69,-4.39 z m -5.55,-1.46 h 2 v 1.62 0 a 4,4 0 0 1 3.81,-1.89 c 3.67,0 5.5,2.9 5.5,6.28 0,3.38 -1.8,6.21 -5.45,6.21 a 4.61,4.61 0 0 1 -3.86,-1.87 v 0 6.16 h -2 v -16.49 z"
       id="path852" />
    <path
       class="cls-3"
       d="m 63.64,131 c 2.06,0 3.72,-1.61 3.72,-4.5 0,-2.89 -1.66,-4.5 -3.72,-4.5 -2.06,0 -3.71,1.61 -3.71,4.52 0,2.91 1.66,4.5 3.71,4.5 z m 0,-10.75 c 3.79,0 5.8,2.74 5.8,6.25 0,3.51 -2,6.24 -5.8,6.24 -3.8,0 -5.79,-2.75 -5.79,-6.24 0,-3.49 2,-6.25 5.79,-6.25 z"
       id="path854" />
    <path
       class="cls-3"
       d="m 71.45,120.56 h 1.85 v 2.52 0 a 4.33,4.33 0 0 1 4.39,-2.79 v 2.07 c -3.16,0 -4.32,1.8 -4.32,4.83 v 5.31 h -2 v -11.94 z"
       id="path856" />
    <path
       class="cls-3"
       d="m 81.7,120.56 h 2.38 v 1.73 H 81.7 v 7.42 c 0,0.9 0.25,1.06 1.48,1.06 h 0.9 v 1.73 h -1.5 c -2,0 -2.84,-0.42 -2.84,-2.61 v -7.6 h -2 v -1.73 h 2 V 117 h 2 v 3.58 z"
       id="path858" />
    <path
       class="cls-3"
       d="m 86.83,122.29 h -2 v -1.73 h 2 v -1.78 c 0,-1.94 1.15,-3 3.3,-3 a 5.06,5.06 0 0 1 1.27,0.18 v 1.71 a 3.87,3.87 0 0 0 -1.11,-0.16 c -1,0 -1.5,0.3 -1.5,1.34 v 1.66 h 2.31 v 1.73 h -2.31 v 10.26 h -2 v -10.21 z"
       id="path860" />
    <path
       class="cls-3"
       d="m 97.77,131 c 2,0 3.72,-1.61 3.72,-4.5 0,-2.89 -1.67,-4.5 -3.72,-4.5 -2.05,0 -3.72,1.61 -3.72,4.52 0,2.91 1.67,4.5 3.72,4.5 z m 0,-10.75 c 3.79,0 5.79,2.74 5.79,6.25 0,3.51 -2,6.24 -5.79,6.24 -3.79,0 -5.77,-2.74 -5.77,-6.2 0,-3.46 2,-6.25 5.8,-6.25 z"
       id="path862" />
    <path
       class="cls-3"
       d="m 105.64,120.56 h 1.85 v 1.9 h 0.05 a 4.15,4.15 0 0 1 3.88,-2.17 c 3.14,0 4.11,1.8 4.11,4.36 v 7.85 h -2 v -8.08 a 2.24,2.24 0 0 0 -2.42,-2.4 c -2.38,0 -3.53,1.59 -3.53,3.74 v 6.74 h -2 v -11.94 z"
       id="path864" />
    <path
       class="cls-3"
       d="m 123.38,131 c 2.63,0 3.64,-2.26 3.64,-4.5 0,-2.24 -1.02,-4.5 -3.76,-4.5 -2.74,0 -3.58,2.28 -3.58,4.61 0,2.33 1.16,4.41 3.7,4.41 z m 5.54,1.46 h -2 v -1.62 0 a 4,4 0 0 1 -3.81,1.9 c -3.67,0 -5.5,-2.91 -5.5,-6.28 0,-3.37 1.8,-6.21 5.45,-6.21 a 4.57,4.57 0 0 1 3.86,1.87 v 0 -6.12 h 2 v 16.5 z"
       id="path866" />
    <path
       class="cls-3"
       d="m 132.91,128.74 c 0.07,1.75 1.59,2.3 3.21,2.3 1.22,0 2.89,-0.27 2.89,-1.77 0,-1.5 -1.94,-1.78 -3.9,-2.22 -1.96,-0.44 -3.91,-1.09 -3.91,-3.37 0,-2.28 2.38,-3.39 4.46,-3.39 2.63,0 4.73,0.83 4.89,3.74 h -2 c -0.14,-1.53 -1.48,-2 -2.77,-2 -1.29,0 -2.54,0.32 -2.54,1.52 0,1.41 2.08,1.64 3.9,2.08 2,0.44 3.9,1.08 3.9,3.39 0,2.84 -2.65,3.77 -5.08,3.77 -2.67,0 -4.94,-1.09 -5.05,-4 z"
       id="path868" />
    <polygon
       class="cls-3"
       points="151.73,124.23 160.09,116.01 162.93,116.01 155.98,122.66 163.2,132.5 160.43,132.5 154.48,124.16 151.73,126.73 151.73,132.5 149.54,132.5 149.54,116.01 151.73,116.01 "
       id="polygon870" />
    <path
       class="cls-3"
       d="m 171.77,126.33 c -0.76,0.56 -2.24,0.58 -3.56,0.81 -1.32,0.23 -2.4,0.7 -2.4,2.15 0,1.29 1.11,1.75 2.31,1.75 2.59,0 3.65,-1.61 3.65,-2.7 v -2 z m 3.19,6.12 a 2.65,2.65 0 0 1 -1.41,0.33 c -1,0 -1.66,-0.56 -1.66,-1.85 a 5.31,5.31 0 0 1 -4.21,1.85 c -2.17,0 -3.94,-1 -3.94,-3.35 0,-2.7 2,-3.28 4,-3.67 2,-0.39 4,-0.28 4,-1.76 0,-1.71 -1.4,-2 -2.65,-2 -1.66,0 -2.89,0.5 -3,2.26 h -2 c 0.11,-3 2.4,-4 5.05,-4 2.15,0 4.48,0.48 4.48,3.27 v 6.15 c 0,0.92 0,1.33 0.63,1.33 a 1.74,1.74 0 0 0 0.6,-0.11 v 1.52 z"
       id="path872" />
    <path
       class="cls-3"
       d="m 176.55,120.56 h 1.85 v 1.9 0 a 4.16,4.16 0 0 1 3.88,-2.17 c 3.14,0 4.11,1.8 4.11,4.36 v 7.85 h -2 v -8.08 A 2.25,2.25 0 0 0 182,122 c -2.37,0 -3.53,1.59 -3.53,3.74 v 6.74 h -2 v -11.92 z"
       id="path874" />
    <path
       class="cls-3"
       d="m 191.88,120.56 h 2.38 v 1.73 h -2.38 v 7.42 c 0,0.9 0.26,1.06 1.48,1.06 h 0.9 v 1.73 h -1.5 c -2,0 -2.84,-0.42 -2.84,-2.61 v -7.6 h -2 v -1.73 h 2 V 117 h 2 v 3.58 z"
       id="path876" />
    <path
       class="cls-3"
       d="m 201.35,131 c 2.05,0 3.72,-1.61 3.72,-4.5 0,-2.89 -1.67,-4.5 -3.72,-4.5 -2.05,0 -3.72,1.61 -3.72,4.52 0,2.91 1.66,4.5 3.72,4.5 z m 0,-10.75 c 3.78,0 5.79,2.74 5.79,6.25 0,3.51 -2,6.24 -5.79,6.24 -3.79,0 -5.8,-2.75 -5.8,-6.24 0,-3.49 2,-6.25 5.8,-6.25 z"
       id="path878" />
    <path
       class="cls-3"
       d="m 209.22,120.56 h 1.85 v 1.9 0 a 4.16,4.16 0 0 1 3.88,-2.17 c 3.14,0 4.11,1.8 4.11,4.36 v 7.85 h -2 v -8.08 a 2.24,2.24 0 0 0 -2.42,-2.4 c -2.38,0 -3.54,1.59 -3.54,3.74 v 6.74 h -2 v -11.94 z"
       id="path880" />
    <polygon
       class="cls-3"
       points="227.83,117.86 227.83,116.01 239.88,116.01 239.88,117.86 229.66,130.65 240.16,130.65 240.16,132.5 227.05,132.5 227.05,130.65 237.3,117.86 "
       id="polygon882" />
    <path
       class="cls-3"
       d="m 248,116.43 h 2 v 2.4 h -2 z m -4.35,0 h 2.08 v 2.4 h -2.08 z m 8.16,16.07 h -1.85 v -1.89 h -0.05 a 4.17,4.17 0 0 1 -3.88,2.17 c -3.14,0 -4.11,-1.8 -4.11,-4.37 v -7.85 h 2 v 8.08 a 2.24,2.24 0 0 0 2.42,2.4 c 2.38,0 3.53,-1.59 3.53,-3.74 v -6.74 h 2 v 11.94 z"
       id="path884" />
    <path
       class="cls-3"
       d="m 254.43,120.56 h 1.85 v 2.52 0 a 4.34,4.34 0 0 1 4.39,-2.79 v 2.07 c -3.16,0 -4.32,1.8 -4.32,4.83 v 5.31 h -2 v -11.94 z"
       id="path886" />
    <path
       class="cls-3"
       d="m 262.07,120.56 h 2 v 11.94 h -2 z m 2,-2.14 h -2 V 116 h 2 v 2.41 z"
       id="path888" />
    <path
       class="cls-3"
       d="m 275,124.4 a 2.77,2.77 0 0 0 -3,-2.38 c -2.84,0 -3.72,2.24 -3.72,4.66 0,2.19 1,4.36 3.49,4.36 a 3.09,3.09 0 0 0 3.28,-2.9 h 2 a 5,5 0 0 1 -5.27,4.64 c -3.64,0 -5.59,-2.54 -5.59,-6.1 0,-3.56 1.85,-6.39 5.64,-6.39 2.7,0 4.87,1.26 5.15,4.11 z"
       id="path890" />
    <path
       class="cls-3"
       d="m 279,116 h 2 v 6.31 0 a 4,4 0 0 1 3.76,-2 c 3.14,0 4.11,1.8 4.11,4.36 v 7.85 h -2 v -8.08 a 2.25,2.25 0 0 0 -2.43,-2.4 c -2.37,0 -3.53,1.59 -3.53,3.74 v 6.74 h -2 V 116 Z"
       id="path892" />
  </g>
  <metadata
     id="metadata984">
    <rdf:RDF>
      <cc:Work
         rdf:about="">
        <dc:title>Zeichenfläche 4</dc:title>
      </cc:Work>
    </rdf:RDF>
  </metadata>
</svg>
