<?xml version="1.0" encoding="UTF-8" standalone="no"?>
<!-- Created with Inkscape (http://www.inkscape.org/) -->

<svg
   version="1.1"
   id="svg84790"
   xml:space="preserve"
   width="224.37253"
   height="61.560665"
   viewBox="0 0 224.37253 61.560664"
   sodipodi:docname="treier.svg"
   inkscape:version="1.1.1 (c3084ef, 2021-09-22)"
   xmlns:inkscape="http://www.inkscape.org/namespaces/inkscape"
   xmlns:sodipodi="http://sodipodi.sourceforge.net/DTD/sodipodi-0.dtd"
   xmlns="http://www.w3.org/2000/svg"
   xmlns:svg="http://www.w3.org/2000/svg"><defs
     id="defs84794"><clipPath
       clipPathUnits="userSpaceOnUse"
       id="clipPath84816"><path
         d="M 0,0 H 595.276 V 841.89 H 0 Z"
         id="path84814" /></clipPath><clipPath
       clipPathUnits="userSpaceOnUse"
       id="clipPath84824"><path
         d="M 302.307,236.039 H 553.756 V 35.8504 H 302.307 Z"
         id="path84822" /></clipPath><clipPath
       clipPathUnits="userSpaceOnUse"
       id="clipPath84852"><path
         d="m 436.535,51.732 h 91.658 V 70.84 h -91.658 z"
         id="path84850" /></clipPath><clipPath
       clipPathUnits="userSpaceOnUse"
       id="clipPath84924"><path
         d="M 0,0 H 595.276 V 841.89 H 0 Z"
         id="path84922" /></clipPath><clipPath
       clipPathUnits="userSpaceOnUse"
       id="clipPath84950"><path
         d="M 0,0 H 595.276 V 841.89 H 0 Z"
         id="path84948" /></clipPath><clipPath
       clipPathUnits="userSpaceOnUse"
       id="clipPath84966"><path
         d="M 0,0 H 595.276 V 841.89 H 0 Z"
         id="path84964" /></clipPath><clipPath
       clipPathUnits="userSpaceOnUse"
       id="clipPath85002"><path
         d="M 0,0 H 595.276 V 841.89 H 0 Z"
         id="path85000" /></clipPath><clipPath
       clipPathUnits="userSpaceOnUse"
       id="clipPath85034"><path
         d="M 0,0 H 595.276 V 841.89 H 0 Z"
         id="path85032" /></clipPath><clipPath
       clipPathUnits="userSpaceOnUse"
       id="clipPath85058"><path
         d="M 0,0 H 595.276 V 841.89 H 0 Z"
         id="path85056" /></clipPath><clipPath
       clipPathUnits="userSpaceOnUse"
       id="clipPath85074"><path
         d="M 0,0 H 595.276 V 841.89 H 0 Z"
         id="path85072" /></clipPath><clipPath
       clipPathUnits="userSpaceOnUse"
       id="clipPath85102"><path
         d="M 0,0 H 595.276 V 841.89 H 0 Z"
         id="path85100" /></clipPath><clipPath
       clipPathUnits="userSpaceOnUse"
       id="clipPath85126"><path
         d="M 0,0 H 595.276 V 841.89 H 0 Z"
         id="path85124" /></clipPath><clipPath
       clipPathUnits="userSpaceOnUse"
       id="clipPath85142"><path
         d="M 0,0 H 595.276 V 841.89 H 0 Z"
         id="path85140" /></clipPath><clipPath
       clipPathUnits="userSpaceOnUse"
       id="clipPath85170"><path
         d="M 0,0 H 595.276 V 841.89 H 0 Z"
         id="path85168" /></clipPath><clipPath
       clipPathUnits="userSpaceOnUse"
       id="clipPath85192"><path
         d="M 0,0 H 595.276 V 841.89 H 0 Z"
         id="path85190" /></clipPath><clipPath
       clipPathUnits="userSpaceOnUse"
       id="clipPath85214"><path
         d="M 0,0 H 595.276 V 841.89 H 0 Z"
         id="path85212" /></clipPath><clipPath
       clipPathUnits="userSpaceOnUse"
       id="clipPath85226"><path
         d="m 318.359,53.15 h 40.108 v 40.107 h -40.108 z"
         id="path85224" /></clipPath><clipPath
       clipPathUnits="userSpaceOnUse"
       id="clipPath85238"><path
         d="M 338.231,93.256 C 327.239,93.159 318.359,84.219 318.359,73.203 v 0 c 0,-11.075 8.978,-20.053 20.054,-20.053 v 0 c 11.075,0 20.053,8.978 20.053,20.053 v 0 c 0,11.016 -8.88,19.956 -19.872,20.053 v 0 z"
         id="path85236" /></clipPath><clipPath
       clipPathUnits="userSpaceOnUse"
       id="clipPath85250"><path
         d="m 318.359,53.15 h 40.108 v 40.107 h -40.108 z"
         id="path85248" /></clipPath><clipPath
       clipPathUnits="userSpaceOnUse"
       id="clipPath85366"><path
         d="m 336.355,76.251 c -0.238,-0.001 -0.479,-0.002 -0.719,-0.004 v 0 c -0.24,-0.001 -0.482,-0.002 -0.723,-0.004 v 0 c -0.241,0 -0.482,-10e-4 -0.721,-0.003 v 0 c -0.478,-0.002 -0.952,-0.005 -1.413,-0.006 v 0 c -0.459,-0.003 -0.907,-0.005 -1.334,-0.007 v 0 c -0.426,-0.002 -0.832,-0.004 -1.21,-0.006 v 0 c -0.378,-0.002 -0.727,-0.004 -1.041,-0.005 v 0 c 0.005,-0.012 0.013,-0.023 0.025,-0.031 v 0 c 0.013,-0.009 0.027,-0.016 0.046,-0.022 v 0 c 0.018,-0.006 0.039,-0.01 0.063,-0.013 v 0 c 0.023,-0.004 0.05,-0.005 0.078,-0.005 v 0 c 1.612,0.009 3.224,0.016 4.836,0.023 v 0 c 1.007,0.005 2.015,0.01 3.023,0.015 v 0 c -0.028,0 -0.054,10e-4 -0.077,0.004 v 0 c -0.023,0.003 -0.043,0.007 -0.061,0.013 v 0 c -0.017,0.007 -0.031,0.014 -0.042,0.023 v 0 c -0.011,0.009 -0.018,0.02 -0.021,0.031 v 0 c -0.235,-0.001 -0.47,-0.001 -0.709,-0.003"
         id="path85364" /></clipPath><clipPath
       clipPathUnits="userSpaceOnUse"
       id="clipPath85394"><path
         d="m 328.543,78.369 c 0.027,0.02 0.058,0.04 0.091,0.06 v 0 c 0.033,0.02 0.069,0.038 0.108,0.057 v 0 c 0.039,0.019 0.08,0.038 0.123,0.055 v 0 c 0.044,0.018 0.089,0.035 0.136,0.051 v 0 l 5.714,4.172 c -0.006,0.014 -0.01,0.027 -0.015,0.038 v 0 c -0.003,0.011 -0.007,0.02 -0.011,0.026 v 0 c -0.002,0.007 -0.004,0.012 -0.006,0.016 v 0 c -0.002,0.003 -0.003,0.005 -0.004,0.005 v 0 c -2.045,-1.494 -4.09,-2.987 -6.136,-4.48"
         id="path85392" /></clipPath><clipPath
       clipPathUnits="userSpaceOnUse"
       id="clipPath85498"><path
         d="m 346.915,83.08 c 0.002,0 0.004,0 0.006,0 v 0 c -0.002,0 -0.004,0 -0.006,0 m -12.236,-0.231 c 0.001,0 0.002,-0.002 0.004,-0.006 v 0 c 0.002,-0.003 0.004,-0.009 0.007,-0.016 v 0 c 0.003,-0.007 0.007,-0.015 0.011,-0.026 v 0 c 0.004,-0.011 0.008,-0.024 0.014,-0.037 v 0 l 11.996,0.224 c 0.019,0.015 0.038,0.029 0.057,0.04 v 0 c 0.02,0.011 0.038,0.02 0.056,0.029 v 0 c 0.018,0.007 0.035,0.013 0.051,0.017 v 0 c 0.014,0.003 0.028,0.005 0.04,0.006 v 0 c -4.078,-0.078 -8.157,-0.154 -12.236,-0.231"
         id="path85496" /></clipPath><clipPath
       clipPathUnits="userSpaceOnUse"
       id="clipPath85594"><path
         d="m 335.763,78.232 c -0.245,-0.002 -0.491,-0.005 -0.739,-0.007 v 0 c -0.247,-0.002 -0.495,-0.004 -0.742,-0.007 v 0 c -0.248,-0.002 -0.495,-0.004 -0.741,-0.006 v 0 c -0.492,-0.005 -0.978,-0.009 -1.452,-0.014 v 0 c -0.471,-0.004 -0.931,-0.008 -1.37,-0.012 v 0 c -0.437,-0.004 -0.855,-0.008 -1.242,-0.011 v 0 c -0.388,-0.004 -0.747,-0.007 -1.069,-0.01 v 0 l 0.786,-1.949 c 0.314,0.001 0.663,0.003 1.041,0.005 v 0 c 0.378,0.002 0.784,0.004 1.21,0.006 v 0 c 0.427,0.002 0.875,0.004 1.334,0.007 v 0 c 0.461,0.001 0.935,0.004 1.413,0.006 v 0 c 0.239,0.002 0.48,0.003 0.721,0.003 v 0 c 0.241,0.002 0.483,0.003 0.723,0.004 v 0 c 0.24,0.002 0.481,0.003 0.719,0.004 v 0 c 0.239,0.002 0.474,0.002 0.709,0.003 v 0 l -0.573,1.985 c -0.24,-0.003 -0.483,-0.005 -0.728,-0.007"
         id="path85592" /></clipPath><clipPath
       clipPathUnits="userSpaceOnUse"
       id="clipPath85606"><path
         d="m 336.009,78.662 c -0.337,-0.004 -0.645,-0.006 -0.934,-0.009 v 0 c -0.288,-0.004 -0.556,-0.007 -0.814,-0.009 v 0 c -0.258,-0.002 -0.506,-0.005 -0.753,-0.007 v 0 c -0.491,-0.005 -0.978,-0.01 -1.442,-0.015 v 0 c -0.463,-0.004 -0.903,-0.009 -1.303,-0.012 v 0 c -0.398,-0.005 -0.755,-0.008 -1.055,-0.011 v 0 c -0.3,-0.003 -0.541,-0.006 -0.707,-0.007 v 0 c -0.092,-0.031 -0.179,-0.067 -0.255,-0.104 v 0 c -0.078,-0.037 -0.144,-0.076 -0.197,-0.115 v 0 c -0.054,-0.039 -0.095,-0.077 -0.119,-0.113 v 0 c -0.025,-0.035 -0.033,-0.067 -0.022,-0.095 v 0 c 0.322,0.003 0.681,0.006 1.069,0.01 v 0 c 0.387,0.003 0.805,0.007 1.242,0.011 v 0 c 0.439,0.004 0.899,0.008 1.37,0.012 v 0 c 0.474,0.005 0.96,0.009 1.452,0.014 v 0 c 0.246,0.002 0.493,0.004 0.741,0.006 v 0 c 0.247,0.003 0.495,0.005 0.742,0.007 v 0 c 0.248,0.002 0.494,0.005 0.739,0.007 v 0 c 0.245,0.002 0.488,0.004 0.728,0.007 v 0 c -0.008,0.028 0.004,0.061 0.031,0.097 v 0 c 0.028,0.036 0.071,0.076 0.128,0.114 v 0 c 0.056,0.04 0.126,0.079 0.205,0.117 v 0 c 0.079,0.038 0.167,0.074 0.262,0.107 v 0 c -0.405,-0.005 -0.771,-0.009 -1.108,-0.012"
         id="path85604" /></clipPath><clipPath
       clipPathUnits="userSpaceOnUse"
       id="clipPath85846"><path
         d="m 346.601,70.427 c 0,-0.003 0,-0.006 10e-4,-0.007 v 0 c 0,-0.003 0,-0.005 0,-0.008 v 0 c 0,-0.001 0,-0.003 0,-0.004 v 0 c 0.234,3.486 0.467,6.971 0.7,10.456 v 0 c 10e-4,0.003 10e-4,0.006 10e-4,0.008 v 0 c 0,0.003 0,0.006 0,0.009 v 0 c 0,0.003 0,0.006 -10e-4,0.008 v 0 c 0,0.003 0,0.006 0,0.008 v 0 z m 10e-4,-0.028 c 0,0.003 0.001,0.004 0.001,0.007 v 0 c 0,10e-4 -0.001,10e-4 -0.001,0.002 v 0 c 0,-0.003 0,-0.006 0,-0.009"
         id="path85844" /></clipPath><clipPath
       clipPathUnits="userSpaceOnUse"
       id="clipPath85870"><path
         d="m 336.969,78.619 c -0.047,-0.02 -0.092,-0.04 -0.133,-0.061 v 0 c -0.043,-0.02 -0.081,-0.042 -0.117,-0.063 v 0 c -0.036,-0.021 -0.068,-0.043 -0.097,-0.065 v 0 c -3.609,-2.7 -7.217,-5.4 -10.826,-8.101 v 0 c 0.013,0.009 0.029,0.018 0.046,0.026 v 0 c 0.018,0.007 0.038,0.014 0.06,0.02 v 0 c 0.022,0.004 0.046,0.009 0.072,0.011 v 0 c 0.026,0.003 0.053,0.004 0.082,0.004 v 0 l 11.061,8.284 c -0.051,-0.018 -0.1,-0.037 -0.148,-0.055"
         id="path85868" /></clipPath><clipPath
       clipPathUnits="userSpaceOnUse"
       id="clipPath85978"><path
         d="m 330.263,64.407 c 0.005,-0.009 0.009,-0.017 0.014,-0.024 v 0 c 0.005,-0.005 0.009,-0.01 0.015,-0.012 v 0 c 0.005,-0.002 0.01,-0.003 0.015,-0.002 v 0 c 0.006,0.001 0.01,0.003 0.015,0.007 v 0 c 3.556,2.764 7.11,5.527 10.664,8.29 v 0 c -0.012,-0.009 -0.024,-0.016 -0.034,-0.021 v 0 c -0.009,-0.005 -0.019,-0.008 -0.027,-0.008 v 0 c -0.008,0 -0.015,0.003 -0.02,0.008 v 0 c -0.006,0.005 -0.009,0.013 -0.012,0.024 v 0 z"
         id="path85976" /></clipPath><clipPath
       clipPathUnits="userSpaceOnUse"
       id="clipPath86030"><path
         d="m 326.668,68.38 c 0.002,-0.002 0.004,-0.006 0.006,-0.009 v 0 c 0.003,-0.003 0.004,-0.005 0.007,-0.008 v 0 c 0.002,-0.003 0.005,-0.005 0.006,-0.008 v 0 c 1.197,-1.324 2.394,-2.649 3.59,-3.973 v 0 c 0,10e-4 0,0.003 -10e-4,0.004 v 0 c -0.002,0.002 -0.003,0.004 -0.005,0.006 v 0 c -0.001,0.002 -0.003,0.005 -0.003,0.007 v 0 c -0.002,0.002 -0.003,0.005 -0.005,0.008 v 0 l -3.599,3.981 c 0.002,-0.002 0.003,-0.005 0.004,-0.008 m 3.611,-3.999 c 0,0.001 -10e-4,0.001 -0.002,0.001 v 0 c 0.001,0 0.002,0 0.002,-0.001"
         id="path86028" /></clipPath><clipPath
       clipPathUnits="userSpaceOnUse"
       id="clipPath86042"><path
         d="m 340.107,65.237 c 0.003,-0.009 0.007,-0.015 0.012,-0.018 v 0 c 0.005,-0.005 0.011,-0.007 0.018,-0.007 v 0 c 0.007,10e-4 0.015,0.004 0.025,0.008 v 0 c 0.009,0.005 0.019,0.012 0.03,0.021 v 0 c 2.127,1.7 4.253,3.4 6.38,5.1 v 0 c 0.006,0.005 0.012,0.01 0.015,0.016 v 0 c 0.005,0.006 0.008,0.012 0.01,0.019 v 0 c 0.003,0.008 0.005,0.016 0.005,0.024 v 0 c 0.001,0.008 0,0.017 -10e-4,0.027 v 0 z"
         id="path86040" /></clipPath><clipPath
       clipPathUnits="userSpaceOnUse"
       id="clipPath86094"><path
         d="m 318.359,53.15 h 40.108 v 40.107 h -40.108 z"
         id="path86092" /></clipPath><clipPath
       clipPathUnits="userSpaceOnUse"
       id="clipPath86106"><path
         d="m 346.923,83.08 c -0.029,0 -0.062,-0.008 -0.098,-0.023 v 0 c -0.036,-0.016 -0.075,-0.038 -0.114,-0.069 v 0 l -0.746,-10.327 c 0.04,-0.015 0.079,-0.034 0.114,-0.056 v 0 c 0.036,-0.023 0.069,-0.049 0.098,-0.076 v 0 c 0.03,-0.028 0.054,-0.056 0.072,-0.085 v 0 c 0.019,-0.03 0.03,-0.059 0.035,-0.087 v 0 l 0.743,10.635 c -0.003,0.029 -0.015,0.052 -0.033,0.066 v 0 c -0.018,0.015 -0.041,0.022 -0.069,0.022 v 0 z"
         id="path86104" /></clipPath><clipPath
       clipPathUnits="userSpaceOnUse"
       id="clipPath86222"><path
         d="m 318.359,53.15 h 40.108 v 40.107 h -40.108 z"
         id="path86220" /></clipPath><clipPath
       clipPathUnits="userSpaceOnUse"
       id="clipPath86242"><path
         d="m 326.049,70.39 c -0.051,0 -0.097,-0.005 -0.136,-0.014 v 0 c -0.042,-0.009 -0.077,-0.022 -0.104,-0.039 v 0 c -0.026,-0.016 -0.045,-0.036 -0.053,-0.059 v 0 c -0.008,-0.022 -0.007,-0.046 0.006,-0.073 v 0 l 3.678,-4.039 c -0.012,0.025 -0.021,0.059 -0.028,0.099 v 0 c -0.008,0.041 -0.012,0.087 -0.014,0.136 v 0 c -0.002,0.05 -0.001,0.103 0.002,0.156 v 0 c 0.004,0.053 0.01,0.106 0.019,0.156 v 0 l -3.363,3.677 c -0.002,0 -0.005,0 -0.007,0"
         id="path86240" /></clipPath><clipPath
       clipPathUnits="userSpaceOnUse"
       id="clipPath86362"><path
         d="m 329.419,66.713 c -0.009,-0.05 -0.015,-0.103 -0.019,-0.156 v 0 c -0.003,-0.053 -0.004,-0.106 -0.002,-0.156 v 0 c 0.002,-0.049 0.006,-0.095 0.014,-0.136 v 0 c 0.007,-0.04 0.016,-0.074 0.028,-0.099 v 0 l 10.975,8.448 c -0.007,0.027 -0.004,0.07 0.008,0.123 v 0 c 0.011,0.053 0.032,0.116 0.058,0.186 v 0 c 0.027,0.07 0.06,0.146 0.099,0.225 v 0 c 0.038,0.079 0.083,0.159 0.13,0.238 v 0 z"
         id="path86360" /></clipPath><clipPath
       clipPathUnits="userSpaceOnUse"
       id="clipPath86610"><path
         d="m 318.359,53.15 h 40.108 v 40.107 h -40.108 z"
         id="path86608" /></clipPath><clipPath
       clipPathUnits="userSpaceOnUse"
       id="clipPath86622"><path
         d="m 339.891,67.861 c -0.05,-0.086 -0.097,-0.174 -0.137,-0.258 v 0 c -0.041,-0.084 -0.077,-0.165 -0.105,-0.239 v 0 c -0.028,-0.074 -0.048,-0.139 -0.061,-0.193 v 0 c -0.012,-0.054 -0.014,-0.097 -0.007,-0.123 v 0 l 6.703,5.309 c -0.005,0.028 -0.016,0.057 -0.035,0.087 v 0 c -0.018,0.029 -0.042,0.057 -0.072,0.085 v 0 c -0.029,0.027 -0.062,0.053 -0.098,0.076 v 0 c -0.035,0.022 -0.074,0.041 -0.114,0.056 v 0 z"
         id="path86620" /></clipPath><clipPath
       clipPathUnits="userSpaceOnUse"
       id="clipPath86870"><path
         d="m 340.599,75.184 c -0.035,-0.066 -0.065,-0.132 -0.091,-0.194 v 0 c -0.026,-0.062 -0.048,-0.121 -0.064,-0.173 v 0 c -0.016,-0.052 -0.026,-0.099 -0.031,-0.136 v 0 c -0.277,-2.519 -0.555,-5.039 -0.833,-7.558 v 0 c 0.004,0.036 0.015,0.08 0.031,0.13 v 0 c 0.017,0.054 0.039,0.116 0.066,0.181 v 0 c 0.028,0.066 0.06,0.136 0.096,0.208 v 0 c 0.036,0.072 0.076,0.146 0.118,0.219 v 0 c 0.035,0.323 0.083,0.764 0.141,1.293 v 0 c 0.057,0.526 0.124,1.138 0.197,1.808 v 0 c 0.072,0.664 0.151,1.385 0.232,2.136 v 0 c 0.081,0.742 0.165,1.514 0.249,2.288 v 0 c -0.04,-0.067 -0.077,-0.135 -0.111,-0.202 m -1.02,-8.071 c 0,0.003 10e-4,0.007 10e-4,0.01 v 0 c 0,-0.004 -10e-4,-0.007 -10e-4,-0.01"
         id="path86868" /></clipPath><clipPath
       clipPathUnits="userSpaceOnUse"
       id="clipPath86982"><path
         d="m 318.359,53.15 h 40.108 v 40.107 h -40.108 z"
         id="path86980" /></clipPath><clipPath
       clipPathUnits="userSpaceOnUse"
       id="clipPath87234"><path
         d="M 36.85,587.528 H 153.408 V 750.52 H 36.85 Z"
         id="path87232" /></clipPath><clipPath
       clipPathUnits="userSpaceOnUse"
       id="clipPath87246"><path
         d="M 0,0 H 595.276 V 841.89 H 0 Z"
         id="path87244" /></clipPath><clipPath
       clipPathUnits="userSpaceOnUse"
       id="clipPath87254"><path
         d="M 33.5714,603.503 H 154.356 V 586.528 H 33.5714 Z"
         id="path87252" /></clipPath><clipPath
       clipPathUnits="userSpaceOnUse"
       id="clipPath87272"><path
         d="M 303.021,587.527 H 419.528 V 750.52 H 303.021 Z"
         id="path87270" /></clipPath><clipPath
       clipPathUnits="userSpaceOnUse"
       id="clipPath87284"><path
         d="M 0,0 H 595.276 V 841.89 H 0 Z"
         id="path87282" /></clipPath><clipPath
       clipPathUnits="userSpaceOnUse"
       id="clipPath87292"><path
         d="M 300.03,603.503 H 420.431 V 586.528 H 300.03 Z"
         id="path87290" /></clipPath><clipPath
       clipPathUnits="userSpaceOnUse"
       id="clipPath87310"><path
         d="M 170.078,587.528 H 286.299 V 750.52 H 170.078 Z"
         id="path87308" /></clipPath><clipPath
       clipPathUnits="userSpaceOnUse"
       id="clipPath87322"><path
         d="M 0,0 H 595.276 V 841.89 H 0 Z"
         id="path87320" /></clipPath><clipPath
       clipPathUnits="userSpaceOnUse"
       id="clipPath87330"><path
         d="M 166.801,603.503 H 287.299 V 586.528 H 166.801 Z"
         id="path87328" /></clipPath><clipPath
       clipPathUnits="userSpaceOnUse"
       id="clipPath87348"><path
         d="M 436.487,587.527 H 552.755 V 750.52 H 436.487 Z"
         id="path87346" /></clipPath><clipPath
       clipPathUnits="userSpaceOnUse"
       id="clipPath87360"><path
         d="M 0,0 H 595.276 V 841.89 H 0 Z"
         id="path87358" /></clipPath><clipPath
       clipPathUnits="userSpaceOnUse"
       id="clipPath87368"><path
         d="M 433.115,603.503 H 553.516 V 586.528 H 433.115 Z"
         id="path87366" /></clipPath><clipPath
       clipPathUnits="userSpaceOnUse"
       id="clipPath87468"><path
         d="M 36.85,36.85 H 153.355 V 211.719 H 36.85 Z"
         id="path87466" /></clipPath><clipPath
       clipPathUnits="userSpaceOnUse"
       id="clipPath87482"><path
         d="M 0,0 H 595.276 V 841.89 H 0 Z"
         id="path87480" /></clipPath><clipPath
       clipPathUnits="userSpaceOnUse"
       id="clipPath87490"><path
         d="M 33.5729,61.8254 H 154.071 V 35.8504 H 33.5729 Z"
         id="path87488" /></clipPath><clipPath
       clipPathUnits="userSpaceOnUse"
       id="clipPath87510"><path
         d="M 436.535,312.709 H 552.756 V 475.701 H 436.535 Z"
         id="path87508" /></clipPath><clipPath
       clipPathUnits="userSpaceOnUse"
       id="clipPath87522"><path
         d="M 0,0 H 595.276 V 841.89 H 0 Z"
         id="path87520" /></clipPath><clipPath
       clipPathUnits="userSpaceOnUse"
       id="clipPath87530"><path
         d="m 433.258,337.709 h 120.498 v -26 H 433.258 Z"
         id="path87528" /></clipPath><clipPath
       clipPathUnits="userSpaceOnUse"
       id="clipPath87548"><path
         d="M 303.211,312.71 H 419.528 V 475.702 H 303.211 Z"
         id="path87546" /></clipPath><clipPath
       clipPathUnits="userSpaceOnUse"
       id="clipPath87560"><path
         d="M 0,0 H 595.276 V 841.89 H 0 Z"
         id="path87558" /></clipPath><clipPath
       clipPathUnits="userSpaceOnUse"
       id="clipPath87568"><path
         d="M 299.933,338.039 H 420.528 V 311.71 H 299.933 Z"
         id="path87566" /></clipPath><clipPath
       clipPathUnits="userSpaceOnUse"
       id="clipPath87630"><path
         d="M 36.849,312.71 H 286.301 V 475.702 H 36.849 Z"
         id="path87628" /></clipPath><clipPath
       clipPathUnits="userSpaceOnUse"
       id="clipPath87644"><path
         d="m 436.633,121.37 h 47.634 v 42.298 h -47.634 z"
         id="path87642" /></clipPath><clipPath
       clipPathUnits="userSpaceOnUse"
       id="clipPath87658"><path
         d="m 484.119,121.37 h 47.734 v 42.298 h -47.734 z"
         id="path87656" /></clipPath><clipPath
       clipPathUnits="userSpaceOnUse"
       id="clipPath87672"><path
         d="m 531.705,104.141 h 11.065 v 59.528 h -11.065 z"
         id="path87670" /></clipPath><clipPath
       clipPathUnits="userSpaceOnUse"
       id="clipPath87686"><path
         d="m 436.633,104.141 h 95.22 v 17.377 h -95.22 z"
         id="path87684" /></clipPath><clipPath
       clipPathUnits="userSpaceOnUse"
       id="clipPath87700"><path
         d="m 447.874,127.079 h 25.648 v 25.648 h -25.648 z"
         id="path87698" /></clipPath><clipPath
       clipPathUnits="userSpaceOnUse"
       id="clipPath87712"><path
         d="M 484.213,123.586 H 534.3 v 14.208 h -50.087 z"
         id="path87710" /></clipPath></defs><sodipodi:namedview
     id="namedview84792"
     pagecolor="#505050"
     bordercolor="#ffffff"
     borderopacity="1"
     inkscape:pageshadow="0"
     inkscape:pageopacity="0"
     inkscape:pagecheckerboard="1"
     showgrid="false"
     inkscape:zoom="3.8278715"
     inkscape:cx="39.186268"
     inkscape:cy="18.156304"
     inkscape:window-width="1481"
     inkscape:window-height="969"
     inkscape:window-x="58"
     inkscape:window-y="25"
     inkscape:window-maximized="0"
     inkscape:current-layer="g84796"
     fit-margin-top="0"
     fit-margin-left="0"
     fit-margin-right="0"
     fit-margin-bottom="0" /><g
     id="g84796"
     inkscape:groupmode="layer"
     inkscape:label="7gzd_pe-3000743_treier_newsletter_16-2020"
     transform="matrix(1.3333333,0,0,-1.3333333,-421.92666,295.74799)"><g
       id="g85164"><g
         id="g85166"
         clip-path="url(#clipPath85170)"><g
           id="g85172"
           transform="translate(323.4534,175.7795)"><path
             d="M 0,0 V 7.702 H -1.65 V 4.676 H -5.29 V 7.702 H -6.929 V 0 h 1.639 v 3.246 h 3.64 V 0 Z m 5.233,-0.139 c 2.322,0 4.018,1.662 4.018,3.984 0,2.323 -1.696,3.985 -4.018,3.985 -2.334,0 -4.03,-1.662 -4.03,-3.985 0,-2.322 1.696,-3.984 4.03,-3.984 m 0,1.454 c -1.433,0 -2.346,1.098 -2.346,2.53 0,1.445 0.913,2.531 2.346,2.531 1.421,0 2.334,-1.086 2.334,-2.531 0,-1.432 -0.913,-2.53 -2.334,-2.53 m 8.974,-1.454 c 1.687,0 2.668,0.935 3.21,1.893 L 16.01,2.436 C 15.686,1.812 14.993,1.315 14.207,1.315 c -1.409,0 -2.426,1.075 -2.426,2.53 0,1.456 1.017,2.531 2.426,2.531 0.786,0 1.479,-0.497 1.803,-1.121 l 1.407,0.693 c -0.542,0.97 -1.523,1.882 -3.21,1.882 -2.322,0 -4.111,-1.605 -4.111,-3.985 0,-2.368 1.789,-3.984 4.111,-3.984 M 25.387,0 v 7.702 h -1.65 V 4.676 h -3.64 V 7.702 H 18.458 V 0 h 1.639 v 3.246 h 3.64 V 0 Z m 5.753,0 c 1.478,0 2.239,0.923 2.239,2.09 0,0.959 -0.646,1.756 -1.477,1.882 0.727,0.15 1.327,0.808 1.327,1.768 0,1.028 -0.75,1.962 -2.216,1.962 H 26.959 V 0 Z M 30.655,4.642 H 28.598 V 6.26 h 2.057 c 0.554,0 0.901,-0.335 0.901,-0.809 0,-0.497 -0.347,-0.809 -0.901,-0.809 m 0.069,-3.2 h -2.126 v 1.757 h 2.126 c 0.635,0 0.982,-0.393 0.982,-0.878 0,-0.555 -0.37,-0.879 -0.982,-0.879 z M 41.857,0 38.889,7.702 H 36.834 L 33.866,0 h 1.859 l 0.485,1.305 h 3.303 L 39.998,0 Z M 39.062,2.747 H 36.66 l 1.201,3.315 z m 6.665,-2.886 c 2.345,0 3.476,1.316 3.476,3.221 v 4.62 H 47.53 V 3.129 c 0,-1.075 -0.613,-1.814 -1.803,-1.814 -1.19,0 -1.814,0.739 -1.814,1.814 v 4.573 h -1.662 v -4.62 c 0,-1.905 1.131,-3.221 3.476,-3.221 m 5.428,0.012 c 0.508,0 0.935,0.427 0.935,0.935 0,0.508 -0.427,0.935 -0.935,0.935 -0.507,0 -0.934,-0.427 -0.934,-0.935 0,-0.508 0.427,-0.935 0.934,-0.935 M 59.921,0 v 6.26 h 2.241 V 7.702 H 56.018 V 6.26 h 2.253 V 0 Z M 64.91,7.702 H 63.271 V 0 H 64.91 Z M 71.944,0 v 1.442 h -3.811 v 1.757 h 3.73 v 1.443 h -3.73 V 6.26 h 3.811 v 1.442 h -5.45 V 0 Z m 2.98,0 v 3.199 h 3.731 V 4.642 H 74.924 V 6.26 h 3.812 V 7.702 H 73.285 V 0 Z m 9.195,0 c 1.478,0 2.24,0.923 2.24,2.09 0,0.959 -0.647,1.756 -1.478,1.882 0.727,0.15 1.327,0.808 1.327,1.768 0,1.028 -0.75,1.962 -2.216,1.962 H 79.938 V 0 Z M 83.634,4.642 H 81.577 V 6.26 h 2.057 c 0.554,0 0.901,-0.335 0.901,-0.809 0,-0.497 -0.347,-0.809 -0.901,-0.809 m 0.069,-3.2 h -2.126 v 1.757 h 2.126 c 0.636,0 0.982,-0.393 0.982,-0.878 0,-0.555 -0.37,-0.879 -0.982,-0.879 z M 94.836,0 91.868,7.702 H 89.813 L 86.845,0 h 1.859 l 0.485,1.305 h 3.303 L 92.977,0 Z M 92.042,2.747 H 89.64 l 1.201,3.315 z m 6.664,-2.886 c 2.345,0 3.476,1.316 3.476,3.221 v 4.62 h -1.673 V 3.129 c 0,-1.075 -0.613,-1.814 -1.803,-1.814 -1.19,0 -1.814,0.739 -1.814,1.814 V 7.702 H 95.23 v -4.62 c 0,-1.905 1.131,-3.221 3.476,-3.221 m 5.429,0.012 c 0.508,0 0.935,0.427 0.935,0.935 0,0.508 -0.427,0.935 -0.935,0.935 -0.508,0 -0.935,-0.427 -0.935,-0.935 0,-0.508 0.427,-0.935 0.935,-0.935 m 9.078,-0.012 c 1.386,0 2.483,0.566 3.268,1.443 v 2.957 h -3.672 V 2.83 h 2.033 V 1.905 c -0.312,-0.289 -0.947,-0.59 -1.629,-0.59 -1.41,0 -2.426,1.075 -2.426,2.53 0,1.456 1.016,2.531 2.426,2.531 0.809,0 1.467,-0.463 1.825,-1.006 l 1.35,0.74 c -0.577,0.912 -1.581,1.72 -3.175,1.72 -2.265,0 -4.111,-1.547 -4.111,-3.985 0,-2.426 1.846,-3.984 4.111,-3.984 m 6.271,7.841 h -1.639 V 0 h 1.639 z M 122.706,0 v 2.749 h 1.964 c 1.663,0 2.587,1.131 2.587,2.471 0,1.352 -0.912,2.482 -2.587,2.482 h -3.603 V 0 Z m 1.733,4.191 h -1.733 V 6.26 h 1.733 c 0.647,0 1.144,-0.393 1.144,-1.04 0,-0.636 -0.497,-1.029 -1.144,-1.029 m 6.653,-4.33 c 2.068,0 3.083,1.062 3.083,2.471 0,2.877 -4.424,2.056 -4.424,3.27 0,0.462 0.393,0.762 1.087,0.762 0.785,0 1.618,-0.266 2.241,-0.843 l 0.911,1.224 c -0.761,0.704 -1.777,1.073 -3.002,1.073 -1.814,0 -2.921,-1.062 -2.921,-2.343 0,-2.9 4.435,-1.965 4.435,-3.305 0,-0.45 -0.428,-0.855 -1.341,-0.855 -1.063,0 -1.906,0.486 -2.448,1.052 l -0.901,-1.282 c 0.728,-0.727 1.789,-1.224 3.28,-1.224 M 140.782,0 v 1.442 h -3.812 v 1.757 h 3.731 V 4.642 H 136.97 V 6.26 h 3.812 v 1.442 h -5.451 V 0 Z m 7.588,0 -1.743,2.934 c 0.831,0.196 1.697,0.934 1.697,2.286 0,1.432 -0.993,2.482 -2.598,2.482 h -3.603 V 0 h 1.638 v 2.737 h 1.202 L 146.477,0 Z m -2.875,4.18 h -1.734 v 2.08 h 1.734 c 0.647,0 1.144,-0.393 1.144,-1.029 0,-0.658 -0.497,-1.051 -1.144,-1.051 M 155.057,0 v 1.442 h -3.811 v 1.757 h 3.73 v 1.443 h -3.73 V 6.26 h 3.811 v 1.442 h -5.45 V 0 Z m 2.98,7.702 h -1.639 V 0 h 1.639 z m 2.299,-7.829 c 0.508,0 0.935,0.427 0.935,0.935 0,0.508 -0.427,0.935 -0.935,0.935 -0.508,0 -0.935,-0.427 -0.935,-0.935 0,-0.508 0.427,-0.935 0.935,-0.935"
             style="fill:#231f20;fill-opacity:1;fill-rule:nonzero;stroke:none"
             id="path85174" /></g></g></g><path
       d="m 316.445,189 h 168.273 v 32.811 H 316.445 Z"
       style="fill:#231f20;fill-opacity:1;fill-rule:nonzero;stroke:none"
       id="path85176" /><g
       id="g85178"
       transform="translate(356.3073,217.1237)"><path
         d="m 0,0 h -35.175 v -10.461 h 17.133 v -12.975 h 9.045 v 12.975 H 0 Z"
         style="fill:#e32124;fill-opacity:1;fill-rule:nonzero;stroke:none"
         id="path85180" /></g><g
       id="g85182"
       transform="translate(367.5715,193.6852)"><path
         d="m 0,0 v 18.162 h -6.569 v 5.27 h 19.146 v -5.27 H 6.042 V 0 Z"
         style="fill:#ffffff;fill-opacity:1;fill-rule:nonzero;stroke:none"
         id="path85184" /></g><g
       id="g85186"><g
         id="g85188"
         clip-path="url(#clipPath85192)"><g
           id="g85194"
           transform="translate(396.0954,193.6852)"><path
             d="M 0,0 -3.935,7.87 H -7.026 V 0 h -6.043 v 23.432 h 11.734 c 5.199,0 8.15,-3.443 8.15,-7.798 0,-4.076 -2.459,-6.254 -4.672,-7.027 L 6.921,0 Z m 0.667,15.668 c 0,1.617 -1.299,2.494 -2.915,2.494 h -4.778 v -5.023 h 4.778 c 1.616,0 2.915,0.879 2.915,2.529"
             style="fill:#ffffff;fill-opacity:1;fill-rule:nonzero;stroke:none"
             id="path85196" /></g></g></g><g
       id="g85198"
       transform="translate(406.2459,193.6852)"><path
         d="m 0,0 v 23.432 h 17.179 v -5.27 H 6.042 V 14.51 H 16.933 V 9.24 H 6.042 V 5.27 H 17.179 V 0 Z"
         style="fill:#ffffff;fill-opacity:1;fill-rule:nonzero;stroke:none"
         id="path85200" /></g><path
       d="m 427.638,217.117 h 6.042 v -23.432 h -6.042 z"
       style="fill:#ffffff;fill-opacity:1;fill-rule:nonzero;stroke:none"
       id="path85202" /><g
       id="g85204"
       transform="translate(438.5974,193.6852)"><path
         d="m 0,0 v 23.432 h 17.179 v -5.27 H 6.042 V 14.51 H 16.933 V 9.24 H 6.042 V 5.27 H 17.179 V 0 Z"
         style="fill:#ffffff;fill-opacity:1;fill-rule:nonzero;stroke:none"
         id="path85206" /></g><g
       id="g85208"><g
         id="g85210"
         clip-path="url(#clipPath85214)"><g
           id="g85216"
           transform="translate(473.0582,193.6852)"><path
             d="M 0,0 -3.935,7.87 H -7.026 V 0 h -6.042 v 23.432 h 11.733 c 5.2,0 8.151,-3.443 8.151,-7.798 0,-4.076 -2.46,-6.254 -4.673,-7.027 L 6.921,0 Z m 0.667,15.668 c 0,1.617 -1.299,2.494 -2.915,2.494 h -4.778 v -5.023 h 4.778 c 1.616,0 2.915,0.879 2.915,2.529"
             style="fill:#ffffff;fill-opacity:1;fill-rule:nonzero;stroke:none"
             id="path85218" /></g></g></g></g></svg>
